CharisSIL-Regular.ufo
<glyph name="ExclamationMrk" format="1">
  <advance width="692"/>
  <unicode hex="0021"/>
  <outline>
    <contour>
      <point x="471" y="1274" type="curve" smooth="yes"/>
      <point x="471" y="1356"/>
      <point x="432" y="1407"/>
      <point x="346" y="1407" type="curve" smooth="yes"/>
      <point x="260" y="1407"/>
      <point x="221" y="1356"/>
      <point x="221" y="1274" type="curve" smooth="yes"/>
      <point x="221" y="1241"/>
      <point x="297" y="371"/>
      <point x="297" y="371" type="curve"/>
      <point x="397" y="371" type="line"/>
      <point x="397" y="371"/>
      <point x="471" y="1241"/>
    </contour>
    <contour>
      <point x="473" y="102" type="curve" smooth="yes"/>
      <point x="473" y="172"/>
      <point x="416" y="227"/>
      <point x="346" y="227" type="curve" smooth="yes"/>
      <point x="276" y="227"/>
      <point x="221" y="172"/>
      <point x="221" y="102" type="curve" smooth="yes"/>
      <point x="221" y="35"/>
      <point x="276" y="-25"/>
      <point x="346" y="-25" type="curve" smooth="yes"/>
      <point x="416" y="-25"/>
      <point x="473" y="35"/>
    </contour>
  </outline>
</glyph>
<glyph name="PercentSgn" format="2">
  <advance width="1761"/>
  <unicode hex="0025"/>
  <outline>
    <contour>
      <point x="1696" y="397" type="curve" smooth="yes"/>
      <point x="1696" y="641"/>
      <point x="1593" y="827"/>
      <point x="1382" y="827" type="curve" smooth="yes"/>
      <point x="1171" y="827"/>
      <point x="1067" y="641"/>
      <point x="1067" y="397" type="curve" smooth="yes"/>
      <point x="1067" y="154"/>
      <point x="1171" y="-33"/>
      <point x="1382" y="-33" type="curve" smooth="yes"/>
      <point x="1593" y="-33"/>
      <point x="1696" y="154"/>
    </contour>
    <contour>
      <point x="1380" y="1374" type="line"/>
      <point x="1253" y="1374" type="line"/>
      <point x="383" y="0" type="line"/>
      <point x="512" y="0" type="line"/>
    </contour>
    <contour>
      <point x="694" y="977" type="curve" smooth="yes"/>
      <point x="694" y="1221"/>
      <point x="592" y="1407"/>
      <point x="381" y="1407" type="curve" smooth="yes"/>
      <point x="170" y="1407"/>
      <point x="66" y="1221"/>
      <point x="66" y="977" type="curve" smooth="yes"/>
      <point x="66" y="733"/>
      <point x="170" y="547"/>
      <point x="381" y="547" type="curve" smooth="yes"/>
      <point x="592" y="547"/>
      <point x="694" y="733"/>
    </contour>
    <contour>
      <point x="1538" y="397" type="curve" smooth="yes"/>
      <point x="1538" y="182"/>
      <point x="1493" y="43"/>
      <point x="1382" y="43" type="curve" smooth="yes"/>
      <point x="1272" y="43"/>
      <point x="1221" y="182"/>
      <point x="1221" y="397" type="curve" smooth="yes"/>
      <point x="1221" y="612"/>
      <point x="1272" y="750"/>
      <point x="1382" y="750" type="curve" smooth="yes"/>
      <point x="1493" y="750"/>
      <point x="1538" y="612"/>
    </contour>
    <contour>
      <point x="537" y="977" type="curve" smooth="yes"/>
      <point x="537" y="762"/>
      <point x="492" y="625"/>
      <point x="381" y="625" type="curve" smooth="yes"/>
      <point x="270" y="625"/>
      <point x="219" y="762"/>
      <point x="219" y="977" type="curve" smooth="yes"/>
      <point x="219" y="1192"/>
      <point x="270" y="1329"/>
      <point x="381" y="1329" type="curve" smooth="yes"/>
      <point x="492" y="1329"/>
      <point x="537" y="1192"/>
    </contour>
  </outline>
</glyph>
<glyph name="RtParen" format="2">
  <advance width="770"/>
  <unicode hex="0029"/>
  <outline>
    <contour>
      <point x="651" y="590" type="curve" smooth="yes"/>
      <point x="651" y="1036"/>
      <point x="498" y="1421"/>
      <point x="70" y="1468" type="curve"/>
      <point x="70" y="1378" type="line"/>
      <point x="358" y="1331"/>
      <point x="459" y="1044"/>
      <point x="459" y="590" type="curve" smooth="yes"/>
      <point x="459" y="135"/>
      <point x="358" y="-154"/>
      <point x="70" y="-201" type="curve"/>
      <point x="70" y="-291" type="line"/>
      <point x="498" y="-244"/>
      <point x="651" y="143"/>
    </contour>
  </outline>
</glyph>
<glyph name="Comma" format="2">
  <advance width="573"/>
  <unicode hex="002C"/>
  <outline>
    <contour>
      <point x="422" y="20" type="curve" smooth="yes"/>
      <point x="422" y="152"/>
      <point x="369" y="250"/>
      <point x="252" y="250" type="curve" smooth="yes"/>
      <point x="178" y="250"/>
      <point x="125" y="180"/>
      <point x="125" y="109" type="curve" smooth="yes"/>
      <point x="125" y="53"/>
      <point x="156" y="20"/>
      <point x="162" y="14" type="curve"/>
      <point x="291" y="14" type="line"/>
      <point x="293" y="-172"/>
      <point x="211" y="-242"/>
      <point x="66" y="-274" type="curve"/>
      <point x="66" y="-348" type="line"/>
      <point x="252" y="-332"/>
      <point x="422" y="-184"/>
    </contour>
  </outline>
</glyph>
<glyph name="HyphenMinus" format="1">
  <advance width="655"/>
  <unicode hex="002D"/>
  <outline>
    <contour>
      <point x="565" y="416" type="line"/>
      <point x="565" y="569" type="line"/>
      <point x="90" y="569" type="line"/>
      <point x="90" y="416" type="line"/>
    </contour>
    <contour>
      <point x="327" y="1100" type="move" name="U"/>
    </contour>
  </outline>
</glyph>
<glyph name="DigitTwo" format="2">
  <advance width="1153"/>
  <unicode hex="0032"/>
  <anchor x="576" y="-100" name="L"/>
  <anchor x="576" y="1500" name="U"/>
  <outline>
    <contour>
      <point x="1057" y="0" type="line"/>
      <point x="1057" y="348" type="line"/>
      <point x="956" y="348" type="line"/>
      <point x="920" y="172" type="line"/>
      <point x="313" y="172" type="line"/>
      <point x="682" y="463"/>
      <point x="1032" y="719"/>
      <point x="1032" y="1008" type="curve" smooth="yes"/>
      <point x="1032" y="1245"/>
      <point x="842" y="1407"/>
      <point x="575" y="1407" type="curve" smooth="yes"/>
      <point x="336" y="1407"/>
      <point x="125" y="1274"/>
      <point x="125" y="1102" type="curve" smooth="yes"/>
      <point x="125" y="1020"/>
      <point x="184" y="981"/>
      <point x="248" y="981" type="curve" smooth="yes"/>
      <point x="311" y="981"/>
      <point x="348" y="1016"/>
      <point x="348" y="1016" type="curve"/>
      <point x="348" y="1243" type="line"/>
      <point x="358" y="1245"/>
      <point x="422" y="1296"/>
      <point x="518" y="1296" type="curve" smooth="yes"/>
      <point x="678" y="1296"/>
      <point x="811" y="1184"/>
      <point x="811" y="987" type="curve" smooth="yes"/>
      <point x="811" y="700"/>
      <point x="512" y="481"/>
      <point x="96" y="137" type="curve"/>
      <point x="96" y="0" type="line"/>
    </contour>
  </outline>
</glyph>
<glyph name="DigitFour" format="1">
  <advance width="1153"/>
  <unicode hex="0034"/>
  <outline>
    <contour>
      <point x="1071" y="408" type="line"/>
      <point x="1071" y="547" type="line"/>
      <point x="897" y="547" type="line"/>
      <point x="897" y="1407" type="line"/>
      <point x="754" y="1407" type="line"/>
      <point x="82" y="549" type="line"/>
      <point x="82" y="408" type="line"/>
      <point x="705" y="408" type="line"/>
      <point x="705" y="-33" type="line"/>
      <point x="897" y="-33" type="line"/>
      <point x="897" y="408" type="line"/>
    </contour>
    <contour>
      <point x="705" y="547" type="line"/>
      <point x="244" y="547" type="line"/>
      <point x="705" y="1145" type="line"/>
    </contour>
    <contour>
      <point x="576" y="-100" type="move" name="L"/>
    </contour>
    <contour>
      <point x="576" y="1500" type="move" name="U"/>
    </contour>
  </outline>
</glyph>
<glyph name="DigitFive" format="2">
  <advance width="1153"/>
  <unicode hex="0035"/>
  <anchor x="575" y="-100" name="L"/>
  <anchor x="575" y="1500" name="U"/>
  <outline>
    <contour>
      <point x="1059" y="444" type="curve" smooth="yes"/>
      <point x="1059" y="709"/>
      <point x="881" y="864"/>
      <point x="596" y="864" type="curve" smooth="yes"/>
      <point x="459" y="864"/>
      <point x="324" y="811"/>
      <point x="319" y="811" type="curve"/>
      <point x="319" y="1200" type="line"/>
      <point x="965" y="1200" type="line"/>
      <point x="965" y="1374" type="line"/>
      <point x="174" y="1374" type="line"/>
      <point x="174" y="664" type="line"/>
      <point x="174" y="664"/>
      <point x="367" y="733"/>
      <point x="500" y="733" type="curve" smooth="yes"/>
      <point x="698" y="733"/>
      <point x="850" y="625"/>
      <point x="850" y="395" type="curve" smooth="yes"/>
      <point x="850" y="250"/>
      <point x="729" y="68"/>
      <point x="512" y="68" type="curve" smooth="yes"/>
      <point x="465" y="68"/>
      <point x="387" y="96"/>
      <point x="354" y="127" type="curve"/>
      <point x="276" y="315" type="line"/>
      <point x="268" y="317"/>
      <point x="244" y="324"/>
      <point x="221" y="324" type="curve" smooth="yes"/>
      <point x="147" y="324"/>
      <point x="92" y="283"/>
      <point x="92" y="209" type="curve" smooth="yes"/>
      <point x="92" y="102"/>
      <point x="268" y="-33"/>
      <point x="481" y="-33" type="curve" smooth="yes"/>
      <point x="858" y="-33"/>
      <point x="1059" y="166"/>
    </contour>
  </outline>
</glyph>
<glyph name="DigitSeven" format="1">
  <advance width="1153"/>
  <unicode hex="0037"/>
  <outline>
    <contour>
      <point x="1067" y="1260" type="line"/>
      <point x="1067" y="1374" type="line"/>
      <point x="86" y="1374" type="line"/>
      <point x="86" y="1014" type="line"/>
      <point x="190" y="1014" type="line"/>
      <point x="223" y="1200" type="line"/>
      <point x="854" y="1200" type="line"/>
      <point x="178" y="-33" type="line"/>
      <point x="395" y="-33" type="line"/>
      <point x="395" y="35" type="line"/>
    </contour>
    <contour>
      <point x="576" y="1500" type="move" name="U"/>
    </contour>
    <contour>
      <point x="576" y="-100" type="move" name="L"/>
    </contour>
  </outline>
</glyph>
<glyph name="DigitNine" format="2">
  <advance width="1153"/>
  <unicode hex="0039"/>
  <anchor x="576" y="-100" name="L"/>
  <anchor x="576" y="1500" name="U"/>
  <outline>
    <contour>
      <point x="250" y="-33" type="line"/>
      <point x="770" y="-33"/>
      <point x="1071" y="297"/>
      <point x="1071" y="786" type="curve" smooth="yes"/>
      <point x="1071" y="1235"/>
      <point x="854" y="1407"/>
      <point x="578" y="1407" type="curve" smooth="yes"/>
      <point x="301" y="1407"/>
      <point x="82" y="1202"/>
      <point x="82" y="903" type="curve" smooth="yes"/>
      <point x="82" y="659"/>
      <point x="250" y="479"/>
      <point x="508" y="479" type="curve" smooth="yes"/>
      <point x="623" y="479"/>
      <point x="737" y="510"/>
      <point x="850" y="608" type="curve"/>
      <point x="807" y="283"/>
      <point x="580" y="84"/>
      <point x="319" y="92" type="curve" smooth="yes"/>
      <point x="250" y="94" type="line"/>
    </contour>
    <contour>
      <point x="578" y="612" type="curve" smooth="yes"/>
      <point x="397" y="612"/>
      <point x="289" y="731"/>
      <point x="289" y="932" type="curve" smooth="yes"/>
      <point x="289" y="1137"/>
      <point x="381" y="1300"/>
      <point x="578" y="1300" type="curve" smooth="yes"/>
      <point x="774" y="1300"/>
      <point x="858" y="1106"/>
      <point x="858" y="827" type="curve" smooth="yes"/>
      <point x="858" y="797"/>
      <point x="858" y="758"/>
      <point x="854" y="715" type="curve"/>
      <point x="774" y="653"/>
      <point x="666" y="612"/>
    </contour>
  </outline>
</glyph>
<glyph name="Semicolon" format="2">
  <advance width="573"/>
  <unicode hex="003B"/>
  <outline>
    <contour>
      <point x="422" y="20" type="curve" smooth="yes"/>
      <point x="422" y="152"/>
      <point x="369" y="250"/>
      <point x="252" y="250" type="curve" smooth="yes"/>
      <point x="178" y="250"/>
      <point x="125" y="180"/>
      <point x="125" y="109" type="curve" smooth="yes"/>
      <point x="125" y="53"/>
      <point x="156" y="20"/>
      <point x="162" y="14" type="curve"/>
      <point x="291" y="14" type="line"/>
      <point x="291" y="-172"/>
      <point x="211" y="-242"/>
      <point x="66" y="-274" type="curve"/>
      <point x="66" y="-348" type="line"/>
      <point x="252" y="-332"/>
      <point x="422" y="-184"/>
    </contour>
    <contour>
      <point x="399" y="874" type="curve" smooth="yes"/>
      <point x="399" y="950"/>
      <point x="340" y="1012"/>
      <point x="264" y="1012" type="curve" smooth="yes"/>
      <point x="188" y="1012"/>
      <point x="125" y="950"/>
      <point x="125" y="874" type="curve" smooth="yes"/>
      <point x="125" y="799"/>
      <point x="186" y="737"/>
      <point x="262" y="737" type="curve" smooth="yes"/>
      <point x="338" y="737"/>
      <point x="399" y="799"/>
    </contour>
  </outline>
</glyph>
<glyph name="AtSgn" format="2">
  <advance width="1917"/>
  <unicode hex="0040"/>
  <outline>
    <contour>
      <point x="1769" y="764" type="curve" smooth="yes"/>
      <point x="1769" y="1186"/>
      <point x="1475" y="1415"/>
      <point x="1069" y="1415" type="curve" smooth="yes"/>
      <point x="612" y="1415"/>
      <point x="150" y="1096"/>
      <point x="150" y="489" type="curve" smooth="yes"/>
      <point x="150" y="-8"/>
      <point x="526" y="-313"/>
      <point x="965" y="-313" type="curve" smooth="yes"/>
      <point x="1202" y="-313"/>
      <point x="1399" y="-231"/>
      <point x="1583" y="-133" type="curve"/>
      <point x="1554" y="-59" type="line"/>
      <point x="1430" y="-129"/>
      <point x="1253" y="-211"/>
      <point x="1014" y="-211" type="curve" smooth="yes"/>
      <point x="561" y="-211"/>
      <point x="297" y="109"/>
      <point x="297" y="526" type="curve" smooth="yes"/>
      <point x="297" y="983"/>
      <point x="629" y="1325"/>
      <point x="1096" y="1325" type="curve" smooth="yes"/>
      <point x="1384" y="1325"/>
      <point x="1669" y="1147"/>
      <point x="1669" y="762" type="curve" smooth="yes"/>
      <point x="1669" y="436"/>
      <point x="1477" y="231"/>
      <point x="1356" y="231" type="curve" smooth="yes"/>
      <point x="1278" y="231"/>
      <point x="1257" y="297"/>
      <point x="1280" y="391" type="curve"/>
      <point x="1280" y="391"/>
      <point x="1409" y="967"/>
      <point x="1419" y="999" type="curve"/>
      <point x="1305" y="999" type="line"/>
      <point x="1268" y="952" type="line"/>
      <point x="1208" y="985"/>
      <point x="1126" y="1008"/>
      <point x="1067" y="1008" type="curve" smooth="yes"/>
      <point x="809" y="1008"/>
      <point x="557" y="764"/>
      <point x="557" y="451" type="curve" smooth="yes"/>
      <point x="557" y="246"/>
      <point x="664" y="117"/>
      <point x="813" y="117" type="curve" smooth="yes"/>
      <point x="909" y="117"/>
      <point x="1004" y="178"/>
      <point x="1110" y="285" type="curve"/>
      <point x="1110" y="172"/>
      <point x="1157" y="115"/>
      <point x="1270" y="115" type="curve" smooth="yes"/>
      <point x="1475" y="115"/>
      <point x="1769" y="348"/>
    </contour>
    <contour>
      <point x="1196" y="805" type="curve"/>
      <point x="1114" y="381" type="line"/>
      <point x="1071" y="328"/>
      <point x="997" y="248"/>
      <point x="905" y="248" type="curve" smooth="yes"/>
      <point x="803" y="248"/>
      <point x="745" y="322"/>
      <point x="745" y="469" type="curve" smooth="yes"/>
      <point x="745" y="719"/>
      <point x="872" y="922"/>
      <point x="1075" y="922" type="curve" smooth="yes"/>
      <point x="1149" y="922"/>
      <point x="1204" y="840"/>
    </contour>
  </outline>
</glyph>
<glyph name="LtnCapF" format="2">
  <advance width="1108"/>
  <unicode hex="0046"/>
  <anchor x="549" y="-100" name="L"/>
  <anchor x="549" y="1500" name="U"/>
  <outline>
    <contour>
      <point x="1047" y="1049" type="line"/>
      <point x="1047" y="1374" type="line"/>
      <point x="51" y="1374" type="line"/>
      <point x="51" y="1286" type="line"/>
      <point x="176" y="1278" type="line" smooth="yes"/>
      <point x="205" y="1276"/>
      <point x="219" y="1253"/>
      <point x="219" y="1233" type="curve" smooth="yes"/>
      <point x="219" y="141" type="line" smooth="yes"/>
      <point x="219" y="121"/>
      <point x="205" y="98"/>
      <point x="176" y="96" type="curve" smooth="yes"/>
      <point x="68" y="88" type="line"/>
      <point x="68" y="0" type="line"/>
      <point x="606" y="0" type="line"/>
      <point x="606" y="88" type="line"/>
      <point x="469" y="96" type="line" smooth="yes"/>
      <point x="440" y="98"/>
      <point x="426" y="121"/>
      <point x="426" y="141" type="curve" smooth="yes"/>
      <point x="426" y="641" type="line"/>
      <point x="739" y="641" type="line" smooth="yes"/>
      <point x="756" y="641"/>
      <point x="774" y="618"/>
      <point x="776" y="604" type="curve" smooth="yes"/>
      <point x="795" y="461" type="line"/>
      <point x="897" y="461" type="line"/>
      <point x="897" y="922" type="line"/>
      <point x="795" y="922" type="line"/>
      <point x="776" y="778" type="line" smooth="yes"/>
      <point x="774" y="764"/>
      <point x="758" y="741"/>
      <point x="739" y="741" type="curve" smooth="yes"/>
      <point x="426" y="741" type="line"/>
      <point x="426" y="1274" type="line"/>
      <point x="862" y="1274" type="line" smooth="yes"/>
      <point x="881" y="1274"/>
      <point x="893" y="1257"/>
      <point x="897" y="1237" type="curve" smooth="yes"/>
      <point x="926" y="1049" type="line"/>
    </contour>
  </outline>
</glyph>
<glyph name="LtnCapM" format="2">
  <advance width="1794"/>
  <unicode hex="004D"/>
  <anchor x="1472" y="0" name="H"/>
  <anchor x="895" y="-100" name="L"/>
  <anchor x="895" y="1500" name="U"/>
  <outline>
    <contour>
      <point x="1731" y="0" type="line"/>
      <point x="1731" y="88" type="line"/>
      <point x="1620" y="96" type="line" smooth="yes"/>
      <point x="1591" y="98"/>
      <point x="1575" y="121"/>
      <point x="1575" y="141" type="curve" smooth="yes"/>
      <point x="1575" y="1233" type="line" smooth="yes"/>
      <point x="1575" y="1253"/>
      <point x="1591" y="1276"/>
      <point x="1620" y="1278" type="curve" smooth="yes"/>
      <point x="1731" y="1286" type="line"/>
      <point x="1731" y="1374" type="line"/>
      <point x="1260" y="1374" type="line"/>
      <point x="1260" y="1313" type="line"/>
      <point x="889" y="313" type="line"/>
      <point x="518" y="1319" type="line"/>
      <point x="518" y="1374" type="line"/>
      <point x="59" y="1374" type="line"/>
      <point x="59" y="1286" type="line"/>
      <point x="176" y="1278" type="line" smooth="yes"/>
      <point x="205" y="1276"/>
      <point x="219" y="1253"/>
      <point x="219" y="1233" type="curve" smooth="yes"/>
      <point x="219" y="141" type="line" smooth="yes"/>
      <point x="219" y="121"/>
      <point x="205" y="98"/>
      <point x="176" y="96" type="curve" smooth="yes"/>
      <point x="59" y="88" type="line"/>
      <point x="59" y="0" type="line"/>
      <point x="502" y="0" type="line"/>
      <point x="502" y="88" type="line"/>
      <point x="385" y="96" type="line" smooth="yes"/>
      <point x="356" y="98"/>
      <point x="340" y="121"/>
      <point x="340" y="141" type="curve" smooth="yes"/>
      <point x="340" y="1251" type="line"/>
      <point x="795" y="0" type="line"/>
      <point x="897" y="0" type="line"/>
      <point x="1368" y="1270" type="line"/>
      <point x="1368" y="141" type="line" smooth="yes"/>
      <point x="1368" y="121"/>
      <point x="1352" y="98"/>
      <point x="1323" y="96" type="curve" smooth="yes"/>
      <point x="1214" y="88" type="line"/>
      <point x="1214" y="0" type="line"/>
    </contour>
  </outline>
</glyph>
<glyph name="LtnCapS" format="2">
  <advance width="1067"/>
  <unicode hex="0053"/>
  <anchor x="493" y="0" name="H"/>
  <anchor x="543" y="-100" name="L"/>
  <anchor x="563" y="1500" name="U"/>
  <outline>
    <contour>
      <point x="987" y="385" type="curve" smooth="yes"/>
      <point x="987" y="590"/>
      <point x="846" y="690"/>
      <point x="598" y="784" type="curve" smooth="yes"/>
      <point x="414" y="854"/>
      <point x="313" y="930"/>
      <point x="313" y="1055" type="curve" smooth="yes"/>
      <point x="313" y="1194"/>
      <point x="414" y="1296"/>
      <point x="578" y="1296" type="curve" smooth="yes"/>
      <point x="687" y="1296"/>
      <point x="737" y="1264"/>
      <point x="758" y="1249" type="curve" smooth="yes"/>
      <point x="770" y="1241"/>
      <point x="786" y="1228"/>
      <point x="788" y="1214" type="curve" smooth="yes"/>
      <point x="819" y="1018" type="line"/>
      <point x="936" y="1018" type="line"/>
      <point x="936" y="1337" type="line"/>
      <point x="846" y="1368"/>
      <point x="718" y="1407"/>
      <point x="575" y="1407" type="curve" smooth="yes"/>
      <point x="305" y="1407"/>
      <point x="102" y="1249"/>
      <point x="102" y="1006" type="curve" smooth="yes"/>
      <point x="102" y="797"/>
      <point x="250" y="717"/>
      <point x="418" y="637" type="curve" smooth="yes"/>
      <point x="635" y="534"/>
      <point x="778" y="465"/>
      <point x="778" y="324" type="curve" smooth="yes"/>
      <point x="778" y="172"/>
      <point x="651" y="82"/>
      <point x="477" y="82" type="curve" smooth="yes"/>
      <point x="380" y="82"/>
      <point x="313" y="107"/>
      <point x="270" y="129" type="curve" smooth="yes"/>
      <point x="256" y="136"/>
      <point x="238" y="158"/>
      <point x="236" y="174" type="curve" smooth="yes"/>
      <point x="209" y="406" type="line"/>
      <point x="80" y="406" type="line"/>
      <point x="80" y="43" type="line"/>
      <point x="141" y="10"/>
      <point x="283" y="-33"/>
      <point x="444" y="-33" type="curve" smooth="yes"/>
      <point x="829" y="-33"/>
      <point x="987" y="178"/>
    </contour>
  </outline>
</glyph>
<glyph name="LtnCapW" format="2">
  <advance width="1907"/>
  <unicode hex="0057"/>
  <anchor x="973" y="-100" name="L"/>
  <anchor x="983" y="1500" name="U"/>
  <outline>
    <contour>
      <point x="1886" y="1286" type="line"/>
      <point x="1886" y="1374" type="line"/>
      <point x="1468" y="1374" type="line"/>
      <point x="1468" y="1286" type="line"/>
      <point x="1597" y="1274" type="line" smooth="yes"/>
      <point x="1618" y="1272"/>
      <point x="1630" y="1251"/>
      <point x="1626" y="1233" type="curve" smooth="yes"/>
      <point x="1399" y="276" type="line"/>
      <point x="1069" y="1374" type="line"/>
      <point x="911" y="1374" type="line"/>
      <point x="590" y="309" type="line"/>
      <point x="346" y="1233" type="line" smooth="yes"/>
      <point x="342" y="1251"/>
      <point x="348" y="1272"/>
      <point x="367" y="1274" type="curve" smooth="yes"/>
      <point x="489" y="1286" type="line"/>
      <point x="489" y="1374" type="line"/>
      <point x="20" y="1374" type="line"/>
      <point x="20" y="1286" type="line"/>
      <point x="139" y="1262" type="line"/>
      <point x="473" y="-33" type="line"/>
      <point x="621" y="-33" type="line"/>
      <point x="956" y="1102" type="line"/>
      <point x="1298" y="-33" type="line"/>
      <point x="1448" y="-33" type="line"/>
      <point x="1761" y="1262" type="line"/>
    </contour>
  </outline>
</glyph>
<glyph name="RtSqrBrac" format="2">
  <advance width="866"/>
  <unicode hex="005D"/>
  <outline>
    <contour>
      <point x="590" y="-270" type="line"/>
      <point x="590" y="1450" type="line"/>
      <point x="90" y="1450" type="line"/>
      <point x="90" y="1358" type="line"/>
      <point x="412" y="1358" type="line"/>
      <point x="412" y="-176" type="line"/>
      <point x="90" y="-176" type="line"/>
      <point x="90" y="-270" type="line"/>
    </contour>
  </outline>
</glyph>
<glyph name="CircumAccent" format="1">
  <advance width="670"/>
  <unicode hex="005E"/>
  <outline>
    <component base="CombCircum" xOffset="892"/>
    <contour>
      <point x="335" y="1500" type="move" name="U"/>
    </contour>
  </outline>
</glyph>
<glyph name="GraveAccent" format="1">
  <advance width="717"/>
  <unicode hex="0060"/>
  <outline>
    <component base="CombGrave" xOffset="851"/>
    <contour>
      <point x="294" y="1500" type="move" name="U"/>
    </contour>
  </outline>
</glyph>
<glyph name="LtnSmC" format="2">
  <advance width="954"/>
  <unicode hex="0063"/>
  <anchor x="525" y="0" name="H"/>
  <anchor x="535" y="-100" name="L"/>
  <anchor x="954" y="1000" name="R"/>
  <anchor x="550" y="1100" name="U"/>
  <outline>
    <contour>
      <point x="885" y="76" type="curve"/>
      <point x="885" y="193" type="line"/>
      <point x="797" y="135"/>
      <point x="713" y="104"/>
      <point x="618" y="104" type="curve" smooth="yes"/>
      <point x="393" y="104"/>
      <point x="279" y="287"/>
      <point x="279" y="514" type="curve" smooth="yes"/>
      <point x="279" y="752"/>
      <point x="389" y="926"/>
      <point x="571" y="926" type="curve" smooth="yes"/>
      <point x="598" y="926"/>
      <point x="629" y="915"/>
      <point x="657" y="899" type="curve"/>
      <point x="657" y="721" type="line"/>
      <point x="682" y="705"/>
      <point x="715" y="686"/>
      <point x="760" y="686" type="curve" smooth="yes"/>
      <point x="821" y="686"/>
      <point x="881" y="727"/>
      <point x="881" y="807" type="curve" smooth="yes"/>
      <point x="881" y="940"/>
      <point x="743" y="1012"/>
      <point x="563" y="1012" type="curve" smooth="yes"/>
      <point x="301" y="1012"/>
      <point x="70" y="831"/>
      <point x="70" y="487" type="curve" smooth="yes"/>
      <point x="70" y="193"/>
      <point x="252" y="-25"/>
      <point x="539" y="-25" type="curve" smooth="yes"/>
      <point x="678" y="-25"/>
      <point x="793" y="27"/>
    </contour>
  </outline>
</glyph>
<glyph name="LtnSmE" format="2">
  <advance width="1004"/>
  <unicode hex="0065"/>
  <anchor x="502" y="0" name="H"/>
  <anchor x="535" y="-100" name="L"/>
  <anchor x="808" y="0" name="O"/>
  <anchor x="1004" y="1000" name="R"/>
  <anchor x="535" y="1100" name="U"/>
  <outline>
    <contour>
      <point x="545" y="-25" type="curve" smooth="yes"/>
      <point x="684" y="-25"/>
      <point x="819" y="31"/>
      <point x="934" y="102" type="curve"/>
      <point x="934" y="227" type="line"/>
      <point x="842" y="166"/>
      <point x="727" y="100"/>
      <point x="610" y="100" type="curve" smooth="yes"/>
      <point x="346" y="100"/>
      <point x="268" y="326"/>
      <point x="268" y="535" type="curve"/>
      <point x="932" y="535" type="line"/>
      <point x="934" y="553"/>
      <point x="934" y="578"/>
      <point x="934" y="592" type="curve" smooth="yes"/>
      <point x="934" y="836"/>
      <point x="805" y="1012"/>
      <point x="551" y="1012" type="curve" smooth="yes"/>
      <point x="272" y="1012"/>
      <point x="70" y="803"/>
      <point x="70" y="483" type="curve" smooth="yes"/>
      <point x="70" y="141"/>
      <point x="297" y="-25"/>
    </contour>
    <contour>
      <point x="279" y="627" type="line"/>
      <point x="289" y="803"/>
      <point x="395" y="911"/>
      <point x="530" y="911" type="curve" smooth="yes"/>
      <point x="666" y="911"/>
      <point x="729" y="807"/>
      <point x="729" y="672" type="curve" smooth="yes"/>
      <point x="729" y="627" type="line"/>
    </contour>
  </outline>
</glyph>
<glyph name="LtnSmG" format="2">
  <advance width="1075"/>
  <unicode hex="0067"/>
  <anchor x="505" y="-432" name="H"/>
  <anchor x="505" y="-500" name="L"/>
  <anchor x="1075" y="1000" name="R"/>
  <anchor x="505" y="1100" name="U"/>
  <outline>
    <contour>
      <point x="1040" y="850" type="line"/>
      <point x="1040" y="950" type="line"/>
      <point x="764" y="950" type="line"/>
      <point x="711" y="975"/>
      <point x="623" y="1012"/>
      <point x="526" y="1012" type="curve" smooth="yes"/>
      <point x="281" y="1012"/>
      <point x="115" y="879"/>
      <point x="115" y="664" type="curve" smooth="yes"/>
      <point x="115" y="498"/>
      <point x="233" y="387"/>
      <point x="369" y="356" type="curve"/>
      <point x="297" y="283"/>
      <point x="266" y="217"/>
      <point x="266" y="164" type="curve" smooth="yes"/>
      <point x="266" y="119"/>
      <point x="272" y="113"/>
      <point x="287" y="70" type="curve"/>
      <point x="139" y="43"/>
      <point x="70" y="-59"/>
      <point x="70" y="-178" type="curve" smooth="yes"/>
      <point x="70" y="-344"/>
      <point x="211" y="-469"/>
      <point x="455" y="-469" type="curve" smooth="yes"/>
      <point x="752" y="-469"/>
      <point x="987" y="-276"/>
      <point x="987" y="-82" type="curve" smooth="yes"/>
      <point x="987" y="162"/>
      <point x="616" y="186"/>
      <point x="432" y="205" type="curve"/>
      <point x="430" y="211"/>
      <point x="416" y="289"/>
      <point x="449" y="342" type="curve"/>
      <point x="678" y="326"/>
      <point x="891" y="449"/>
      <point x="891" y="666" type="curve" smooth="yes"/>
      <point x="891" y="745"/>
      <point x="866" y="801"/>
      <point x="836" y="850" type="curve"/>
    </contour>
    <contour>
      <point x="696" y="678" type="curve" smooth="yes"/>
      <point x="696" y="539"/>
      <point x="629" y="426"/>
      <point x="506" y="426" type="curve" smooth="yes"/>
      <point x="377" y="426"/>
      <point x="311" y="539"/>
      <point x="311" y="676" type="curve" smooth="yes"/>
      <point x="311" y="834"/>
      <point x="391" y="928"/>
      <point x="506" y="928" type="curve" smooth="yes"/>
      <point x="629" y="928"/>
      <point x="696" y="807"/>
    </contour>
    <contour>
      <point x="811" y="-137" type="curve" smooth="yes"/>
      <point x="811" y="-236"/>
      <point x="717" y="-375"/>
      <point x="522" y="-375" type="curve" smooth="yes"/>
      <point x="338" y="-375"/>
      <point x="254" y="-236"/>
      <point x="254" y="-137" type="curve" smooth="yes"/>
      <point x="254" y="-70"/>
      <point x="291" y="12"/>
      <point x="410" y="55" type="curve"/>
      <point x="532" y="31"/>
      <point x="811" y="33"/>
    </contour>
  </outline>
</glyph>
<glyph name="LtnSmI" format="1">
  <advance width="621"/>
  <unicode hex="0069"/>
  <outline>
    <contour>
      <point x="446" y="1325" type="curve" smooth="yes"/>
      <point x="446" y="1395"/>
      <point x="391" y="1450"/>
      <point x="322" y="1450" type="curve" smooth="yes"/>
      <point x="252" y="1450"/>
      <point x="195" y="1395"/>
      <point x="195" y="1325" type="curve" smooth="yes"/>
      <point x="195" y="1255"/>
      <point x="252" y="1198"/>
      <point x="322" y="1198" type="curve" smooth="yes"/>
      <point x="391" y="1198"/>
      <point x="446" y="1255"/>
    </contour>
    <contour>
      <point x="551" y="0" type="line"/>
      <point x="551" y="80" type="line"/>
      <point x="446" y="86" type="line" smooth="yes"/>
      <point x="422" y="88"/>
      <point x="403" y="106"/>
      <point x="403" y="131" type="curve" smooth="yes"/>
      <point x="403" y="1012" type="line"/>
      <point x="322" y="1012" type="line"/>
      <point x="72" y="934" type="line"/>
      <point x="72" y="862" type="line"/>
      <point x="213" y="862" type="line"/>
      <point x="213" y="131" type="line" smooth="yes"/>
      <point x="213" y="106"/>
      <point x="195" y="88"/>
      <point x="170" y="86" type="curve" smooth="yes"/>
      <point x="70" y="80" type="line"/>
      <point x="70" y="0" type="line"/>
    </contour>
    <contour>
      <point x="310" y="0" type="move" name="H"/>
    </contour>
    <contour>
      <point x="316" y="-100" type="move" name="L"/>
    </contour>
    <contour>
      <point x="466" y="0" type="move" name="O"/>
    </contour>
    <contour>
      <point x="621" y="1000" type="move" name="R"/>
    </contour>
    <contour>
      <point x="310" y="1100" type="move" name="U"/>
    </contour>
  </outline>
</glyph>
<glyph name="LtnSmK" format="1">
  <advance width="1094"/>
  <unicode hex="006B"/>
  <outline>
    <contour>
      <point x="1073" y="0" type="line"/>
      <point x="1073" y="80" type="line"/>
      <point x="965" y="92" type="line"/>
      <point x="612" y="604" type="line"/>
      <point x="883" y="893" type="line"/>
      <point x="1014" y="907" type="line"/>
      <point x="1014" y="987" type="line"/>
      <point x="616" y="987" type="line"/>
      <point x="616" y="907" type="line"/>
      <point x="700" y="899" type="line" smooth="yes"/>
      <point x="719" y="897"/>
      <point x="727" y="877"/>
      <point x="717" y="864" type="curve" smooth="yes"/>
      <point x="416" y="524" type="line"/>
      <point x="375" y="524" type="line"/>
      <point x="375" y="1509" type="line"/>
      <point x="291" y="1509" type="line"/>
      <point x="29" y="1430" type="line"/>
      <point x="29" y="1362" type="line"/>
      <point x="184" y="1362" type="line"/>
      <point x="184" y="131" type="line" smooth="yes"/>
      <point x="184" y="106"/>
      <point x="166" y="88"/>
      <point x="141" y="86" type="curve" smooth="yes"/>
      <point x="41" y="80" type="line"/>
      <point x="41" y="0" type="line"/>
      <point x="506" y="0" type="line"/>
      <point x="506" y="80" type="line"/>
      <point x="418" y="86" type="line" smooth="yes"/>
      <point x="393" y="88"/>
      <point x="375" y="106"/>
      <point x="375" y="131" type="curve" smooth="yes"/>
      <point x="375" y="465" type="line"/>
      <point x="489" y="465" type="line"/>
      <point x="745" y="80" type="line"/>
      <point x="745" y="0" type="line"/>
    </contour>
    <contour>
      <point x="551" y="1540" type="move" name="U"/>
    </contour>
    <contour>
      <point x="551" y="-100" type="move" name="L"/>
    </contour>
    <contour>
      <point x="1094" y="1000" type="move" name="R"/>
    </contour>
    <contour>
      <point x="280" y="0" type="move" name="H"/>
    </contour>
  </outline>
</glyph>
<glyph name="LtnSmM" format="2">
  <advance width="1741"/>
  <unicode hex="006D"/>
  <anchor x="1460" y="0" name="H"/>
  <anchor x="868" y="-100" name="L"/>
  <anchor x="1010" y="0" name="O"/>
  <anchor x="868" y="1100" name="U"/>
  <outline>
    <contour>
      <point x="1696" y="0" type="line"/>
      <point x="1696" y="80" type="line"/>
      <point x="1597" y="86" type="line" smooth="yes"/>
      <point x="1573" y="87"/>
      <point x="1554" y="106"/>
      <point x="1554" y="131" type="curve" smooth="yes"/>
      <point x="1554" y="698" type="line" smooth="yes"/>
      <point x="1554" y="838"/>
      <point x="1505" y="1012"/>
      <point x="1290" y="1012" type="curve" smooth="yes"/>
      <point x="1182" y="1012"/>
      <point x="1016" y="922"/>
      <point x="934" y="870" type="curve"/>
      <point x="899" y="938"/>
      <point x="827" y="1012"/>
      <point x="709" y="1012" type="curve" smooth="yes"/>
      <point x="602" y="1012"/>
      <point x="467" y="940"/>
      <point x="375" y="885" type="curve"/>
      <point x="375" y="987" type="line"/>
      <point x="291" y="987" type="line"/>
      <point x="43" y="909" type="line"/>
      <point x="43" y="842" type="line"/>
      <point x="184" y="842" type="line"/>
      <point x="184" y="131" type="line" smooth="yes"/>
      <point x="184" y="106"/>
      <point x="166" y="88"/>
      <point x="141" y="86" type="curve" smooth="yes"/>
      <point x="41" y="80" type="line"/>
      <point x="41" y="0" type="line"/>
      <point x="504" y="0" type="line"/>
      <point x="504" y="80" type="line"/>
      <point x="418" y="86" type="line" smooth="yes"/>
      <point x="393" y="88"/>
      <point x="375" y="106"/>
      <point x="375" y="131" type="curve" smooth="yes"/>
      <point x="375" y="803" type="line"/>
      <point x="422" y="829"/>
      <point x="516" y="862"/>
      <point x="594" y="862" type="curve" smooth="yes"/>
      <point x="725" y="862"/>
      <point x="774" y="782"/>
      <point x="774" y="666" type="curve" smooth="yes"/>
      <point x="774" y="131" type="line" smooth="yes"/>
      <point x="774" y="106"/>
      <point x="756" y="88"/>
      <point x="731" y="86" type="curve" smooth="yes"/>
      <point x="645" y="80" type="line"/>
      <point x="645" y="0" type="line"/>
      <point x="1094" y="0" type="line"/>
      <point x="1094" y="80" type="line"/>
      <point x="1008" y="86" type="line" smooth="yes"/>
      <point x="983" y="88"/>
      <point x="965" y="106"/>
      <point x="965" y="131" type="curve" smooth="yes"/>
      <point x="965" y="805" type="line"/>
      <point x="1028" y="838"/>
      <point x="1116" y="862"/>
      <point x="1184" y="862" type="curve" smooth="yes"/>
      <point x="1321" y="862"/>
      <point x="1366" y="780"/>
      <point x="1366" y="653" type="curve" smooth="yes"/>
      <point x="1366" y="131" type="line" smooth="yes"/>
      <point x="1366" y="106"/>
      <point x="1348" y="88"/>
      <point x="1323" y="86" type="curve" smooth="yes"/>
      <point x="1237" y="80" type="line"/>
      <point x="1237" y="0" type="line"/>
    </contour>
  </outline>
</glyph>
<glyph name="LtnSmP" format="1">
  <advance width="1145"/>
  <unicode hex="0070"/>
  <outline>
    <contour>
      <point x="1075" y="508" type="curve" smooth="yes"/>
      <point x="1075" y="813"/>
      <point x="895" y="1012"/>
      <point x="684" y="1012" type="curve" smooth="yes"/>
      <point x="524" y="1012"/>
      <point x="375" y="885"/>
      <point x="375" y="885" type="curve"/>
      <point x="375" y="987" type="line"/>
      <point x="295" y="987" type="line"/>
      <point x="43" y="909" type="line"/>
      <point x="43" y="842" type="line"/>
      <point x="184" y="842" type="line"/>
      <point x="184" y="-311" type="line" smooth="yes"/>
      <point x="184" y="-336"/>
      <point x="166" y="-352"/>
      <point x="141" y="-354" type="curve" smooth="yes"/>
      <point x="43" y="-367" type="line"/>
      <point x="43" y="-446" type="line"/>
      <point x="541" y="-446" type="line"/>
      <point x="541" y="-367" type="line"/>
      <point x="420" y="-354" type="line" smooth="yes"/>
      <point x="395" y="-352"/>
      <point x="375" y="-336"/>
      <point x="375" y="-311" type="curve" smooth="yes"/>
      <point x="375" y="-6" type="line"/>
      <point x="375" y="-6"/>
      <point x="483" y="-25"/>
      <point x="557" y="-25" type="curve" smooth="yes"/>
      <point x="881" y="-25"/>
      <point x="1075" y="186"/>
    </contour>
    <contour>
      <point x="870" y="479" type="curve" smooth="yes"/>
      <point x="870" y="266"/>
      <point x="766" y="70"/>
      <point x="541" y="70" type="curve" smooth="yes"/>
      <point x="457" y="70"/>
      <point x="375" y="102"/>
      <point x="375" y="102" type="curve"/>
      <point x="375" y="807" type="line"/>
      <point x="375" y="807"/>
      <point x="481" y="868"/>
      <point x="584" y="868" type="curve" smooth="yes"/>
      <point x="772" y="868"/>
      <point x="870" y="690"/>
    </contour>
    <contour>
      <point x="279" y="-435" type="move" name="H"/>
    </contour>
    <contour>
      <point x="559" y="-500" type="move" name="L"/>
    </contour>
    <contour>
      <point x="1145" y="1000" type="move" name="R"/>
    </contour>
    <contour>
      <point x="559" y="1100" type="move" name="U"/>
    </contour>
  </outline>
</glyph>
<glyph name="LtnSmU" format="2">
  <advance width="1165"/>
  <unicode hex="0075"/>
  <anchor x="580" y="0" name="H"/>
  <anchor x="580" y="-100" name="L"/>
  <anchor x="1060" y="0" name="O"/>
  <anchor x="1160" y="1000" name="R"/>
  <anchor x="580" y="1100" name="U"/>
  <outline>
    <contour>
      <point x="1120" y="0" type="line"/>
      <point x="1120" y="80" type="line"/>
      <point x="1030" y="86" type="line" smooth="yes"/>
      <point x="1006" y="88"/>
      <point x="985" y="106"/>
      <point x="985" y="131" type="curve" smooth="yes"/>
      <point x="985" y="1012" type="line"/>
      <point x="901" y="1012" type="line"/>
      <point x="651" y="932" type="line"/>
      <point x="651" y="862" type="line"/>
      <point x="795" y="862" type="line"/>
      <point x="795" y="176" type="line"/>
      <point x="746" y="152"/>
      <point x="657" y="115"/>
      <point x="573" y="115" type="curve" smooth="yes"/>
      <point x="428" y="115"/>
      <point x="375" y="201"/>
      <point x="375" y="346" type="curve" smooth="yes"/>
      <point x="375" y="1012" type="line"/>
      <point x="293" y="1012" type="line"/>
      <point x="41" y="932" type="line"/>
      <point x="41" y="862" type="line"/>
      <point x="184" y="862" type="line"/>
      <point x="184" y="307" type="line" smooth="yes"/>
      <point x="184" y="76"/>
      <point x="291" y="-25"/>
      <point x="467" y="-25" type="curve" smooth="yes"/>
      <point x="588" y="-25"/>
      <point x="725" y="63"/>
      <point x="795" y="117" type="curve"/>
      <point x="795" y="0" type="line"/>
    </contour>
  </outline>
</glyph>
<glyph name="LtnSmW" format="1">
  <advance width="1604"/>
  <unicode hex="0077"/>
  <outline>
    <contour>
      <point x="1583" y="907" type="line"/>
      <point x="1583" y="987" type="line"/>
      <point x="1225" y="987" type="line"/>
      <point x="1225" y="907" type="line"/>
      <point x="1319" y="901" type="line" smooth="yes"/>
      <point x="1341" y="899"/>
      <point x="1354" y="877"/>
      <point x="1348" y="856" type="curve" smooth="yes"/>
      <point x="1159" y="219" type="line"/>
      <point x="922" y="987" type="line"/>
      <point x="776" y="987" type="line"/>
      <point x="512" y="219" type="line"/>
      <point x="342" y="856" type="line" smooth="yes"/>
      <point x="336" y="879"/>
      <point x="350" y="899"/>
      <point x="373" y="901" type="curve" smooth="yes"/>
      <point x="469" y="907" type="line"/>
      <point x="469" y="987" type="line"/>
      <point x="20" y="987" type="line"/>
      <point x="20" y="907" type="line"/>
      <point x="133" y="895" type="line"/>
      <point x="395" y="0" type="line"/>
      <point x="541" y="0" type="line"/>
      <point x="811" y="766" type="line"/>
      <point x="1053" y="0" type="line"/>
      <point x="1198" y="0" type="line"/>
      <point x="1479" y="895" type="line"/>
    </contour>
    <contour>
      <point x="830" y="1100" type="move" name="U"/>
    </contour>
    <contour>
      <point x="801" y="-100" type="move" name="L"/>
    </contour>
  </outline>
</glyph>
<glyph name="NoBreakSpace" format="1">
  <advance width="600"/>
  <unicode hex="00A0"/>
  <outline>
    <contour>
      <point x="300" y="0" type="move" name="H"/>
    </contour>
    <contour>
      <point x="300" y="-100" type="move" name="L"/>
    </contour>
    <contour>
      <point x="350" y="0" type="move" name="O"/>
    </contour>
    <contour>
      <point x="600" y="1000" type="move" name="R"/>
    </contour>
    <contour>
      <point x="300" y="1500" type="move" name="U"/>
    </contour>
  </outline>
</glyph>
<glyph name="CentSgn" format="2">
  <advance width="1153"/>
  <unicode hex="00A2"/>
  <outline>
    <contour>
      <point x="604" y="-203" type="line"/>
      <point x="702" y="-203" type="line"/>
      <point x="702" y="0" type="line"/>
      <point x="895" y="0"/>
      <point x="991" y="41"/>
      <point x="997" y="47" type="curve"/>
      <point x="997" y="356" type="line"/>
      <point x="897" y="356" type="line"/>
      <point x="870" y="160" type="line"/>
      <point x="866" y="150"/>
      <point x="858" y="133"/>
      <point x="846" y="127" type="curve"/>
      <point x="846" y="127"/>
      <point x="788" y="100"/>
      <point x="702" y="98" type="curve"/>
      <point x="702" y="936" type="line"/>
      <point x="786" y="934"/>
      <point x="817" y="922"/>
      <point x="846" y="905" type="curve"/>
      <point x="862" y="899"/>
      <point x="866" y="879"/>
      <point x="870" y="862" type="curve"/>
      <point x="899" y="684" type="line"/>
      <point x="997" y="684" type="line"/>
      <point x="997" y="985" type="line"/>
      <point x="891" y="1020"/>
      <point x="805" y="1036"/>
      <point x="702" y="1036" type="curve"/>
      <point x="702" y="1237" type="line"/>
      <point x="604" y="1237" type="line"/>
      <point x="604" y="1028" type="line"/>
      <point x="336" y="991"/>
      <point x="156" y="788"/>
      <point x="156" y="516" type="curve" smooth="yes"/>
      <point x="156" y="238"/>
      <point x="326" y="35"/>
      <point x="604" y="4" type="curve"/>
    </contour>
    <contour>
      <point x="604" y="104" type="line"/>
      <point x="467" y="137"/>
      <point x="352" y="279"/>
      <point x="352" y="522" type="curve" smooth="yes"/>
      <point x="352" y="780"/>
      <point x="498" y="905"/>
      <point x="604" y="930" type="curve"/>
    </contour>
  </outline>
</glyph>
<glyph name="PoundSgn" format="1">
  <advance width="1153"/>
  <unicode hex="00A3"/>
  <outline>
    <contour>
      <point x="1065" y="1292" type="curve" smooth="yes"/>
      <point x="1065" y="1450"/>
      <point x="868" y="1509"/>
      <point x="741" y="1509" type="curve" smooth="yes"/>
      <point x="442" y="1509"/>
      <point x="305" y="1282"/>
      <point x="305" y="999" type="curve" smooth="yes"/>
      <point x="305" y="938"/>
      <point x="307" y="774"/>
      <point x="307" y="774" type="curve"/>
      <point x="166" y="774" type="line"/>
      <point x="166" y="674" type="line"/>
      <point x="309" y="674" type="line"/>
      <point x="309" y="674"/>
      <point x="315" y="532"/>
      <point x="311" y="524" type="curve"/>
      <point x="313" y="305"/>
      <point x="256" y="168"/>
      <point x="88" y="125" type="curve"/>
      <point x="88" y="0" type="line"/>
      <point x="1061" y="0" type="line"/>
      <point x="1061" y="168" type="line"/>
      <point x="455" y="168" type="line" smooth="yes"/>
      <point x="414" y="168"/>
      <point x="285" y="156"/>
      <point x="285" y="156" type="curve"/>
      <point x="465" y="272"/>
      <point x="502" y="412"/>
      <point x="502" y="674" type="curve"/>
      <point x="883" y="674" type="line"/>
      <point x="883" y="774" type="line"/>
      <point x="502" y="774" type="line"/>
      <point x="502" y="774"/>
      <point x="498" y="911"/>
      <point x="498" y="1001" type="curve" smooth="yes"/>
      <point x="498" y="1188"/>
      <point x="535" y="1407"/>
      <point x="772" y="1407" type="curve" smooth="yes"/>
      <point x="813" y="1407"/>
      <point x="864" y="1391"/>
      <point x="864" y="1391" type="curve"/>
      <point x="864" y="1186" type="line"/>
      <point x="864" y="1186"/>
      <point x="909" y="1176"/>
      <point x="938" y="1176" type="curve" smooth="yes"/>
      <point x="1004" y="1176"/>
      <point x="1065" y="1225"/>
    </contour>
  </outline>
</glyph>
<glyph name="Diaer" format="1">
  <advance width="647"/>
  <unicode hex="00A8"/>
  <outline>
    <component base="CombDiaer" xOffset="880"/>
    <contour>
      <point x="323" y="1500" type="move" name="U"/>
    </contour>
  </outline>
</glyph>
<glyph name="CopyrightSgn" format="2">
  <advance width="1715"/>
  <unicode hex="00A9"/>
  <outline>
    <contour>
      <point x="1645" y="719" type="curve" smooth="yes"/>
      <point x="1645" y="1147"/>
      <point x="1298" y="1509"/>
      <point x="858" y="1509" type="curve" smooth="yes"/>
      <point x="422" y="1509"/>
      <point x="70" y="1153"/>
      <point x="70" y="717" type="curve" smooth="yes"/>
      <point x="70" y="283"/>
      <point x="424" y="-74"/>
      <point x="856" y="-74" type="curve" smooth="yes"/>
      <point x="1292" y="-74"/>
      <point x="1645" y="283"/>
    </contour>
    <contour>
      <point x="1556" y="717" type="curve" smooth="yes"/>
      <point x="1556" y="330"/>
      <point x="1241" y="12"/>
      <point x="856" y="12" type="curve" smooth="yes"/>
      <point x="471" y="12"/>
      <point x="158" y="330"/>
      <point x="158" y="717" type="curve" smooth="yes"/>
      <point x="158" y="1106"/>
      <point x="471" y="1423"/>
      <point x="858" y="1423" type="curve" smooth="yes"/>
      <point x="1245" y="1423"/>
      <point x="1556" y="1104"/>
    </contour>
    <contour>
      <point x="1180" y="283" type="curve"/>
      <point x="1180" y="541" type="line"/>
      <point x="1090" y="541" type="line"/>
      <point x="1061" y="367" type="line"/>
      <point x="1026" y="350"/>
      <point x="958" y="328"/>
      <point x="891" y="328" type="curve" smooth="yes"/>
      <point x="731" y="328"/>
      <point x="575" y="471"/>
      <point x="575" y="721" type="curve" smooth="yes"/>
      <point x="575" y="963"/>
      <point x="737" y="1102"/>
      <point x="911" y="1102" type="curve" smooth="yes"/>
      <point x="969" y="1102"/>
      <point x="1026" y="1079"/>
      <point x="1057" y="1059" type="curve"/>
      <point x="1087" y="903" type="line"/>
      <point x="1180" y="903" type="line"/>
      <point x="1180" y="1147" type="line"/>
      <point x="1090" y="1174"/>
      <point x="997" y="1198"/>
      <point x="891" y="1198" type="curve" smooth="yes"/>
      <point x="586" y="1198"/>
      <point x="387" y="999"/>
      <point x="387" y="717" type="curve" smooth="yes"/>
      <point x="387" y="459"/>
      <point x="567" y="233"/>
      <point x="889" y="233" type="curve" smooth="yes"/>
      <point x="1040" y="233"/>
      <point x="1174" y="280"/>
    </contour>
  </outline>
</glyph>
<glyph name="LftPtngDblAngQuotMrk" format="2">
  <advance width="905"/>
  <unicode hex="00AB"/>
  <outline>
    <contour>
      <point x="385" y="0" type="line"/>
      <point x="485" y="0" type="line"/>
      <point x="230" y="493" type="line"/>
      <point x="485" y="987" type="line"/>
      <point x="385" y="987" type="line"/>
      <point x="55" y="544" type="line"/>
      <point x="55" y="441" type="line"/>
    </contour>
    <contour>
      <point x="765" y="0" type="line"/>
      <point x="865" y="0" type="line"/>
      <point x="610" y="493" type="line"/>
      <point x="865" y="987" type="line"/>
      <point x="765" y="987" type="line"/>
      <point x="435" y="544" type="line"/>
      <point x="435" y="441" type="line"/>
    </contour>
  </outline>
</glyph>
<glyph name="Hyphen_Soft" format="1">
  <advance width="655"/>
  <unicode hex="00AD"/>
  <outline>
    <component base="HyphenMinus"/>
    <contour>
      <point x="327" y="1100" type="move" name="U"/>
    </contour>
  </outline>
</glyph>
<glyph name="SupTwo" format="2">
  <advance width="750"/>
  <unicode hex="00B2"/>
  <anchor x="374" y="725" name="L"/>
  <anchor x="374" y="1650" name="U"/>
  <outline>
    <contour>
      <point x="686" y="784" type="line"/>
      <point x="686" y="993" type="line"/>
      <point x="621" y="993" type="line"/>
      <point x="598" y="889" type="line"/>
      <point x="203" y="889" type="line"/>
      <point x="442" y="1063"/>
      <point x="670" y="1214"/>
      <point x="670" y="1389" type="curve" smooth="yes"/>
      <point x="670" y="1532"/>
      <point x="545" y="1622"/>
      <point x="373" y="1622" type="curve" smooth="yes"/>
      <point x="217" y="1622"/>
      <point x="80" y="1550"/>
      <point x="80" y="1446" type="curve" smooth="yes"/>
      <point x="80" y="1397"/>
      <point x="119" y="1372"/>
      <point x="160" y="1372" type="curve" smooth="yes"/>
      <point x="201" y="1372"/>
      <point x="225" y="1395"/>
      <point x="225" y="1395" type="curve"/>
      <point x="225" y="1530" type="line"/>
      <point x="231" y="1532"/>
      <point x="274" y="1556"/>
      <point x="336" y="1556" type="curve" smooth="yes"/>
      <point x="438" y="1556"/>
      <point x="526" y="1495"/>
      <point x="526" y="1376" type="curve" smooth="yes"/>
      <point x="526" y="1204"/>
      <point x="334" y="1073"/>
      <point x="63" y="866" type="curve"/>
      <point x="63" y="784" type="line"/>
    </contour>
  </outline>
</glyph>
<glyph name="AcuteAccent" format="1">
  <advance width="717"/>
  <unicode hex="00B4"/>
  <outline>
    <component base="CombAcute" xOffset="978"/>
    <contour>
      <point x="421" y="1500" type="move" name="U"/>
    </contour>
  </outline>
</glyph>
<glyph name="Cedilla" format="1">
  <advance width="471"/>
  <unicode hex="00B8"/>
  <outline>
    <component base="CombCedilla" xOffset="792"/>
    <contour>
      <point x="235" y="-500" type="move" name="L"/>
    </contour>
  </outline>
</glyph>
<glyph name="SupOne" format="1">
  <advance width="750"/>
  <unicode hex="00B9"/>
  <outline>
    <contour>
      <point x="594" y="784" type="line"/>
      <point x="594" y="840" type="line"/>
      <point x="469" y="844" type="line" smooth="yes"/>
      <point x="453" y="844"/>
      <point x="438" y="856"/>
      <point x="438" y="870" type="curve" smooth="yes"/>
      <point x="438" y="1622" type="line"/>
      <point x="389" y="1622" type="line"/>
      <point x="100" y="1540" type="line"/>
      <point x="100" y="1487" type="line"/>
      <point x="307" y="1520" type="line"/>
      <point x="307" y="870" type="line" smooth="yes"/>
      <point x="307" y="856"/>
      <point x="295" y="844"/>
      <point x="279" y="844" type="curve" smooth="yes"/>
      <point x="143" y="840" type="line"/>
      <point x="143" y="784" type="line"/>
    </contour>
    <contour>
      <point x="347" y="1650" type="move" name="U"/>
    </contour>
    <contour>
      <point x="347" y="725" type="move" name="L"/>
    </contour>
  </outline>
</glyph>
<glyph name="InvQstnMrk" format="2">
  <advance width="995"/>
  <unicode hex="00BF"/>
  <outline>
    <contour>
      <point x="711" y="885" type="curve" smooth="yes"/>
      <point x="711" y="955"/>
      <point x="655" y="1012"/>
      <point x="586" y="1012" type="curve" smooth="yes"/>
      <point x="516" y="1012"/>
      <point x="459" y="957"/>
      <point x="459" y="887" type="curve" smooth="yes"/>
      <point x="459" y="817"/>
      <point x="514" y="760"/>
      <point x="586" y="760" type="curve" smooth="yes"/>
      <point x="655" y="760"/>
      <point x="711" y="815"/>
    </contour>
    <contour>
      <point x="893" y="-219" type="curve" smooth="yes"/>
      <point x="893" y="-141"/>
      <point x="834" y="-106"/>
      <point x="760" y="-106" type="curve" smooth="yes"/>
      <point x="756" y="-106"/>
      <point x="725" y="-110"/>
      <point x="725" y="-110" type="curve"/>
      <point x="641" y="-317" type="line"/>
      <point x="455" y="-317"/>
      <point x="348" y="-227"/>
      <point x="348" y="-37" type="curve" smooth="yes"/>
      <point x="348" y="166"/>
      <point x="516" y="281"/>
      <point x="645" y="324" type="curve"/>
      <point x="645" y="621" type="line"/>
      <point x="530" y="621" type="line"/>
      <point x="530" y="391" type="line"/>
      <point x="373" y="322"/>
      <point x="141" y="207"/>
      <point x="141" y="-53" type="curve" smooth="yes"/>
      <point x="141" y="-276"/>
      <point x="326" y="-420"/>
      <point x="567" y="-420" type="curve" smooth="yes"/>
      <point x="791" y="-420"/>
      <point x="893" y="-315"/>
    </contour>
  </outline>
</glyph>
<glyph name="LtnCapADiaer" format="1">
  <advance width="1380"/>
  <unicode hex="00C4"/>
  <outline>
    <component base="LtnCapA"/>
    <component base="CombDiaer" xOffset="1240" yOffset="400"/>
    <contour>
      <point x="683" y="0" type="move" name="H"/>
    </contour>
    <contour>
      <point x="683" y="1900" type="move" name="U"/>
    </contour>
    <contour>
      <point x="683" y="-100" type="move" name="L"/>
    </contour>
    <contour>
      <point x="1267" y="0" type="move" name="O"/>
    </contour>
  </outline>
</glyph>
<glyph name="LtnCapCCedilla" format="1">
  <advance width="1284"/>
  <unicode hex="00C7"/>
  <outline>
    <component base="LtnCapC"/>
    <component base="CombCedilla" xOffset="1287"/>
    <contour>
      <point x="730" y="-600" type="move" name="L"/>
    </contour>
    <contour>
      <point x="750" y="1500" type="move" name="U"/>
    </contour>
  </outline>
</glyph>
<glyph name="LtnCapEAcute" format="1">
  <advance width="1194"/>
  <unicode hex="00C9"/>
  <outline>
    <component base="LtnCapE"/>
    <component base="CombAcute" xOffset="1154" yOffset="400"/>
    <contour>
      <point x="597" y="0" type="move" name="H"/>
    </contour>
    <contour>
      <point x="1194" y="1200" type="move" name="R"/>
    </contour>
    <contour>
      <point x="597" y="1900" type="move" name="U"/>
    </contour>
    <contour>
      <point x="597" y="-100" type="move" name="L"/>
    </contour>
    <contour>
      <point x="980" y="0" type="move" name="O"/>
    </contour>
  </outline>
</glyph>
<glyph name="LtnCapIAcute" format="1">
  <advance width="676"/>
  <unicode hex="00CD"/>
  <outline>
    <component base="LtnCapI"/>
    <component base="CombAcute" xOffset="895" yOffset="400"/>
    <contour>
      <point x="338" y="0" type="move" name="H"/>
    </contour>
    <contour>
      <point x="338" y="-100" type="move" name="L"/>
    </contour>
    <contour>
      <point x="494" y="0" type="move" name="O"/>
    </contour>
    <contour>
      <point x="676" y="1200" type="move" name="R"/>
    </contour>
    <contour>
      <point x="338" y="1900" type="move" name="U"/>
    </contour>
  </outline>
</glyph>
<glyph name="LtnCapEth" format="1">
  <advance width="1425"/>
  <unicode hex="00D0"/>
  <outline>
    <contour>
      <point x="29" y="668" type="line"/>
      <point x="750" y="668" type="line"/>
      <point x="750" y="772" type="line"/>
      <point x="29" y="772" type="line"/>
    </contour>
    <component base="LtnCapD"/>
    <contour>
      <point x="690" y="1500" type="move" name="U"/>
    </contour>
    <contour>
      <point x="690" y="-100" type="move" name="L"/>
    </contour>
  </outline>
</glyph>
<glyph name="LtnCapOCircum" format="1">
  <advance width="1497"/>
  <unicode hex="00D4"/>
  <outline>
    <component base="LtnCapO"/>
    <component base="CombCircum" xOffset="1305" yOffset="400"/>
    <contour>
      <point x="748" y="0" type="move" name="H"/>
    </contour>
    <contour>
      <point x="748" y="-100" type="move" name="L"/>
    </contour>
    <contour>
      <point x="1005" y="0" type="move" name="O"/>
    </contour>
    <contour>
      <point x="1487" y="1350" type="move" name="R"/>
    </contour>
    <contour>
      <point x="748" y="1900" type="move" name="U"/>
    </contour>
  </outline>
</glyph>
<glyph name="LtnCapOTilde" format="1">
  <advance width="1497"/>
  <unicode hex="00D5"/>
  <outline>
    <component base="LtnCapO"/>
    <component base="SmTilde" xOffset="393" yOffset="400"/>
    <contour>
      <point x="748" y="0" type="move" name="H"/>
    </contour>
    <contour>
      <point x="1487" y="1350" type="move" name="R"/>
    </contour>
    <contour>
      <point x="748" y="1900" type="move" name="U"/>
    </contour>
    <contour>
      <point x="748" y="-100" type="move" name="L"/>
    </contour>
    <contour>
      <point x="1005" y="0" type="move" name="O"/>
    </contour>
  </outline>
</glyph>
<glyph name="LtnCapOStrk" format="1">
  <advance width="1497"/>
  <unicode hex="00D8"/>
  <outline>
    <contour>
      <point x="1417" y="686" type="curve" smooth="yes"/>
      <point x="1417" y="930"/>
      <point x="1319" y="1145"/>
      <point x="1149" y="1276" type="curve"/>
      <point x="1192" y="1348"/>
      <point x="1233" y="1415"/>
      <point x="1268" y="1475" type="curve"/>
      <point x="1171" y="1532" type="line"/>
      <point x="1055" y="1335" type="line"/>
      <point x="967" y="1380"/>
      <point x="862" y="1407"/>
      <point x="748" y="1407" type="curve" smooth="yes"/>
      <point x="340" y="1407"/>
      <point x="80" y="1087"/>
      <point x="80" y="688" type="curve" smooth="yes"/>
      <point x="80" y="449"/>
      <point x="172" y="242"/>
      <point x="328" y="113" type="curve"/>
      <point x="199" y="-104" type="line"/>
      <point x="293" y="-162" type="line"/>
      <point x="336" y="-92"/>
      <point x="377" y="-23"/>
      <point x="420" y="49" type="curve"/>
      <point x="514" y="-4"/>
      <point x="627" y="-33"/>
      <point x="750" y="-33" type="curve" smooth="yes"/>
      <point x="1151" y="-33"/>
      <point x="1417" y="289"/>
    </contour>
    <contour>
      <point x="1180" y="684" type="curve" smooth="yes"/>
      <point x="1180" y="360"/>
      <point x="1040" y="80"/>
      <point x="745" y="80" type="curve" smooth="yes"/>
      <point x="643" y="80"/>
      <point x="561" y="115"/>
      <point x="496" y="174" type="curve"/>
      <point x="698" y="516"/>
      <point x="899" y="852"/>
      <point x="1063" y="1128" type="curve"/>
      <point x="1141" y="1018"/>
      <point x="1180" y="860"/>
    </contour>
    <contour>
      <point x="981" y="1212" type="curve"/>
      <point x="420" y="266" type="line"/>
      <point x="350" y="377"/>
      <point x="315" y="526"/>
      <point x="315" y="688" type="curve" smooth="yes"/>
      <point x="315" y="1014"/>
      <point x="453" y="1290"/>
      <point x="750" y="1290" type="curve" smooth="yes"/>
      <point x="842" y="1290"/>
      <point x="920" y="1262"/>
    </contour>
    <contour>
      <point x="748" y="-100" type="move" name="L"/>
    </contour>
    <contour>
      <point x="748" y="1500" type="move" name="U"/>
    </contour>
  </outline>
</glyph>
<glyph name="LtnSmAAcute" format="1">
  <advance width="1042"/>
  <unicode hex="00E1"/>
  <outline>
    <component base="LtnSmA"/>
    <component base="CombAcute" xOffset="1067"/>
    <contour>
      <point x="510" y="0" type="move" name="H"/>
    </contour>
    <contour>
      <point x="1042" y="1000" type="move" name="R"/>
    </contour>
    <contour>
      <point x="510" y="1500" type="move" name="U"/>
    </contour>
    <contour>
      <point x="510" y="-100" type="move" name="L"/>
    </contour>
    <contour>
      <point x="904" y="0" type="move" name="O"/>
    </contour>
  </outline>
</glyph>
<glyph name="LtnSmATilde" format="1">
  <advance width="1042"/>
  <unicode hex="00E3"/>
  <outline>
    <component base="LtnSmA"/>
    <component base="SmTilde" xOffset="155"/>
    <contour>
      <point x="510" y="0" type="move" name="H"/>
    </contour>
    <contour>
      <point x="1042" y="1000" type="move" name="R"/>
    </contour>
    <contour>
      <point x="510" y="1500" type="move" name="U"/>
    </contour>
    <contour>
      <point x="510" y="-100" type="move" name="L"/>
    </contour>
    <contour>
      <point x="904" y="0" type="move" name="O"/>
    </contour>
  </outline>
</glyph>
<glyph name="LtnSmADiaer" format="1">
  <advance width="1042"/>
  <unicode hex="00E4"/>
  <outline>
    <component base="LtnSmA"/>
    <component base="CombDiaer" xOffset="1067"/>
    <contour>
      <point x="510" y="0" type="move" name="H"/>
    </contour>
    <contour>
      <point x="1042" y="1000" type="move" name="R"/>
    </contour>
    <contour>
      <point x="510" y="1500" type="move" name="U"/>
    </contour>
    <contour>
      <point x="510" y="-100" type="move" name="L"/>
    </contour>
    <contour>
      <point x="904" y="0" type="move" name="O"/>
    </contour>
  </outline>
</glyph>
<glyph name="LtnSmCCedilla" format="1">
  <advance width="954"/>
  <unicode hex="00E7"/>
  <outline>
    <component base="LtnSmC"/>
    <component base="CombCedilla" xOffset="1082"/>
    <contour>
      <point x="525" y="-600" type="move" name="L"/>
    </contour>
    <contour>
      <point x="954" y="1000" type="move" name="R"/>
    </contour>
    <contour>
      <point x="550" y="1100" type="move" name="U"/>
    </contour>
  </outline>
</glyph>
<glyph name="LtnSmEGrave" format="1">
  <advance width="1004"/>
  <unicode hex="00E8"/>
  <outline>
    <component base="LtnSmE"/>
    <component base="CombGrave" xOffset="1092"/>
    <contour>
      <point x="502" y="0" type="move" name="H"/>
    </contour>
    <contour>
      <point x="535" y="-100" type="move" name="L"/>
    </contour>
    <contour>
      <point x="808" y="0" type="move" name="O"/>
    </contour>
    <contour>
      <point x="1004" y="1000" type="move" name="R"/>
    </contour>
    <contour>
      <point x="535" y="1500" type="move" name="U"/>
    </contour>
  </outline>
</glyph>
<glyph name="LtnSmNTilde" format="1">
  <advance width="1161"/>
  <unicode hex="00F1"/>
  <outline>
    <component base="LtnSmN"/>
    <component base="SmTilde" xOffset="225"/>
    <contour>
      <point x="892" y="0" type="move" name="H"/>
    </contour>
    <contour>
      <point x="580" y="-100" type="move" name="L"/>
    </contour>
    <contour>
      <point x="580" y="1500" type="move" name="U"/>
    </contour>
  </outline>
</glyph>
<glyph name="LtnSmUGrave" format="1">
  <advance width="1165"/>
  <unicode hex="00F9"/>
  <outline>
    <component base="LtnSmU"/>
    <component base="CombGrave" xOffset="1137"/>
    <contour>
      <point x="580" y="0" type="move" name="H"/>
    </contour>
    <contour>
      <point x="580" y="-100" type="move" name="L"/>
    </contour>
    <contour>
      <point x="1060" y="0" type="move" name="O"/>
    </contour>
    <contour>
      <point x="1160" y="1000" type="move" name="R"/>
    </contour>
    <contour>
      <point x="580" y="1500" type="move" name="U"/>
    </contour>
  </outline>
</glyph>
<glyph name="LtnSmYAcute" format="1">
  <advance width="1085"/>
  <unicode hex="00FD"/>
  <outline>
    <component base="LtnSmY"/>
    <component base="CombAcute" xOffset="1118"/>
    <contour>
      <point x="1085" y="1000" type="move" name="R"/>
    </contour>
    <contour>
      <point x="561" y="1500" type="move" name="U"/>
    </contour>
    <contour>
      <point x="542" y="-500" type="move" name="L"/>
    </contour>
  </outline>
</glyph>
<glyph name="LtnCapAOgonek" format="1">
  <advance width="1380"/>
  <unicode hex="0104"/>
  <outline>
    <component base="LtnCapA"/>
    <component base="CombOgonek" xOffset="1598"/>
    <contour>
      <point x="683" y="0" type="move" name="H"/>
    </contour>
    <contour>
      <point x="983" y="-500" type="move" name="L"/>
    </contour>
    <contour>
      <point x="683" y="1500" type="move" name="U"/>
    </contour>
  </outline>
</glyph>
<glyph name="LtnSmAOgonek" format="1">
  <advance width="1042"/>
  <unicode hex="0105"/>
  <outline>
    <component base="LtnSmA"/>
    <component base="CombOgonek" xOffset="1235"/>
    <contour>
      <point x="510" y="0" type="move" name="H"/>
    </contour>
    <contour>
      <point x="620" y="-500" type="move" name="L"/>
    </contour>
    <contour>
      <point x="1042" y="1000" type="move" name="R"/>
    </contour>
    <contour>
      <point x="510" y="1100" type="move" name="U"/>
    </contour>
  </outline>
</glyph>
<glyph name="LtnCapCAcute" format="1">
  <advance width="1284"/>
  <unicode hex="0106"/>
  <outline>
    <component base="LtnCapC"/>
    <component base="CombAcute" xOffset="1307" yOffset="400"/>
    <contour>
      <point x="730" y="0" type="move" name="H"/>
    </contour>
    <contour>
      <point x="750" y="1900" type="move" name="U"/>
    </contour>
    <contour>
      <point x="750" y="-100" type="move" name="L"/>
    </contour>
  </outline>
</glyph>
<glyph name="LtnCapCCircum" format="1">
  <advance width="1284"/>
  <unicode hex="0108"/>
  <outline>
    <component base="LtnCapC"/>
    <component base="CombCircum" xOffset="1307" yOffset="400"/>
    <contour>
      <point x="730" y="0" type="move" name="H"/>
    </contour>
    <contour>
      <point x="750" y="-100" type="move" name="L"/>
    </contour>
    <contour>
      <point x="750" y="1900" type="move" name="U"/>
    </contour>
  </outline>
</glyph>
<glyph name="LtnSmCCircum" format="1">
  <advance width="954"/>
  <unicode hex="0109"/>
  <outline>
    <component base="LtnSmC"/>
    <component base="CombCircum" xOffset="1107"/>
    <contour>
      <point x="525" y="0" type="move" name="H"/>
    </contour>
    <contour>
      <point x="954" y="1000" type="move" name="R"/>
    </contour>
    <contour>
      <point x="550" y="1500" type="move" name="U"/>
    </contour>
    <contour>
      <point x="535" y="-100" type="move" name="L"/>
    </contour>
  </outline>
</glyph>
<glyph name="LtnSmCDotAbv" format="1">
  <advance width="954"/>
  <unicode hex="010B"/>
  <outline>
    <component base="LtnSmC"/>
    <component base="DotAbv" xOffset="436"/>
    <contour>
      <point x="525" y="0" type="move" name="H"/>
    </contour>
    <contour>
      <point x="954" y="1000" type="move" name="R"/>
    </contour>
    <contour>
      <point x="550" y="1500" type="move" name="U"/>
    </contour>
    <contour>
      <point x="535" y="-100" type="move" name="L"/>
    </contour>
  </outline>
</glyph>
<glyph name="LtnCapCCaron" format="1">
  <advance width="1284"/>
  <unicode hex="010C"/>
  <outline>
    <component base="LtnCapC"/>
    <component base="CombCaron" xOffset="1307" yOffset="400"/>
    <contour>
      <point x="730" y="0" type="move" name="H"/>
    </contour>
    <contour>
      <point x="750" y="-100" type="move" name="L"/>
    </contour>
    <contour>
      <point x="750" y="1900" type="move" name="U"/>
    </contour>
  </outline>
</glyph>
<glyph name="LtnSmCCaron" format="1">
  <advance width="954"/>
  <unicode hex="010D"/>
  <outline>
    <component base="LtnSmC"/>
    <component base="CombCaron" xOffset="1107"/>
    <contour>
      <point x="525" y="0" type="move" name="H"/>
    </contour>
    <contour>
      <point x="535" y="-100" type="move" name="L"/>
    </contour>
    <contour>
      <point x="954" y="1000" type="move" name="R"/>
    </contour>
    <contour>
      <point x="550" y="1500" type="move" name="U"/>
    </contour>
  </outline>
</glyph>
<glyph name="LtnCapDCaron" format="1">
  <advance width="1425"/>
  <unicode hex="010E"/>
  <outline>
    <component base="LtnCapD"/>
    <component base="CombCaron" xOffset="1247" yOffset="400"/>
    <contour>
      <point x="690" y="-100" type="move" name="L"/>
    </contour>
    <contour>
      <point x="690" y="1900" type="move" name="U"/>
    </contour>
  </outline>
</glyph>
<glyph name="LtnCapEMacron" format="1">
  <advance width="1194"/>
  <unicode hex="0112"/>
  <outline>
    <component base="LtnCapE"/>
    <component base="CombMacron" xOffset="1154" yOffset="400"/>
    <contour>
      <point x="597" y="0" type="move" name="H"/>
    </contour>
    <contour>
      <point x="1194" y="1200" type="move" name="R"/>
    </contour>
    <contour>
      <point x="597" y="1870" type="move" name="U"/>
    </contour>
    <contour>
      <point x="597" y="-100" type="move" name="L"/>
    </contour>
    <contour>
      <point x="980" y="0" type="move" name="O"/>
    </contour>
  </outline>
</glyph>
<glyph name="LtnSmEMacron" format="1">
  <advance width="1004"/>
  <unicode hex="0113"/>
  <outline>
    <component base="LtnSmE"/>
    <component base="CombMacron" xOffset="1092"/>
    <contour>
      <point x="502" y="0" type="move" name="H"/>
    </contour>
    <contour>
      <point x="1004" y="1000" type="move" name="R"/>
    </contour>
    <contour>
      <point x="535" y="1470" type="move" name="U"/>
    </contour>
    <contour>
      <point x="535" y="-100" type="move" name="L"/>
    </contour>
    <contour>
      <point x="808" y="0" type="move" name="O"/>
    </contour>
  </outline>
</glyph>
<glyph name="LtnCapEBreve" format="1">
  <advance width="1194"/>
  <unicode hex="0114"/>
  <outline>
    <component base="LtnCapE"/>
    <component base="CombBreve" xOffset="1154" yOffset="400"/>
    <contour>
      <point x="597" y="0" type="move" name="H"/>
    </contour>
    <contour>
      <point x="597" y="-100" type="move" name="L"/>
    </contour>
    <contour>
      <point x="980" y="0" type="move" name="O"/>
    </contour>
    <contour>
      <point x="1194" y="1200" type="move" name="R"/>
    </contour>
    <contour>
      <point x="597" y="1900" type="move" name="U"/>
    </contour>
  </outline>
</glyph>
<glyph name="LtnCapEOgonek" format="1">
  <advance width="1194"/>
  <unicode hex="0118"/>
  <outline>
    <component base="LtnCapE"/>
    <component base="CombOgonek" xOffset="1311"/>
    <contour>
      <point x="597" y="0" type="move" name="H"/>
    </contour>
    <contour>
      <point x="1194" y="1200" type="move" name="R"/>
    </contour>
    <contour>
      <point x="597" y="1500" type="move" name="U"/>
    </contour>
    <contour>
      <point x="696" y="-500" type="move" name="L"/>
    </contour>
  </outline>
</glyph>
<glyph name="LtnSmEOgonek" format="1">
  <advance width="1004"/>
  <unicode hex="0119"/>
  <outline>
    <contour>
      <point x="861" y="-334" type="curve"/>
      <point x="812" y="-252" type="line"/>
      <point x="812" y="-252"/>
      <point x="759" y="-289"/>
      <point x="728" y="-289" type="curve" smooth="yes"/>
      <point x="654" y="-289"/>
      <point x="609" y="-256"/>
      <point x="609" y="-188" type="curve" smooth="yes"/>
      <point x="609" y="-102"/>
      <point x="675" y="-27"/>
      <point x="793" y="29" type="curve"/>
      <point x="655" y="12" type="line"/>
      <point x="595" y="-20"/>
      <point x="480" y="-127"/>
      <point x="480" y="-242" type="curve" smooth="yes"/>
      <point x="480" y="-340"/>
      <point x="558" y="-391"/>
      <point x="685" y="-391" type="curve" smooth="yes"/>
      <point x="746" y="-391"/>
      <point x="861" y="-334"/>
    </contour>
    <component base="LtnSmE"/>
    <contour>
      <point x="525" y="1100" type="move" name="U"/>
    </contour>
    <contour>
      <point x="525" y="-500" type="move" name="L"/>
    </contour>
  </outline>
</glyph>
<glyph name="LtnSmGCircum" format="1">
  <advance width="1075"/>
  <unicode hex="011D"/>
  <outline>
    <component base="LtnSmG"/>
    <component base="CombCircum" xOffset="1062"/>
    <contour>
      <point x="505" y="-432" type="move" name="H"/>
    </contour>
    <contour>
      <point x="1075" y="1000" type="move" name="R"/>
    </contour>
    <contour>
      <point x="505" y="1500" type="move" name="U"/>
    </contour>
    <contour>
      <point x="505" y="-500" type="move" name="L"/>
    </contour>
  </outline>
</glyph>
<glyph name="LtnSmGBreve" format="1">
  <advance width="1075"/>
  <unicode hex="011F"/>
  <outline>
    <component base="LtnSmG"/>
    <component base="CombBreve" xOffset="1062"/>
    <contour>
      <point x="505" y="-432" type="move" name="H"/>
    </contour>
    <contour>
      <point x="505" y="-500" type="move" name="L"/>
    </contour>
    <contour>
      <point x="1075" y="1000" type="move" name="R"/>
    </contour>
    <contour>
      <point x="505" y="1500" type="move" name="U"/>
    </contour>
  </outline>
</glyph>
<glyph name="LtnSmGCedilla" format="1">
  <advance width="1075"/>
  <unicode hex="0123"/>
  <outline>
    <component base="LtnSmG"/>
    <component base="CombTrndCommaAbv" xOffset="1062"/>
    <contour>
      <point x="505" y="-432" type="move" name="H"/>
    </contour>
    <contour>
      <point x="505" y="-500" type="move" name="L"/>
    </contour>
    <contour>
      <point x="1075" y="1000" type="move" name="R"/>
    </contour>
    <contour>
      <point x="505" y="1500" type="move" name="U"/>
    </contour>
  </outline>
</glyph>
<glyph name="LtnCapHCircum" format="1">
  <advance width="1522"/>
  <unicode hex="0124"/>
  <outline>
    <component base="LtnCapH"/>
    <component base="CombCircum" xOffset="1318" yOffset="400"/>
    <contour>
      <point x="320" y="0" type="move" name="H"/>
    </contour>
    <contour>
      <point x="761" y="-100" type="move" name="L"/>
    </contour>
    <contour>
      <point x="761" y="1900" type="move" name="U"/>
    </contour>
  </outline>
</glyph>
<glyph name="LtnCapHStrk" format="2">
  <advance width="1522"/>
  <unicode hex="0126"/>
  <anchor x="761" y="-100" name="L"/>
  <anchor x="761" y="1500" name="U"/>
  <outline>
    <contour>
      <point x="66" y="0" type="line"/>
      <point x="584" y="0" type="line"/>
      <point x="584" y="88" type="line"/>
      <point x="467" y="96" type="line" smooth="yes"/>
      <point x="438" y="98"/>
      <point x="424" y="121"/>
      <point x="424" y="141" type="curve" smooth="yes"/>
      <point x="424" y="670" type="line"/>
      <point x="1098" y="670" type="line"/>
      <point x="1098" y="141" type="line" smooth="yes"/>
      <point x="1098" y="121"/>
      <point x="1083" y="98"/>
      <point x="1055" y="96" type="curve" smooth="yes"/>
      <point x="938" y="88" type="line"/>
      <point x="938" y="0" type="line"/>
      <point x="1456" y="0" type="line"/>
      <point x="1456" y="88" type="line"/>
      <point x="1350" y="96" type="line" smooth="yes"/>
      <point x="1321" y="98"/>
      <point x="1305" y="121"/>
      <point x="1305" y="141" type="curve" smooth="yes"/>
      <point x="1305" y="1233" type="line" smooth="yes"/>
      <point x="1305" y="1253"/>
      <point x="1321" y="1274"/>
      <point x="1350" y="1276" type="curve" smooth="yes"/>
      <point x="1456" y="1284" type="line"/>
      <point x="1456" y="1374" type="line"/>
      <point x="938" y="1374" type="line"/>
      <point x="938" y="1284" type="line"/>
      <point x="1055" y="1276" type="line" smooth="yes"/>
      <point x="1083" y="1274"/>
      <point x="1098" y="1253"/>
      <point x="1098" y="1233" type="curve" smooth="yes"/>
      <point x="1098" y="772" type="line"/>
      <point x="424" y="772" type="line"/>
      <point x="424" y="1233" type="line" smooth="yes"/>
      <point x="424" y="1253"/>
      <point x="438" y="1274"/>
      <point x="467" y="1276" type="curve" smooth="yes"/>
      <point x="584" y="1284" type="line"/>
      <point x="584" y="1374" type="line"/>
      <point x="66" y="1374" type="line"/>
      <point x="66" y="1284" type="line"/>
      <point x="172" y="1276" type="line" smooth="yes"/>
      <point x="201" y="1274"/>
      <point x="217" y="1253"/>
      <point x="217" y="1233" type="curve" smooth="yes"/>
      <point x="217" y="141" type="line" smooth="yes"/>
      <point x="217" y="121"/>
      <point x="201" y="98"/>
      <point x="172" y="96" type="curve" smooth="yes"/>
      <point x="66" y="88" type="line"/>
    </contour>
    <contour>
      <point x="66" y="977" type="line"/>
      <point x="1456" y="977" type="line"/>
      <point x="1456" y="1080" type="line"/>
      <point x="66" y="1080" type="line"/>
    </contour>
  </outline>
</glyph>
<glyph name="LtnSmITilde" format="1">
  <advance width="621"/>
  <unicode hex="0129"/>
  <outline>
    <component base="LtnSmDotlessI"/>
    <component base="SmTilde" xOffset="-45"/>
    <contour>
      <point x="310" y="0" type="move" name="H"/>
    </contour>
    <contour>
      <point x="310" y="-100" type="move" name="L"/>
    </contour>
    <contour>
      <point x="467" y="0" type="move" name="O"/>
    </contour>
    <contour>
      <point x="621" y="1000" type="move" name="R"/>
    </contour>
    <contour>
      <point x="310" y="1500" type="move" name="U"/>
    </contour>
  </outline>
</glyph>
<glyph name="LtnCapIMacron" format="1">
  <advance width="1162"/>
  <unicode hex="012A"/>
  <outline>
    <component base="LtnCapI"/>
    <component base="CombMacron.Short" xOffset="95" yOffset="400"/>
    <contour>
      <point x="338" y="0" type="move" name="H"/>
    </contour>
    <contour>
      <point x="676" y="1200" type="move" name="R"/>
    </contour>
    <contour>
      <point x="338" y="1870" type="move" name="U"/>
    </contour>
    <contour>
      <point x="338" y="-100" type="move" name="L"/>
    </contour>
    <contour>
      <point x="494" y="0" type="move" name="O"/>
    </contour>
  </outline>
</glyph>
<glyph name="LtnCapIOgonek" format="1">
  <advance width="676"/>
  <unicode hex="012E"/>
  <outline>
    <component base="LtnCapI"/>
    <component base="CombOgonek" xOffset="825"/>
    <contour>
      <point x="338" y="0" type="move" name="H"/>
    </contour>
    <contour>
      <point x="210" y="-500" type="move" name="L"/>
    </contour>
    <contour>
      <point x="676" y="1200" type="move" name="R"/>
    </contour>
    <contour>
      <point x="338" y="1500" type="move" name="U"/>
    </contour>
  </outline>
</glyph>
<glyph name="LtnSmIOgonek" format="1">
  <advance width="621"/>
  <unicode hex="012F"/>
  <outline>
    <component base="LtnSmI"/>
    <component base="CombOgonek" xOffset="797"/>
    <contour>
      <point x="310" y="0" type="move" name="H"/>
    </contour>
    <contour>
      <point x="621" y="1000" type="move" name="R"/>
    </contour>
    <contour>
      <point x="310" y="1100" type="move" name="U"/>
    </contour>
    <contour>
      <point x="182" y="-500" type="move" name="L"/>
    </contour>
  </outline>
</glyph>
<glyph name="LtnCapLigIj" format="1">
  <advance width="1669"/>
  <unicode hex="0132"/>
  <outline>
    <component base="LtnCapI"/>
    <component base="LtnCapJ" xOffset="676"/>
    <contour>
      <point x="835" y="1500" type="move" name="U"/>
    </contour>
    <contour>
      <point x="1086" y="-100" type="move" name="L"/>
    </contour>
    <contour>
      <point x="494" y="0" type="move" name="O"/>
    </contour>
    <contour>
      <point x="338" y="0" type="move" name="H"/>
    </contour>
  </outline>
</glyph>
<glyph name="LtnSmLigIj" format="1">
  <advance width="1219"/>
  <unicode hex="0133"/>
  <outline>
    <component base="LtnSmI"/>
    <component base="LtnSmJ" xOffset="621"/>
    <contour>
      <point x="466" y="0" type="move" name="O"/>
    </contour>
    <contour>
      <point x="610" y="1500" type="move" name="U"/>
    </contour>
    <contour>
      <point x="310" y="0" type="move" name="H"/>
    </contour>
    <contour>
      <point x="758" y="-500" type="move" name="L"/>
    </contour>
  </outline>
</glyph>
<glyph name="LtnCapJCircum" format="1">
  <advance width="993"/>
  <unicode hex="0134"/>
  <outline>
    <component base="LtnCapJ"/>
    <component base="CombCircum" xOffset="1232" yOffset="400"/>
    <contour>
      <point x="410" y="-100" type="move" name="L"/>
    </contour>
    <contour>
      <point x="675" y="1900" type="move" name="U"/>
    </contour>
  </outline>
</glyph>
<glyph name="LtnCapKCedilla" format="1">
  <advance width="1307"/>
  <unicode hex="0136"/>
  <outline>
    <component base="LtnCapK"/>
    <component base="CombCommaBlw" xOffset="1243"/>
    <contour>
      <point x="320" y="0" type="move" name="H"/>
    </contour>
    <contour>
      <point x="686" y="-500" type="move" name="L"/>
    </contour>
    <contour>
      <point x="686" y="1500" type="move" name="U"/>
    </contour>
  </outline>
</glyph>
<glyph name="LtnSmKCedilla" format="1">
  <advance width="1094"/>
  <unicode hex="0137"/>
  <outline>
    <component base="LtnSmK"/>
    <component base="CombCommaBlw" xOffset="1108"/>
    <contour>
      <point x="280" y="0" type="move" name="H"/>
    </contour>
    <contour>
      <point x="1094" y="1000" type="move" name="R"/>
    </contour>
    <contour>
      <point x="551" y="1540" type="move" name="U"/>
    </contour>
    <contour>
      <point x="551" y="-500" type="move" name="L"/>
    </contour>
  </outline>
</glyph>
<glyph name="LtnSmLAcute" format="1">
  <advance width="608"/>
  <unicode hex="013A"/>
  <outline>
    <component base="LtnSmL"/>
    <component base="CombAcute" xOffset="860" yOffset="480"/>
    <contour>
      <point x="303" y="0" type="move" name="H"/>
    </contour>
    <contour>
      <point x="303" y="-100" type="move" name="L"/>
    </contour>
    <contour>
      <point x="508" y="1000" type="move" name="R"/>
    </contour>
    <contour>
      <point x="303" y="1980" type="move" name="U"/>
    </contour>
  </outline>
</glyph>
<glyph name="LtnCapLCaron" format="2">
  <advance width="1087"/>
  <unicode hex="013D"/>
  <anchor x="553" y="0" name="H"/>
  <anchor x="553" y="-100" name="L"/>
  <anchor x="553" y="1500" name="U"/>
  <outline>
    <contour>
      <point x="1051" y="0" type="line"/>
      <point x="1051" y="381" type="line"/>
      <point x="932" y="381" type="line"/>
      <point x="899" y="135" type="line" smooth="yes"/>
      <point x="897" y="117"/>
      <point x="872" y="100"/>
      <point x="854" y="100" type="curve" smooth="yes"/>
      <point x="424" y="100" type="line"/>
      <point x="424" y="1233" type="line" smooth="yes"/>
      <point x="424" y="1253"/>
      <point x="440" y="1276"/>
      <point x="469" y="1278" type="curve" smooth="yes"/>
      <point x="578" y="1286" type="line"/>
      <point x="578" y="1374" type="line"/>
      <point x="55" y="1374" type="line"/>
      <point x="55" y="1286" type="line"/>
      <point x="174" y="1278" type="line" smooth="yes"/>
      <point x="203" y="1276"/>
      <point x="217" y="1253"/>
      <point x="217" y="1233" type="curve" smooth="yes"/>
      <point x="217" y="141" type="line" smooth="yes"/>
      <point x="217" y="121"/>
      <point x="203" y="98"/>
      <point x="174" y="96" type="curve" smooth="yes"/>
      <point x="55" y="88" type="line"/>
      <point x="55" y="0" type="line"/>
    </contour>
    <contour>
      <point x="965" y="1294" type="curve" smooth="yes"/>
      <point x="965" y="1401"/>
      <point x="906" y="1460"/>
      <point x="820" y="1460" type="curve" smooth="yes"/>
      <point x="760" y="1460"/>
      <point x="707" y="1423"/>
      <point x="707" y="1364" type="curve" smooth="yes"/>
      <point x="707" y="1321"/>
      <point x="732" y="1294"/>
      <point x="738" y="1290" type="curve"/>
      <point x="859" y="1290" type="line"/>
      <point x="859" y="1172"/>
      <point x="820" y="1133"/>
      <point x="711" y="1098" type="curve"/>
      <point x="711" y="1038" type="line"/>
      <point x="857" y="1065"/>
      <point x="965" y="1153"/>
    </contour>
  </outline>
</glyph>
<glyph name="LtnCapLMiddleDot" format="1">
  <advance width="1370"/>
  <unicode hex="013F"/>
  <outline>
    <component base="LtnCapL"/>
    <component base="MiddleDot" xOffset="1037"/>
    <contour>
      <point x="556" y="-100" type="move" name="L"/>
    </contour>
    <contour>
      <point x="556" y="0" type="move" name="H"/>
    </contour>
    <contour>
      <point x="556" y="1500" type="move" name="U"/>
    </contour>
  </outline>
</glyph>
<glyph name="LtnSmLMiddleDot" format="1">
  <advance width="891"/>
  <unicode hex="0140"/>
  <outline>
    <component base="LtnSmL"/>
    <component base="MiddleDot" xOffset="558"/>
    <contour>
      <point x="321" y="0" type="move" name="H"/>
    </contour>
    <contour>
      <point x="320" y="-100" type="move" name="L"/>
    </contour>
    <contour>
      <point x="320" y="1580" type="move" name="U"/>
    </contour>
  </outline>
</glyph>
<glyph name="LtnCapLStrk" format="2">
  <advance width="1087"/>
  <unicode hex="0141"/>
  <anchor x="535" y="-100" name="L"/>
  <anchor x="535" y="1500" name="U"/>
  <outline>
    <contour>
      <point x="1051" y="0" type="line"/>
      <point x="1051" y="381" type="line"/>
      <point x="934" y="381" type="line"/>
      <point x="899" y="143" type="line" smooth="yes"/>
      <point x="895" y="123"/>
      <point x="877" y="100"/>
      <point x="846" y="100" type="curve" smooth="yes"/>
      <point x="424" y="100" type="line"/>
      <point x="424" y="725" type="line"/>
      <point x="674" y="893" type="line"/>
      <point x="618" y="973" type="line"/>
      <point x="424" y="844" type="line"/>
      <point x="424" y="1233" type="line" smooth="yes"/>
      <point x="424" y="1253"/>
      <point x="440" y="1274"/>
      <point x="469" y="1276" type="curve" smooth="yes"/>
      <point x="590" y="1286" type="line"/>
      <point x="590" y="1374" type="line"/>
      <point x="53" y="1374" type="line"/>
      <point x="53" y="1286" type="line"/>
      <point x="174" y="1276" type="line" smooth="yes"/>
      <point x="205" y="1274"/>
      <point x="217" y="1253"/>
      <point x="217" y="1233" type="curve" smooth="yes"/>
      <point x="217" y="707" type="line"/>
      <point x="20" y="571" type="line"/>
      <point x="72" y="487" type="line"/>
      <point x="217" y="586" type="line"/>
      <point x="217" y="141" type="line" smooth="yes"/>
      <point x="217" y="119"/>
      <point x="203" y="98"/>
      <point x="174" y="96" type="curve" smooth="yes"/>
      <point x="53" y="88" type="line"/>
      <point x="53" y="0" type="line"/>
    </contour>
  </outline>
</glyph>
<glyph name="LtnCapNAcute" format="1">
  <advance width="1477"/>
  <unicode hex="0143"/>
  <outline>
    <component base="LtnCapN"/>
    <component base="CombAcute" xOffset="1291" yOffset="400"/>
    <contour>
      <point x="1180" y="0" type="move" name="H"/>
    </contour>
    <contour>
      <point x="734" y="1900" type="move" name="U"/>
    </contour>
    <contour>
      <point x="734" y="-100" type="move" name="L"/>
    </contour>
  </outline>
</glyph>
<glyph name="LtnSmNAcute" format="1">
  <advance width="1161"/>
  <unicode hex="0144"/>
  <outline>
    <component base="LtnSmN"/>
    <component base="CombAcute" xOffset="1137"/>
    <contour>
      <point x="892" y="0" type="move" name="H"/>
    </contour>
    <contour>
      <point x="580" y="1500" type="move" name="U"/>
    </contour>
    <contour>
      <point x="580" y="-100" type="move" name="L"/>
    </contour>
  </outline>
</glyph>
<glyph name="LtnCapNCedilla" format="1">
  <advance width="1477"/>
  <unicode hex="0145"/>
  <outline>
    <component base="LtnCapN"/>
    <component base="CombCommaBlw" xOffset="1291"/>
    <contour>
      <point x="1180" y="0" type="move" name="H"/>
    </contour>
    <contour>
      <point x="734" y="-500" type="move" name="L"/>
    </contour>
    <contour>
      <point x="734" y="1500" type="move" name="U"/>
    </contour>
  </outline>
</glyph>
<glyph name="LtnSmNCedilla" format="1">
  <advance width="1161"/>
  <unicode hex="0146"/>
  <outline>
    <component base="LtnSmN"/>
    <component base="CombCommaBlw" xOffset="1137"/>
    <contour>
      <point x="892" y="0" type="move" name="H"/>
    </contour>
    <contour>
      <point x="580" y="1100" type="move" name="U"/>
    </contour>
    <contour>
      <point x="580" y="-500" type="move" name="L"/>
    </contour>
  </outline>
</glyph>
<glyph name="LtnCapNCaron" format="1">
  <advance width="1477"/>
  <unicode hex="0147"/>
  <outline>
    <component base="LtnCapN"/>
    <component base="CombCaron" xOffset="1291" yOffset="400"/>
    <contour>
      <point x="1180" y="0" type="move" name="H"/>
    </contour>
    <contour>
      <point x="734" y="1900" type="move" name="U"/>
    </contour>
    <contour>
      <point x="734" y="-100" type="move" name="L"/>
    </contour>
  </outline>
</glyph>
<glyph name="LtnSmNCaron" format="1">
  <advance width="1161"/>
  <unicode hex="0148"/>
  <outline>
    <component base="LtnSmN"/>
    <component base="CombCaron" xOffset="1137"/>
    <contour>
      <point x="892" y="0" type="move" name="H"/>
    </contour>
    <contour>
      <point x="580" y="-100" type="move" name="L"/>
    </contour>
    <contour>
      <point x="580" y="1500" type="move" name="U"/>
    </contour>
  </outline>
</glyph>
<glyph name="LtnSmEng" format="2">
  <advance width="1161"/>
  <unicode hex="014B"/>
  <anchor x="603" y="-500" name="L"/>
  <anchor x="603" y="1100" name="U"/>
  <outline>
    <contour>
      <point x="1010" y="-33" type="curve"/>
      <point x="1010" y="696" type="line" smooth="yes"/>
      <point x="1010" y="895"/>
      <point x="905" y="1012"/>
      <point x="727" y="1012" type="curve" smooth="yes"/>
      <point x="633" y="1012"/>
      <point x="489" y="950"/>
      <point x="375" y="885" type="curve"/>
      <point x="375" y="987" type="line"/>
      <point x="291" y="987" type="line"/>
      <point x="39" y="909" type="line"/>
      <point x="39" y="842" type="line"/>
      <point x="184" y="842" type="line"/>
      <point x="184" y="129" type="line" smooth="yes"/>
      <point x="184" y="111"/>
      <point x="158" y="88"/>
      <point x="139" y="86" type="curve" smooth="yes"/>
      <point x="41" y="78" type="line"/>
      <point x="41" y="0" type="line"/>
      <point x="504" y="0" type="line"/>
      <point x="504" y="78" type="line"/>
      <point x="420" y="86" type="line" smooth="yes"/>
      <point x="401" y="88"/>
      <point x="375" y="111"/>
      <point x="375" y="129" type="curve" smooth="yes"/>
      <point x="375" y="803" type="line"/>
      <point x="444" y="838"/>
      <point x="537" y="862"/>
      <point x="614" y="862" type="curve" smooth="yes"/>
      <point x="758" y="862"/>
      <point x="819" y="791"/>
      <point x="819" y="662" type="curve" smooth="yes"/>
      <point x="819" y="-96" type="line" smooth="yes"/>
      <point x="819" y="-272"/>
      <point x="739" y="-373"/>
      <point x="676" y="-373" type="curve"/>
      <point x="510" y="-201" type="line"/>
      <point x="494" y="-201"/>
      <point x="420" y="-252"/>
      <point x="420" y="-336" type="curve" smooth="yes"/>
      <point x="420" y="-399"/>
      <point x="463" y="-469"/>
      <point x="582" y="-469" type="curve" smooth="yes"/>
      <point x="795" y="-469"/>
      <point x="1010" y="-336"/>
    </contour>
  </outline>
</glyph>
<glyph name="LtnCapOMacron" format="1">
  <advance width="1497"/>
  <unicode hex="014C"/>
  <outline>
    <component base="LtnCapO"/>
    <component base="CombMacron" xOffset="1305" yOffset="400"/>
    <contour>
      <point x="748" y="0" type="move" name="H"/>
    </contour>
    <contour>
      <point x="748" y="-100" type="move" name="L"/>
    </contour>
    <contour>
      <point x="1005" y="0" type="move" name="O"/>
    </contour>
    <contour>
      <point x="1487" y="1350" type="move" name="R"/>
    </contour>
    <contour>
      <point x="748" y="1870" type="move" name="U"/>
    </contour>
  </outline>
</glyph>
<glyph name="LtnSmOMacron" format="1">
  <advance width="1114"/>
  <unicode hex="014D"/>
  <outline>
    <component base="LtnSmO"/>
    <component base="CombMacron" xOffset="1114"/>
    <contour>
      <point x="557" y="0" type="move" name="H"/>
    </contour>
    <contour>
      <point x="557" y="-100" type="move" name="L"/>
    </contour>
    <contour>
      <point x="838" y="0" type="move" name="O"/>
    </contour>
    <contour>
      <point x="1114" y="1000" type="move" name="R"/>
    </contour>
    <contour>
      <point x="557" y="1470" type="move" name="U"/>
    </contour>
  </outline>
</glyph>
<glyph name="LtnCapODblAcute" format="1">
  <advance width="1497"/>
  <unicode hex="0150"/>
  <outline>
    <component base="LtnCapO"/>
    <component base="DblAcuteAccent" xOffset="390" yOffset="400"/>
    <contour>
      <point x="748" y="0" type="move" name="H"/>
    </contour>
    <contour>
      <point x="748" y="-100" type="move" name="L"/>
    </contour>
    <contour>
      <point x="1005" y="0" type="move" name="O"/>
    </contour>
    <contour>
      <point x="1487" y="1350" type="move" name="R"/>
    </contour>
    <contour>
      <point x="748" y="1900" type="move" name="U"/>
    </contour>
  </outline>
</glyph>
<glyph name="LtnSmODblAcute" format="1">
  <advance width="1114"/>
  <unicode hex="0151"/>
  <outline>
    <component base="LtnSmO"/>
    <component base="DblAcuteAccent" xOffset="199"/>
    <contour>
      <point x="557" y="0" type="move" name="H"/>
    </contour>
    <contour>
      <point x="1114" y="1000" type="move" name="R"/>
    </contour>
    <contour>
      <point x="557" y="1500" type="move" name="U"/>
    </contour>
    <contour>
      <point x="557" y="-100" type="move" name="L"/>
    </contour>
    <contour>
      <point x="838" y="0" type="move" name="O"/>
    </contour>
  </outline>
</glyph>
<glyph name="LtnCapRAcute" format="1">
  <advance width="1329"/>
  <unicode hex="0154"/>
  <outline>
    <component base="LtnCapR"/>
    <component base="CombAcute" xOffset="1160" yOffset="400"/>
    <contour>
      <point x="320" y="0" type="move" name="H"/>
    </contour>
    <contour>
      <point x="603" y="-100" type="move" name="L"/>
    </contour>
    <contour>
      <point x="603" y="1900" type="move" name="U"/>
    </contour>
  </outline>
</glyph>
<glyph name="LtnSmRAcute" format="1">
  <advance width="801"/>
  <unicode hex="0155"/>
  <outline>
    <component base="LtnSmR"/>
    <component base="CombAcute" xOffset="1000"/>
    <contour>
      <point x="290" y="0" type="move" name="H"/>
    </contour>
    <contour>
      <point x="290" y="-100" type="move" name="L"/>
    </contour>
    <contour>
      <point x="443" y="1500" type="move" name="U"/>
    </contour>
  </outline>
</glyph>
<glyph name="LtnCapRCedilla" format="1">
  <advance width="1329"/>
  <unicode hex="0156"/>
  <outline>
    <component base="LtnCapR"/>
    <component base="CombCommaBlw" xOffset="1160"/>
    <contour>
      <point x="320" y="0" type="move" name="H"/>
    </contour>
    <contour>
      <point x="603" y="-500" type="move" name="L"/>
    </contour>
    <contour>
      <point x="603" y="1500" type="move" name="U"/>
    </contour>
  </outline>
</glyph>
<glyph name="LtnSmRCedilla" format="1">
  <advance width="801"/>
  <unicode hex="0157"/>
  <outline>
    <component base="LtnSmR"/>
    <component base="CombCommaBlw" xOffset="847"/>
    <contour>
      <point x="290" y="0" type="move" name="H"/>
    </contour>
    <contour>
      <point x="443" y="1100" type="move" name="U"/>
    </contour>
    <contour>
      <point x="290" y="-500" type="move" name="L"/>
    </contour>
  </outline>
</glyph>
<glyph name="LtnSmRCaron" format="1">
  <advance width="801"/>
  <unicode hex="0159"/>
  <outline>
    <component base="LtnSmR"/>
    <component base="CombCaron" xOffset="1000"/>
    <contour>
      <point x="290" y="0" type="move" name="H"/>
    </contour>
    <contour>
      <point x="290" y="-100" type="move" name="L"/>
    </contour>
    <contour>
      <point x="443" y="1500" type="move" name="U"/>
    </contour>
  </outline>
</glyph>
<glyph name="LtnSmSAcute" format="1">
  <advance width="815"/>
  <unicode hex="015B"/>
  <outline>
    <component base="LtnSmS"/>
    <component base="CombAcute" xOffset="984"/>
    <contour>
      <point x="379" y="0" type="move" name="H"/>
    </contour>
    <contour>
      <point x="427" y="1500" type="move" name="U"/>
    </contour>
    <contour>
      <point x="407" y="-100" type="move" name="L"/>
    </contour>
  </outline>
</glyph>
<glyph name="LtnCapSCircum" format="1">
  <advance width="1067"/>
  <unicode hex="015C"/>
  <outline>
    <component base="LtnCapS"/>
    <component base="CombCircum" xOffset="1120" yOffset="400"/>
    <contour>
      <point x="493" y="0" type="move" name="H"/>
    </contour>
    <contour>
      <point x="563" y="1900" type="move" name="U"/>
    </contour>
    <contour>
      <point x="543" y="-100" type="move" name="L"/>
    </contour>
  </outline>
</glyph>
<glyph name="LtnCapSCedilla" format="1">
  <advance width="1067"/>
  <unicode hex="015E"/>
  <outline>
    <component base="LtnCapS"/>
    <component base="CombCedilla" xOffset="1050"/>
    <contour>
      <point x="493" y="-600" type="move" name="L"/>
    </contour>
    <contour>
      <point x="563" y="1500" type="move" name="U"/>
    </contour>
  </outline>
</glyph>
<glyph name="LtnCapSCaron" format="1">
  <advance width="1067"/>
  <unicode hex="0160"/>
  <outline>
    <component base="LtnCapS"/>
    <component base="CombCaron" xOffset="1120" yOffset="400"/>
    <contour>
      <point x="493" y="0" type="move" name="H"/>
    </contour>
    <contour>
      <point x="543" y="-100" type="move" name="L"/>
    </contour>
    <contour>
      <point x="563" y="1900" type="move" name="U"/>
    </contour>
  </outline>
</glyph>
<glyph name="LtnCapTCedilla" format="1">
  <advance width="1227"/>
  <unicode hex="0162"/>
  <outline>
    <component base="LtnCapT"/>
    <component base="CombCedilla" xOffset="1170"/>
    <contour>
      <point x="613" y="-600" type="move" name="L"/>
    </contour>
    <contour>
      <point x="613" y="1500" type="move" name="U"/>
    </contour>
  </outline>
</glyph>
<glyph name="LtnSmTCedilla" format="1">
  <advance width="696"/>
  <unicode hex="0163"/>
  <outline>
    <component base="LtnSmT"/>
    <component base="CombCedilla" xOffset="925"/>
    <contour>
      <point x="696" y="1000" type="move" name="R"/>
    </contour>
    <contour>
      <point x="358" y="1363" type="move" name="U"/>
    </contour>
    <contour>
      <point x="368" y="-600" type="move" name="L"/>
    </contour>
  </outline>
</glyph>
<glyph name="LtnCapTCaron" format="1">
  <advance width="1227"/>
  <unicode hex="0164"/>
  <outline>
    <component base="LtnCapT"/>
    <component base="CombCaron" xOffset="1170" yOffset="400"/>
    <contour>
      <point x="613" y="0" type="move" name="H"/>
    </contour>
    <contour>
      <point x="613" y="1900" type="move" name="U"/>
    </contour>
    <contour>
      <point x="613" y="-100" type="move" name="L"/>
    </contour>
  </outline>
</glyph>
<glyph name="LtnCapTStrk" format="2">
  <advance width="1227"/>
  <unicode hex="0166"/>
  <anchor x="613" y="-100" name="L"/>
  <anchor x="613" y="1500" name="U"/>
  <outline>
    <contour>
      <point x="1194" y="1047" type="line"/>
      <point x="1194" y="1374" type="line"/>
      <point x="33" y="1374" type="line"/>
      <point x="33" y="1047" type="line"/>
      <point x="152" y="1047" type="line"/>
      <point x="180" y="1239" type="line" smooth="yes"/>
      <point x="182" y="1260"/>
      <point x="197" y="1274"/>
      <point x="215" y="1274" type="curve" smooth="yes"/>
      <point x="510" y="1274" type="line"/>
      <point x="510" y="772" type="line"/>
      <point x="223" y="772" type="line"/>
      <point x="223" y="668" type="line"/>
      <point x="510" y="668" type="line"/>
      <point x="510" y="141" type="line" smooth="yes"/>
      <point x="510" y="121"/>
      <point x="496" y="98"/>
      <point x="467" y="96" type="curve" smooth="yes"/>
      <point x="336" y="88" type="line"/>
      <point x="336" y="0" type="line"/>
      <point x="891" y="0" type="line"/>
      <point x="891" y="88" type="line"/>
      <point x="760" y="96" type="line" smooth="yes"/>
      <point x="731" y="98"/>
      <point x="717" y="121"/>
      <point x="717" y="141" type="curve" smooth="yes"/>
      <point x="717" y="668" type="line"/>
      <point x="1004" y="668" type="line"/>
      <point x="1004" y="772" type="line"/>
      <point x="717" y="772" type="line"/>
      <point x="717" y="1274" type="line"/>
      <point x="1010" y="1274" type="line" smooth="yes"/>
      <point x="1028" y="1274"/>
      <point x="1040" y="1260"/>
      <point x="1044" y="1239" type="curve" smooth="yes"/>
      <point x="1073" y="1047" type="line"/>
    </contour>
  </outline>
</glyph>
<glyph name="LtnCapUTilde" format="1">
  <advance width="1458"/>
  <unicode hex="0168"/>
  <outline>
    <component base="LtnCapU"/>
    <component base="SmTilde" xOffset="395" yOffset="400"/>
    <contour>
      <point x="733" y="0" type="move" name="H"/>
    </contour>
    <contour>
      <point x="1508" y="1350" type="move" name="R"/>
    </contour>
    <contour>
      <point x="750" y="1900" type="move" name="U"/>
    </contour>
    <contour>
      <point x="750" y="-100" type="move" name="L"/>
    </contour>
    <contour>
      <point x="1045" y="0" type="move" name="O"/>
    </contour>
  </outline>
</glyph>
<glyph name="LtnCapUMacron" format="1">
  <advance width="1458"/>
  <unicode hex="016A"/>
  <outline>
    <component base="LtnCapU"/>
    <component base="CombMacron" xOffset="1307" yOffset="400"/>
    <contour>
      <point x="733" y="0" type="move" name="H"/>
    </contour>
    <contour>
      <point x="750" y="-100" type="move" name="L"/>
    </contour>
    <contour>
      <point x="1045" y="0" type="move" name="O"/>
    </contour>
    <contour>
      <point x="1508" y="1350" type="move" name="R"/>
    </contour>
    <contour>
      <point x="750" y="1870" type="move" name="U"/>
    </contour>
  </outline>
</glyph>
<glyph name="LtnSmUBreve" format="1">
  <advance width="1165"/>
  <unicode hex="016D"/>
  <outline>
    <component base="LtnSmU"/>
    <component base="CombBreve" xOffset="1137"/>
    <contour>
      <point x="580" y="0" type="move" name="H"/>
    </contour>
    <contour>
      <point x="1160" y="1000" type="move" name="R"/>
    </contour>
    <contour>
      <point x="580" y="1500" type="move" name="U"/>
    </contour>
    <contour>
      <point x="580" y="-100" type="move" name="L"/>
    </contour>
    <contour>
      <point x="1060" y="0" type="move" name="O"/>
    </contour>
  </outline>
</glyph>
<glyph name="LtnCapURingAbv" format="1">
  <advance width="1458"/>
  <unicode hex="016E"/>
  <outline>
    <component base="LtnCapU"/>
    <component base="RingAbv" xOffset="507" yOffset="400"/>
    <contour>
      <point x="733" y="0" type="move" name="H"/>
    </contour>
    <contour>
      <point x="1508" y="1350" type="move" name="R"/>
    </contour>
    <contour>
      <point x="750" y="2060" type="move" name="U"/>
    </contour>
    <contour>
      <point x="750" y="-100" type="move" name="L"/>
    </contour>
    <contour>
      <point x="1045" y="0" type="move" name="O"/>
    </contour>
  </outline>
</glyph>
<glyph name="LtnSmUDblAcute" format="1">
  <advance width="1165"/>
  <unicode hex="0171"/>
  <outline>
    <component base="LtnSmU"/>
    <component base="DblAcuteAccent" xOffset="222"/>
    <contour>
      <point x="580" y="0" type="move" name="H"/>
    </contour>
    <contour>
      <point x="580" y="-100" type="move" name="L"/>
    </contour>
    <contour>
      <point x="1060" y="0" type="move" name="O"/>
    </contour>
    <contour>
      <point x="1160" y="1000" type="move" name="R"/>
    </contour>
    <contour>
      <point x="580" y="1500" type="move" name="U"/>
    </contour>
  </outline>
</glyph>
<glyph name="LtnCapUOgonek" format="1">
  <advance width="1458"/>
  <unicode hex="0172"/>
  <outline>
    <component base="LtnCapU"/>
    <component base="CombOgonek" xOffset="1283"/>
    <contour>
      <point x="733" y="0" type="move" name="H"/>
    </contour>
    <contour>
      <point x="758" y="-400" type="move" name="L"/>
    </contour>
    <contour>
      <point x="750" y="1500" type="move" name="U"/>
    </contour>
    <contour>
      <point x="1458" y="1000" type="move" name="R"/>
    </contour>
  </outline>
</glyph>
<glyph name="LtnSmUOgonek" format="1">
  <advance width="1165"/>
  <unicode hex="0173"/>
  <outline>
    <component base="LtnSmU" xOffset="2"/>
    <component base="CombOgonek" xOffset="1325"/>
    <contour>
      <point x="582" y="1100" type="move" name="U"/>
    </contour>
    <contour>
      <point x="576" y="-400" type="move" name="L"/>
    </contour>
  </outline>
</glyph>
<glyph name="LtnSmWCircum" format="1">
  <advance width="1604"/>
  <unicode hex="0175"/>
  <outline>
    <component base="LtnSmW"/>
    <component base="CombCircum" xOffset="1387"/>
    <contour>
      <point x="830" y="1500" type="move" name="U"/>
    </contour>
    <contour>
      <point x="801" y="-100" type="move" name="L"/>
    </contour>
  </outline>
</glyph>
<glyph name="LtnCapYCircum" format="1">
  <advance width="1282"/>
  <unicode hex="0176"/>
  <outline>
    <component base="LtnCapY"/>
    <component base="CombCircum" xOffset="1198" yOffset="400"/>
    <contour>
      <point x="641" y="1900" type="move" name="U"/>
    </contour>
    <contour>
      <point x="641" y="-100" type="move" name="L"/>
    </contour>
  </outline>
</glyph>
<glyph name="LtnSmYCircum" format="1">
  <advance width="1085"/>
  <unicode hex="0177"/>
  <outline>
    <component base="LtnSmY"/>
    <component base="CombCircum" xOffset="1118"/>
    <contour>
      <point x="542" y="-500" type="move" name="L"/>
    </contour>
    <contour>
      <point x="1085" y="1000" type="move" name="R"/>
    </contour>
    <contour>
      <point x="561" y="1500" type="move" name="U"/>
    </contour>
  </outline>
</glyph>
<glyph name="LtnCapYDiaer" format="1">
  <advance width="1282"/>
  <unicode hex="0178"/>
  <outline>
    <component base="LtnCapY"/>
    <component base="CombDiaer" xOffset="1198" yOffset="400"/>
    <contour>
      <point x="641" y="1900" type="move" name="U"/>
    </contour>
    <contour>
      <point x="641" y="-100" type="move" name="L"/>
    </contour>
  </outline>
</glyph>
<glyph name="LtnSmZAcute" format="1">
  <advance width="946"/>
  <unicode hex="017A"/>
  <outline>
    <component base="LtnSmZ"/>
    <component base="CombAcute" xOffset="1040"/>
    <contour>
      <point x="483" y="0" type="move" name="H"/>
    </contour>
    <contour>
      <point x="483" y="-100" type="move" name="L"/>
    </contour>
    <contour>
      <point x="483" y="1500" type="move" name="U"/>
    </contour>
  </outline>
</glyph>
<glyph name="LtnCapZDotAbv" format="1">
  <advance width="1178"/>
  <unicode hex="017B"/>
  <outline>
    <component base="LtnCapZ"/>
    <component base="DotAbv" xOffset="496" yOffset="400"/>
    <contour>
      <point x="610" y="1900" type="move" name="U"/>
    </contour>
    <contour>
      <point x="610" y="-100" type="move" name="L"/>
    </contour>
  </outline>
</glyph>
<glyph name="LtnSmZDotAbv" format="1">
  <advance width="946"/>
  <unicode hex="017C"/>
  <outline>
    <component base="LtnSmZ"/>
    <component base="DotAbv" xOffset="369"/>
    <contour>
      <point x="483" y="0" type="move" name="H"/>
    </contour>
    <contour>
      <point x="483" y="1500" type="move" name="U"/>
    </contour>
    <contour>
      <point x="483" y="-100" type="move" name="L"/>
    </contour>
  </outline>
</glyph>
<glyph name="LtnSmZCaron" format="1">
  <advance width="946"/>
  <unicode hex="017E"/>
  <outline>
    <component base="LtnSmZ"/>
    <component base="CombCaron" xOffset="1040"/>
    <contour>
      <point x="483" y="0" type="move" name="H"/>
    </contour>
    <contour>
      <point x="483" y="-100" type="move" name="L"/>
    </contour>
    <contour>
      <point x="483" y="1500" type="move" name="U"/>
    </contour>
  </outline>
</glyph>
<glyph name="LtnCapBHook" format="2">
  <advance width="1386"/>
  <unicode hex="0181"/>
  <anchor x="637" y="-100" name="L"/>
  <anchor x="637" y="1500" name="U"/>
  <outline>
    <contour>
      <point x="213" y="0" type="line"/>
      <point x="786" y="0" type="line" smooth="yes"/>
      <point x="1001" y="0"/>
      <point x="1307" y="74"/>
      <point x="1307" y="406" type="curve" smooth="yes"/>
      <point x="1307" y="647"/>
      <point x="1110" y="729"/>
      <point x="928" y="729" type="curve"/>
      <point x="1049" y="760"/>
      <point x="1225" y="840"/>
      <point x="1225" y="1044" type="curve" smooth="yes"/>
      <point x="1225" y="1249"/>
      <point x="1087" y="1374"/>
      <point x="762" y="1374" type="curve" smooth="yes"/>
      <point x="608" y="1374"/>
      <point x="455" y="1374"/>
      <point x="301" y="1374" type="curve" smooth="yes"/>
      <point x="86" y="1374"/>
      <point x="-33" y="1305"/>
      <point x="-33" y="1153" type="curve" smooth="yes"/>
      <point x="-33" y="1087"/>
      <point x="20" y="1022"/>
      <point x="80" y="1022" type="curve" smooth="yes"/>
      <point x="129" y="1022"/>
      <point x="172" y="1040"/>
      <point x="211" y="1083" type="curve"/>
      <point x="125" y="1229" type="line"/>
      <point x="147" y="1262"/>
      <point x="174" y="1278"/>
      <point x="246" y="1278" type="curve" smooth="yes"/>
      <point x="324" y="1278" type="line" smooth="yes"/>
      <point x="350" y="1278"/>
      <point x="367" y="1262"/>
      <point x="367" y="1235" type="curve" smooth="yes"/>
      <point x="367" y="141" type="line" smooth="yes"/>
      <point x="367" y="121"/>
      <point x="344" y="98"/>
      <point x="315" y="96" type="curve" smooth="yes"/>
      <point x="213" y="88" type="line"/>
    </contour>
    <contour>
      <point x="696" y="100" type="curve" smooth="yes"/>
      <point x="657" y="100"/>
      <point x="569" y="106"/>
      <point x="569" y="106" type="curve"/>
      <point x="569" y="647" type="line"/>
      <point x="582" y="647"/>
      <point x="686" y="659"/>
      <point x="754" y="659" type="curve" smooth="yes"/>
      <point x="971" y="659"/>
      <point x="1085" y="575"/>
      <point x="1085" y="389" type="curve" smooth="yes"/>
      <point x="1085" y="195"/>
      <point x="983" y="100"/>
    </contour>
    <contour>
      <point x="643" y="754" type="curve" smooth="yes"/>
      <point x="621" y="754"/>
      <point x="569" y="756"/>
      <point x="569" y="756" type="curve"/>
      <point x="569" y="1274" type="line"/>
      <point x="584" y="1274"/>
      <point x="686" y="1280"/>
      <point x="686" y="1280" type="curve"/>
      <point x="897" y="1290"/>
      <point x="1001" y="1192"/>
      <point x="1001" y="1032" type="curve" smooth="yes"/>
      <point x="1001" y="856"/>
      <point x="909" y="754"/>
    </contour>
  </outline>
</glyph>
<glyph name="LtnSmBTopbar" format="2">
  <advance width="1137"/>
  <unicode hex="0183"/>
  <anchor x="625" y="-100" name="L"/>
  <anchor x="625" y="1540" name="U"/>
  <outline>
    <contour>
      <point x="184" y="0" type="line"/>
      <point x="479" y="0" type="line" smooth="yes"/>
      <point x="891" y="0"/>
      <point x="1067" y="233"/>
      <point x="1067" y="541" type="curve" smooth="yes"/>
      <point x="1067" y="793"/>
      <point x="926" y="1012"/>
      <point x="657" y="1012" type="curve" smooth="yes"/>
      <point x="537" y="1012"/>
      <point x="422" y="958"/>
      <point x="375" y="936" type="curve"/>
      <point x="375" y="1370" type="line"/>
      <point x="375" y="1386"/>
      <point x="389" y="1413"/>
      <point x="418" y="1413" type="curve" smooth="yes"/>
      <point x="781" y="1413" type="line" smooth="yes"/>
      <point x="799" y="1413"/>
      <point x="814" y="1395"/>
      <point x="816" y="1374" type="curve"/>
      <point x="842" y="1190" type="line"/>
      <point x="955" y="1190" type="line"/>
      <point x="955" y="1509" type="line"/>
      <point x="698" y="1509"/>
      <point x="441" y="1509"/>
      <point x="184" y="1509" type="curve"/>
    </contour>
    <contour>
      <point x="475" y="96" type="curve" smooth="yes"/>
      <point x="436" y="96"/>
      <point x="375" y="98"/>
      <point x="375" y="98" type="curve"/>
      <point x="375" y="858" type="line"/>
      <point x="416" y="872"/>
      <point x="500" y="891"/>
      <point x="545" y="891" type="curve" smooth="yes"/>
      <point x="743" y="891"/>
      <point x="858" y="758"/>
      <point x="858" y="500" type="curve" smooth="yes"/>
      <point x="858" y="201"/>
      <point x="717" y="96"/>
    </contour>
  </outline>
</glyph>
<glyph name="LtnCapTnSix" format="2">
  <advance width="1264"/>
  <unicode hex="0184"/>
  <anchor x="604" y="-100" name="L"/>
  <anchor x="604" y="1500" name="U"/>
  <outline>
    <contour>
      <point x="961" y="389" type="curve" smooth="yes"/>
      <point x="961" y="188"/>
      <point x="842" y="94"/>
      <point x="553" y="94" type="curve" smooth="yes"/>
      <point x="516" y="94"/>
      <point x="472" y="96"/>
      <point x="449" y="98" type="curve"/>
      <point x="449" y="650" type="line"/>
      <point x="487" y="654"/>
      <point x="549" y="660"/>
      <point x="580" y="660" type="curve" smooth="yes"/>
      <point x="803" y="660"/>
      <point x="961" y="628"/>
    </contour>
    <contour>
      <point x="449" y="1407" type="curve"/>
      <point x="309" y="1407" type="line"/>
      <point x="0" y="998" type="line"/>
      <point x="75" y="934" type="line"/>
      <point x="242" y="1108" type="line"/>
      <point x="242" y="139" type="line" smooth="yes"/>
      <point x="242" y="123"/>
      <point x="228" y="98"/>
      <point x="199" y="96" type="curve" smooth="yes"/>
      <point x="74" y="88" type="line"/>
      <point x="74" y="0" type="line"/>
      <point x="564" y="0" type="line" smooth="yes"/>
      <point x="979" y="0"/>
      <point x="1184" y="108"/>
      <point x="1184" y="395" type="curve" smooth="yes"/>
      <point x="1184" y="686"/>
      <point x="902" y="758"/>
      <point x="598" y="758" type="curve" smooth="yes"/>
      <point x="556" y="758"/>
      <point x="489" y="752"/>
      <point x="449" y="748" type="curve"/>
      <point x="449" y="1173"/>
      <point x="449" y="1374"/>
    </contour>
  </outline>
</glyph>
<glyph name="LtnSmTnSix" format="2">
  <advance width="1234"/>
  <unicode hex="0185"/>
  <outline>
    <contour>
      <point x="1164" y="541" type="curve" smooth="yes"/>
      <point x="1164" y="793"/>
      <point x="1023" y="1012"/>
      <point x="754" y="1012" type="curve" smooth="yes"/>
      <point x="634" y="1012"/>
      <point x="518" y="958"/>
      <point x="472" y="936" type="curve"/>
      <point x="472" y="1549" type="line"/>
      <point x="351" y="1549" type="line"/>
      <point x="0" y="1069" type="line"/>
      <point x="82" y="999" type="line"/>
      <point x="281" y="1212" type="line"/>
      <point x="281" y="0" type="line"/>
      <point x="576" y="0" type="line" smooth="yes"/>
      <point x="988" y="0"/>
      <point x="1164" y="233"/>
    </contour>
    <contour>
      <point x="955" y="500" type="curve" smooth="yes"/>
      <point x="955" y="201"/>
      <point x="814" y="96"/>
      <point x="572" y="96" type="curve" smooth="yes"/>
      <point x="544" y="96"/>
      <point x="498" y="97"/>
      <point x="472" y="98" type="curve"/>
      <point x="472" y="858" type="line"/>
      <point x="513" y="872"/>
      <point x="597" y="891"/>
      <point x="642" y="891" type="curve" smooth="yes"/>
      <point x="840" y="891"/>
      <point x="955" y="758"/>
    </contour>
  </outline>
</glyph>
<glyph name="LtnCapOpnO" format="2">
  <advance width="1284"/>
  <unicode hex="0186"/>
  <anchor x="615" y="-100" name="L"/>
  <anchor x="615" y="1500" name="U"/>
  <outline>
    <contour>
      <point x="1204" y="684" type="curve" smooth="yes"/>
      <point x="1204" y="1061"/>
      <point x="948" y="1407"/>
      <point x="489" y="1407" type="curve" smooth="yes"/>
      <point x="281" y="1407"/>
      <point x="90" y="1331"/>
      <point x="80" y="1327" type="curve"/>
      <point x="80" y="995" type="line"/>
      <point x="201" y="995" type="line"/>
      <point x="248" y="1219" type="line" smooth="yes"/>
      <point x="251" y="1235"/>
      <point x="266" y="1251"/>
      <point x="287" y="1260" type="curve" smooth="yes"/>
      <point x="291" y="1262"/>
      <point x="356" y="1292"/>
      <point x="453" y="1292" type="curve" smooth="yes"/>
      <point x="776" y="1292"/>
      <point x="971" y="1059"/>
      <point x="971" y="678" type="curve" smooth="yes"/>
      <point x="971" y="285"/>
      <point x="756" y="82"/>
      <point x="477" y="82" type="curve" smooth="yes"/>
      <point x="377" y="82"/>
      <point x="301" y="119"/>
      <point x="270" y="135" type="curve" smooth="yes"/>
      <point x="258" y="141"/>
      <point x="239" y="164"/>
      <point x="236" y="182" type="curve" smooth="yes"/>
      <point x="203" y="369" type="line"/>
      <point x="80" y="369" type="line"/>
      <point x="80" y="47" type="line"/>
      <point x="248" y="-4"/>
      <point x="356" y="-33"/>
      <point x="487" y="-33" type="curve" smooth="yes"/>
      <point x="915" y="-33"/>
      <point x="1204" y="260"/>
    </contour>
  </outline>
</glyph>
<glyph name="LtnCapAfricanD" format="1">
  <advance width="1425"/>
  <unicode hex="0189"/>
  <outline>
    <contour>
      <point x="29" y="668" type="line"/>
      <point x="750" y="668" type="line"/>
      <point x="750" y="772" type="line"/>
      <point x="29" y="772" type="line"/>
    </contour>
    <component base="LtnCapD"/>
    <contour>
      <point x="690" y="1500" type="move" name="U"/>
    </contour>
    <contour>
      <point x="690" y="-100" type="move" name="L"/>
    </contour>
  </outline>
</glyph>
<glyph name="LtnCapDTopbar" format="2">
  <advance width="1255"/>
  <unicode hex="018B"/>
  <anchor x="634" y="-100" name="L"/>
  <anchor x="634" y="1500" name="U"/>
  <outline>
    <contour>
      <point x="699" y="0" type="curve" smooth="yes"/>
      <point x="1189" y="0" type="line"/>
      <point x="1189" y="88" type="line"/>
      <point x="1064" y="96" type="line" smooth="yes"/>
      <point x="1035" y="98"/>
      <point x="1021" y="123"/>
      <point x="1021" y="139" type="curve" smooth="yes"/>
      <point x="1021" y="1235" type="line" smooth="yes"/>
      <point x="1021" y="1251"/>
      <point x="1035" y="1274"/>
      <point x="1064" y="1278" type="curve"/>
      <point x="1172" y="1286" type="line"/>
      <point x="1172" y="1374" type="line"/>
      <point x="253" y="1374" type="line"/>
      <point x="253" y="1055" type="line"/>
      <point x="366" y="1055" type="line"/>
      <point x="392" y="1239" type="line" smooth="yes"/>
      <point x="395" y="1260"/>
      <point x="409" y="1278"/>
      <point x="427" y="1278" type="curve" smooth="yes"/>
      <point x="771" y="1278" type="line" smooth="yes"/>
      <point x="800" y="1278"/>
      <point x="814" y="1251"/>
      <point x="814" y="1235" type="curve" smooth="yes"/>
      <point x="814" y="748" type="line"/>
      <point x="814" y="748"/>
      <point x="715" y="758"/>
      <point x="665" y="758" type="curve" smooth="yes"/>
      <point x="354" y="758"/>
      <point x="80" y="639"/>
      <point x="80" y="378" type="curve" smooth="yes"/>
      <point x="80" y="78"/>
      <point x="302" y="0"/>
    </contour>
    <contour>
      <point x="710" y="94" type="curve" smooth="yes"/>
      <point x="428" y="94"/>
      <point x="301" y="160"/>
      <point x="301" y="369" type="curve" smooth="yes"/>
      <point x="301" y="576"/>
      <point x="421" y="660"/>
      <point x="683" y="660" type="curve" smooth="yes"/>
      <point x="730" y="660"/>
      <point x="814" y="650"/>
      <point x="814" y="650" type="curve"/>
      <point x="814" y="98" type="line"/>
      <point x="814" y="98"/>
      <point x="761" y="94"/>
    </contour>
  </outline>
</glyph>
<glyph name="LtnCapOpnE" format="2">
  <advance width="1145"/>
  <unicode hex="0190"/>
  <anchor x="615" y="-100" name="L"/>
  <anchor x="615" y="1500" name="U"/>
  <outline>
    <contour>
      <point x="625" y="-33" type="curve" smooth="yes"/>
      <point x="897" y="-33"/>
      <point x="1075" y="104"/>
      <point x="1075" y="215" type="curve" smooth="yes"/>
      <point x="1075" y="268"/>
      <point x="1040" y="328"/>
      <point x="956" y="328" type="curve" smooth="yes"/>
      <point x="938" y="328"/>
      <point x="909" y="330"/>
      <point x="889" y="315" type="curve"/>
      <point x="819" y="127" type="line"/>
      <point x="768" y="94"/>
      <point x="723" y="70"/>
      <point x="651" y="70" type="curve" smooth="yes"/>
      <point x="426" y="70"/>
      <point x="303" y="215"/>
      <point x="303" y="389" type="curve" smooth="yes"/>
      <point x="303" y="598"/>
      <point x="477" y="651"/>
      <point x="621" y="651" type="curve" smooth="yes"/>
      <point x="682" y="651"/>
      <point x="729" y="645"/>
      <point x="735" y="645" type="curve"/>
      <point x="735" y="766" type="line"/>
      <point x="735" y="766"/>
      <point x="711" y="764"/>
      <point x="680" y="764" type="curve" smooth="yes"/>
      <point x="489" y="764"/>
      <point x="387" y="858"/>
      <point x="387" y="1028" type="curve" smooth="yes"/>
      <point x="387" y="1204"/>
      <point x="502" y="1300"/>
      <point x="649" y="1300" type="curve" smooth="yes"/>
      <point x="760" y="1300"/>
      <point x="823" y="1245"/>
      <point x="836" y="1237" type="curve"/>
      <point x="836" y="1042" type="line"/>
      <point x="842" y="1040"/>
      <point x="877" y="1010"/>
      <point x="926" y="1010" type="curve" smooth="yes"/>
      <point x="973" y="1010"/>
      <point x="1051" y="1044"/>
      <point x="1051" y="1133" type="curve" smooth="yes"/>
      <point x="1051" y="1298"/>
      <point x="897" y="1407"/>
      <point x="604" y="1407" type="curve" smooth="yes"/>
      <point x="348" y="1407"/>
      <point x="162" y="1278"/>
      <point x="162" y="1055" type="curve" smooth="yes"/>
      <point x="162" y="915"/>
      <point x="242" y="793"/>
      <point x="465" y="725" type="curve"/>
      <point x="260" y="715"/>
      <point x="80" y="606"/>
      <point x="80" y="393" type="curve" smooth="yes"/>
      <point x="80" y="133"/>
      <point x="254" y="-33"/>
    </contour>
  </outline>
</glyph>
<glyph name="LtnCapFHook" format="2">
  <advance width="1108"/>
  <unicode hex="0191"/>
  <anchor x="663" y="-100" name="L"/>
  <anchor x="565" y="1500" name="U"/>
  <outline>
    <contour>
      <point x="1047" y="1049" type="line"/>
      <point x="1047" y="1374" type="line"/>
      <point x="51" y="1374" type="line"/>
      <point x="51" y="1286" type="line"/>
      <point x="176" y="1278" type="line" smooth="yes"/>
      <point x="205" y="1276"/>
      <point x="219" y="1253"/>
      <point x="219" y="1233" type="curve" smooth="yes"/>
      <point x="219" y="-123" type="line" smooth="yes"/>
      <point x="219" y="-262"/>
      <point x="186" y="-367"/>
      <point x="57" y="-367" type="curve"/>
      <point x="-100" y="-188" type="line"/>
      <point x="-117" y="-190"/>
      <point x="-201" y="-229"/>
      <point x="-201" y="-317" type="curve" smooth="yes"/>
      <point x="-201" y="-389"/>
      <point x="-145" y="-469"/>
      <point x="-2" y="-469" type="curve" smooth="yes"/>
      <point x="248" y="-469"/>
      <point x="424" y="-305"/>
      <point x="424" y="-43" type="curve" smooth="yes"/>
      <point x="424" y="641" type="line"/>
      <point x="739" y="641" type="line" smooth="yes"/>
      <point x="756" y="641"/>
      <point x="774" y="618"/>
      <point x="776" y="604" type="curve" smooth="yes"/>
      <point x="795" y="461" type="line"/>
      <point x="897" y="461" type="line"/>
      <point x="897" y="922" type="line"/>
      <point x="795" y="922" type="line"/>
      <point x="776" y="778" type="line" smooth="yes"/>
      <point x="774" y="764"/>
      <point x="758" y="741"/>
      <point x="739" y="741" type="curve" smooth="yes"/>
      <point x="424" y="741" type="line"/>
      <point x="424" y="1274" type="line"/>
      <point x="862" y="1274" type="line" smooth="yes"/>
      <point x="881" y="1274"/>
      <point x="894" y="1257"/>
      <point x="897" y="1237" type="curve" smooth="yes"/>
      <point x="926" y="1049" type="line"/>
    </contour>
  </outline>
</glyph>
<glyph name="LtnSmHv" format="2">
  <advance width="1780"/>
  <unicode hex="0195"/>
  <anchor x="900" y="-100" name="L"/>
  <anchor x="900" y="1100" name="U"/>
  <outline>
    <contour>
      <point x="1191" y="-25" type="curve" smooth="yes"/>
      <point x="1467" y="-25"/>
      <point x="1602" y="148"/>
      <point x="1602" y="351" type="curve"/>
      <point x="1602" y="1012" type="line"/>
      <point x="1518" y="1012" type="line"/>
      <point x="1268" y="932" type="line"/>
      <point x="1268" y="862" type="line"/>
      <point x="1412" y="862" type="line"/>
      <point x="1412" y="336" type="line"/>
      <point x="1412" y="167"/>
      <point x="1335" y="105"/>
      <point x="1211" y="105" type="curve" smooth="yes"/>
      <point x="1066" y="105"/>
      <point x="991" y="174"/>
      <point x="991" y="346" type="curve" smooth="yes"/>
      <point x="991" y="702" type="line"/>
      <point x="990" y="913"/>
      <point x="870" y="1012"/>
      <point x="713" y="1012" type="curve" smooth="yes"/>
      <point x="606" y="1012"/>
      <point x="449" y="930"/>
      <point x="375" y="885" type="curve"/>
      <point x="375" y="1509" type="line"/>
      <point x="293" y="1509" type="line"/>
      <point x="31" y="1430" type="line"/>
      <point x="31" y="1362" type="line"/>
      <point x="184" y="1362" type="line"/>
      <point x="184" y="131" type="line" smooth="yes"/>
      <point x="184" y="106"/>
      <point x="166" y="88"/>
      <point x="141" y="86" type="curve" smooth="yes"/>
      <point x="43" y="80" type="line"/>
      <point x="43" y="0" type="line"/>
      <point x="504" y="0" type="line"/>
      <point x="504" y="80" type="line"/>
      <point x="416" y="86" type="line" smooth="yes"/>
      <point x="391" y="88"/>
      <point x="375" y="106"/>
      <point x="375" y="131" type="curve" smooth="yes"/>
      <point x="375" y="803" type="line"/>
      <point x="434" y="836"/>
      <point x="526" y="862"/>
      <point x="598" y="862" type="curve" smooth="yes"/>
      <point x="756" y="862"/>
      <point x="801" y="776"/>
      <point x="801" y="659" type="curve" smooth="yes"/>
      <point x="801" y="337" type="line" smooth="yes"/>
      <point x="801" y="148"/>
      <point x="905" y="-25"/>
    </contour>
  </outline>
</glyph>
<glyph name="LtnCapIota" format="2">
  <advance width="840"/>
  <unicode hex="0196"/>
  <anchor x="448" y="-100" name="L"/>
  <anchor x="373" y="1500" name="U"/>
  <outline>
    <contour>
      <point x="840" y="270" type="curve"/>
      <point x="729" y="270" type="line"/>
      <point x="696" y="186"/>
      <point x="649" y="129"/>
      <point x="596" y="131" type="curve" smooth="yes"/>
      <point x="530" y="133"/>
      <point x="446" y="129"/>
      <point x="446" y="279" type="curve" smooth="yes"/>
      <point x="446" y="1374" type="line"/>
      <point x="57" y="1374" type="line"/>
      <point x="57" y="1286" type="line"/>
      <point x="186" y="1276" type="line" smooth="yes"/>
      <point x="215" y="1274"/>
      <point x="229" y="1253"/>
      <point x="229" y="1233" type="curve" smooth="yes"/>
      <point x="229" y="283" type="line" smooth="yes"/>
      <point x="229" y="-2"/>
      <point x="371" y="-33"/>
      <point x="496" y="-33" type="curve" smooth="yes"/>
      <point x="602" y="-33"/>
      <point x="780" y="59"/>
    </contour>
  </outline>
</glyph>
<glyph name="LtnCapKHook" format="2">
  <advance width="1307"/>
  <unicode hex="0198"/>
  <anchor x="746" y="-100" name="L"/>
  <anchor x="746" y="1500" name="U"/>
  <outline>
    <contour>
      <point x="1427" y="1266" type="curve" smooth="yes"/>
      <point x="1427" y="1329"/>
      <point x="1368" y="1407"/>
      <point x="1251" y="1407" type="curve" smooth="yes"/>
      <point x="1069" y="1407"/>
      <point x="977" y="1280"/>
      <point x="915" y="1204" type="curve" smooth="yes"/>
      <point x="498" y="696" type="line"/>
      <point x="424" y="696" type="line"/>
      <point x="424" y="1233" type="line" smooth="yes"/>
      <point x="424" y="1253"/>
      <point x="438" y="1274"/>
      <point x="467" y="1278" type="curve"/>
      <point x="584" y="1286" type="line"/>
      <point x="584" y="1374" type="line"/>
      <point x="66" y="1374" type="line"/>
      <point x="66" y="1286" type="line"/>
      <point x="174" y="1278" type="line"/>
      <point x="203" y="1274"/>
      <point x="217" y="1253"/>
      <point x="217" y="1233" type="curve" smooth="yes"/>
      <point x="217" y="141" type="line" smooth="yes"/>
      <point x="217" y="121"/>
      <point x="203" y="98"/>
      <point x="174" y="96" type="curve" smooth="yes"/>
      <point x="66" y="88" type="line"/>
      <point x="66" y="0" type="line"/>
      <point x="584" y="0" type="line"/>
      <point x="584" y="88" type="line"/>
      <point x="467" y="96" type="line" smooth="yes"/>
      <point x="438" y="98"/>
      <point x="424" y="121"/>
      <point x="424" y="141" type="curve" smooth="yes"/>
      <point x="424" y="610" type="line"/>
      <point x="567" y="610" type="line"/>
      <point x="946" y="63" type="line"/>
      <point x="946" y="0" type="line"/>
      <point x="1307" y="0" type="line"/>
      <point x="1307" y="88" type="line"/>
      <point x="1157" y="98" type="line"/>
      <point x="700" y="770" type="line"/>
      <point x="1044" y="1192" type="line" smooth="yes"/>
      <point x="1090" y="1245"/>
      <point x="1128" y="1280"/>
      <point x="1145" y="1288" type="curve"/>
      <point x="1331" y="1153" type="line"/>
      <point x="1346" y="1159"/>
      <point x="1427" y="1182"/>
    </contour>
  </outline>
</glyph>
<glyph name="LtnSmKHook" format="2">
  <advance width="1096"/>
  <unicode hex="0199"/>
  <anchor x="559" y="-100" name="L"/>
  <anchor x="559" y="1540" name="U"/>
  <outline>
    <contour>
      <point x="1075" y="0" type="line"/>
      <point x="1075" y="80" type="line"/>
      <point x="967" y="92" type="line"/>
      <point x="614" y="604" type="line"/>
      <point x="885" y="891" type="line"/>
      <point x="1016" y="907" type="line"/>
      <point x="1016" y="987" type="line"/>
      <point x="618" y="987" type="line"/>
      <point x="618" y="907" type="line"/>
      <point x="702" y="899" type="line" smooth="yes"/>
      <point x="721" y="897"/>
      <point x="731" y="874"/>
      <point x="721" y="862" type="curve" smooth="yes"/>
      <point x="418" y="524" type="line"/>
      <point x="375" y="524" type="line"/>
      <point x="375" y="1102" type="line" smooth="yes"/>
      <point x="375" y="1294"/>
      <point x="436" y="1378"/>
      <point x="496" y="1409" type="curve"/>
      <point x="684" y="1276" type="line"/>
      <point x="696" y="1280"/>
      <point x="778" y="1303"/>
      <point x="778" y="1386" type="curve" smooth="yes"/>
      <point x="778" y="1450"/>
      <point x="721" y="1509"/>
      <point x="602" y="1509" type="curve" smooth="yes"/>
      <point x="297" y="1509"/>
      <point x="184" y="1206"/>
      <point x="184" y="950" type="curve" smooth="yes"/>
      <point x="184" y="131" type="line" smooth="yes"/>
      <point x="184" y="109"/>
      <point x="168" y="90"/>
      <point x="143" y="88" type="curve" smooth="yes"/>
      <point x="43" y="80" type="line"/>
      <point x="43" y="0" type="line"/>
      <point x="508" y="0" type="line"/>
      <point x="508" y="80" type="line"/>
      <point x="418" y="88" type="line" smooth="yes"/>
      <point x="393" y="90"/>
      <point x="375" y="109"/>
      <point x="375" y="131" type="curve" smooth="yes"/>
      <point x="375" y="465" type="line"/>
      <point x="492" y="465" type="line"/>
      <point x="758" y="80" type="line"/>
      <point x="758" y="0" type="line"/>
    </contour>
  </outline>
</glyph>
<glyph name="LtnCapOMiddleTilde" format="2">
  <advance width="1497"/>
  <unicode hex="019F"/>
  <anchor x="748" y="-100" name="L"/>
  <anchor x="748" y="1500" name="U"/>
  <outline>
    <contour>
      <point x="1417" y="686" type="curve" smooth="yes"/>
      <point x="1417" y="1083"/>
      <point x="1153" y="1407"/>
      <point x="748" y="1407" type="curve" smooth="yes"/>
      <point x="340" y="1407"/>
      <point x="80" y="1087"/>
      <point x="80" y="688" type="curve" smooth="yes"/>
      <point x="80" y="276"/>
      <point x="348" y="-33"/>
      <point x="750" y="-33" type="curve" smooth="yes"/>
      <point x="1151" y="-33"/>
      <point x="1417" y="289"/>
    </contour>
    <contour>
      <point x="1180" y="739" type="curve"/>
      <point x="317" y="739" type="line"/>
      <point x="332" y="1042"/>
      <point x="469" y="1290"/>
      <point x="750" y="1290" type="curve" smooth="yes"/>
      <point x="1020" y="1290"/>
      <point x="1163" y="1049"/>
    </contour>
    <contour>
      <point x="1180" y="635" type="line"/>
      <point x="1165" y="332"/>
      <point x="1026" y="80"/>
      <point x="745" y="80" type="curve" smooth="yes"/>
      <point x="471" y="80"/>
      <point x="332" y="330"/>
      <point x="317" y="635" type="curve"/>
    </contour>
  </outline>
</glyph>
<glyph name="LtnSmOHorn" format="2">
  <advance width="1291"/>
  <unicode hex="01A1"/>
  <anchor x="554" y="-100" name="L"/>
  <anchor x="554" y="1100" name="U"/>
  <outline>
    <contour>
      <point x="1251" y="995" type="curve" smooth="yes"/>
      <point x="1251" y="1128"/>
      <point x="1182" y="1214"/>
      <point x="1081" y="1214" type="curve" smooth="yes"/>
      <point x="1010" y="1214"/>
      <point x="940" y="1169"/>
      <point x="940" y="1098" type="curve" smooth="yes"/>
      <point x="940" y="1040"/>
      <point x="985" y="987"/>
      <point x="985" y="987" type="curve"/>
      <point x="1130" y="987" type="line"/>
      <point x="1130" y="881"/>
      <point x="1047" y="811"/>
      <point x="983" y="766" type="curve"/>
      <point x="907" y="913"/>
      <point x="762" y="1012"/>
      <point x="561" y="1012" type="curve" smooth="yes"/>
      <point x="258" y="1012"/>
      <point x="70" y="784"/>
      <point x="70" y="492" type="curve" smooth="yes"/>
      <point x="70" y="197"/>
      <point x="256" y="-25"/>
      <point x="555" y="-25" type="curve" smooth="yes"/>
      <point x="854" y="-25"/>
      <point x="1044" y="201"/>
      <point x="1044" y="492" type="curve" smooth="yes"/>
      <point x="1044" y="565"/>
      <point x="1032" y="635"/>
      <point x="1012" y="698" type="curve"/>
      <point x="1108" y="754"/>
      <point x="1251" y="864"/>
    </contour>
    <contour>
      <point x="831" y="494" type="curve" smooth="yes"/>
      <point x="831" y="270"/>
      <point x="745" y="68"/>
      <point x="557" y="68" type="curve" smooth="yes"/>
      <point x="373" y="68"/>
      <point x="285" y="272"/>
      <point x="285" y="494" type="curve" smooth="yes"/>
      <point x="285" y="717"/>
      <point x="369" y="920"/>
      <point x="559" y="920" type="curve" smooth="yes"/>
      <point x="743" y="920"/>
      <point x="831" y="717"/>
    </contour>
  </outline>
</glyph>
<glyph name="LtnCapOi" format="2">
  <advance width="1838"/>
  <unicode hex="01A2"/>
  <anchor x="778" y="-100" name="L"/>
  <anchor x="947" y="1500" name="U"/>
  <outline>
    <contour>
      <point x="1814" y="-358" type="line"/>
      <point x="1689" y="-350" type="line" smooth="yes"/>
      <point x="1661" y="-348"/>
      <point x="1646" y="-325"/>
      <point x="1646" y="-305" type="curve" smooth="yes"/>
      <point x="1646" y="1407" type="line"/>
      <point x="1553" y="1407" type="line"/>
      <point x="1487" y="1347"/>
      <point x="1433" y="1322"/>
      <point x="1331" y="1322" type="curve" smooth="yes"/>
      <point x="1136" y="1322"/>
      <point x="1105" y="1407"/>
      <point x="748" y="1407" type="curve" smooth="yes"/>
      <point x="340" y="1407"/>
      <point x="80" y="1087"/>
      <point x="80" y="688" type="curve" smooth="yes"/>
      <point x="80" y="309"/>
      <point x="338" y="-33"/>
      <point x="775" y="-33" type="curve" smooth="yes"/>
      <point x="1060" y="-33"/>
      <point x="1225" y="133"/>
      <point x="1225" y="329" type="curve" smooth="yes"/>
      <point x="1225" y="1160" type="line"/>
      <point x="1280" y="1151"/>
      <point x="1386" y="1155"/>
      <point x="1439" y="1167" type="curve"/>
      <point x="1439" y="-305" type="line" smooth="yes"/>
      <point x="1439" y="-325"/>
      <point x="1425" y="-348"/>
      <point x="1396" y="-350" type="curve" smooth="yes"/>
      <point x="1274" y="-358" type="line"/>
      <point x="1274" y="-446" type="line"/>
      <point x="1814" y="-446" type="line"/>
    </contour>
    <contour>
      <point x="1018" y="364" type="line"/>
      <point x="1018" y="143"/>
      <point x="928" y="82"/>
      <point x="779" y="82" type="curve" smooth="yes"/>
      <point x="518" y="82"/>
      <point x="315" y="295"/>
      <point x="315" y="688" type="curve" smooth="yes"/>
      <point x="315" y="1014"/>
      <point x="453" y="1290"/>
      <point x="750" y="1290" type="curve" smooth="yes"/>
      <point x="863" y="1290"/>
      <point x="908" y="1279"/>
      <point x="1018" y="1219" type="curve"/>
    </contour>
  </outline>
</glyph>
<glyph name="LtnSmTHook" format="1">
  <advance width="696"/>
  <unicode hex="01AD"/>
  <outline>
    <contour>
      <point x="745" y="1384" type="curve" smooth="yes"/>
      <point x="745" y="1450"/>
      <point x="686" y="1509"/>
      <point x="569" y="1509" type="curve" smooth="yes"/>
      <point x="262" y="1509"/>
      <point x="186" y="1274"/>
      <point x="186" y="1018" type="curve"/>
      <point x="55" y="952" type="line"/>
      <point x="55" y="885" type="line"/>
      <point x="186" y="885" type="line"/>
      <point x="186" y="205" type="line" smooth="yes"/>
      <point x="186" y="43"/>
      <point x="252" y="-25"/>
      <point x="406" y="-25" type="curve" smooth="yes"/>
      <point x="553" y="-25"/>
      <point x="682" y="43"/>
      <point x="682" y="43" type="curve"/>
      <point x="682" y="125" type="line"/>
      <point x="682" y="125"/>
      <point x="621" y="90"/>
      <point x="541" y="90" type="curve" smooth="yes"/>
      <point x="432" y="90"/>
      <point x="377" y="150"/>
      <point x="377" y="313" type="curve" smooth="yes"/>
      <point x="377" y="885" type="line"/>
      <point x="666" y="885" type="line"/>
      <point x="666" y="987" type="line"/>
      <point x="377" y="987" type="line"/>
      <point x="377" y="1153" type="line" smooth="yes"/>
      <point x="377" y="1278"/>
      <point x="403" y="1380"/>
      <point x="463" y="1411" type="curve"/>
      <point x="651" y="1276" type="line"/>
      <point x="666" y="1280"/>
      <point x="745" y="1303"/>
    </contour>
    <contour>
      <point x="400" y="1540" type="move" name="U"/>
    </contour>
    <contour>
      <point x="400" y="-100" type="move" name="L"/>
    </contour>
  </outline>
</glyph>
<glyph name="LtnCapUHorn" format="2">
  <advance width="1693"/>
  <unicode hex="01AF"/>
  <anchor x="750" y="-100" name="L"/>
  <anchor x="750" y="1500" name="U"/>
  <outline>
    <contour>
      <point x="1663" y="1511" type="curve" smooth="yes"/>
      <point x="1663" y="1679"/>
      <point x="1554" y="1788"/>
      <point x="1427" y="1788" type="curve" smooth="yes"/>
      <point x="1329" y="1788"/>
      <point x="1264" y="1720"/>
      <point x="1264" y="1640" type="curve" smooth="yes"/>
      <point x="1264" y="1569"/>
      <point x="1319" y="1503"/>
      <point x="1319" y="1503" type="curve"/>
      <point x="1509" y="1503" type="line"/>
      <point x="1509" y="1288"/>
      <point x="1434" y="1157"/>
      <point x="1241" y="1077" type="curve"/>
      <point x="1241" y="1233" type="line" smooth="yes"/>
      <point x="1241" y="1253"/>
      <point x="1255" y="1276"/>
      <point x="1284" y="1278" type="curve" smooth="yes"/>
      <point x="1382" y="1286" type="line"/>
      <point x="1382" y="1374" type="line"/>
      <point x="979" y="1374" type="line"/>
      <point x="979" y="1286" type="line"/>
      <point x="1075" y="1278" type="line" smooth="yes"/>
      <point x="1104" y="1276"/>
      <point x="1120" y="1253"/>
      <point x="1120" y="1233" type="curve" smooth="yes"/>
      <point x="1120" y="508" type="line" smooth="yes"/>
      <point x="1120" y="281"/>
      <point x="1053" y="104"/>
      <point x="770" y="104" type="curve" smooth="yes"/>
      <point x="485" y="104"/>
      <point x="424" y="268"/>
      <point x="424" y="508" type="curve" smooth="yes"/>
      <point x="424" y="1233" type="line" smooth="yes"/>
      <point x="424" y="1253"/>
      <point x="438" y="1276"/>
      <point x="467" y="1278" type="curve" smooth="yes"/>
      <point x="584" y="1286" type="line"/>
      <point x="584" y="1374" type="line"/>
      <point x="63" y="1374" type="line"/>
      <point x="63" y="1286" type="line"/>
      <point x="172" y="1278" type="line" smooth="yes"/>
      <point x="201" y="1276"/>
      <point x="215" y="1253"/>
      <point x="215" y="1233" type="curve" smooth="yes"/>
      <point x="215" y="455" type="line" smooth="yes"/>
      <point x="215" y="133"/>
      <point x="377" y="-33"/>
      <point x="715" y="-33" type="curve" smooth="yes"/>
      <point x="1057" y="-33"/>
      <point x="1241" y="119"/>
      <point x="1241" y="455" type="curve" smooth="yes"/>
      <point x="1241" y="987" type="line"/>
      <point x="1487" y="1065"/>
      <point x="1663" y="1255"/>
    </contour>
  </outline>
</glyph>
<glyph name="LtnCapEzh" format="2">
  <advance width="1251"/>
  <unicode hex="01B7"/>
  <anchor x="607" y="-500" name="L"/>
  <anchor x="607" y="1500" name="U"/>
  <outline>
    <contour>
      <point x="530" y="-469" type="curve" smooth="yes"/>
      <point x="872" y="-469"/>
      <point x="1171" y="-205"/>
      <point x="1171" y="111" type="curve" smooth="yes"/>
      <point x="1171" y="387"/>
      <point x="911" y="614"/>
      <point x="623" y="614" type="curve"/>
      <point x="1108" y="1227" type="line"/>
      <point x="1108" y="1374" type="line"/>
      <point x="133" y="1374" type="line"/>
      <point x="133" y="924" type="line"/>
      <point x="250" y="924" type="line"/>
      <point x="272" y="1124" type="line" smooth="yes"/>
      <point x="274" y="1147"/>
      <point x="297" y="1180"/>
      <point x="319" y="1180" type="curve" smooth="yes"/>
      <point x="901" y="1180" type="line"/>
      <point x="399" y="555" type="line"/>
      <point x="463" y="483" type="line"/>
      <point x="475" y="494"/>
      <point x="500" y="512"/>
      <point x="553" y="512" type="curve" smooth="yes"/>
      <point x="702" y="512"/>
      <point x="936" y="373"/>
      <point x="936" y="113" type="curve" smooth="yes"/>
      <point x="936" y="-96"/>
      <point x="754" y="-354"/>
      <point x="532" y="-354" type="curve" smooth="yes"/>
      <point x="457" y="-354"/>
      <point x="395" y="-319"/>
      <point x="334" y="-283" type="curve"/>
      <point x="260" y="-41" type="line"/>
      <point x="242" y="-27"/>
      <point x="203" y="-20"/>
      <point x="182" y="-20" type="curve" smooth="yes"/>
      <point x="88" y="-20"/>
      <point x="43" y="-102"/>
      <point x="43" y="-174" type="curve" smooth="yes"/>
      <point x="43" y="-301"/>
      <point x="213" y="-469"/>
    </contour>
  </outline>
</glyph>
<glyph name="LtnCapEzhRev" format="2">
  <advance width="1253"/>
  <unicode hex="01B8"/>
  <anchor x="630" y="-500" name="L"/>
  <anchor x="630" y="1500" name="U"/>
  <outline>
    <contour>
      <point x="707" y="-469" type="curve" smooth="yes"/>
      <point x="1024" y="-469"/>
      <point x="1194" y="-301"/>
      <point x="1194" y="-174" type="curve"/>
      <point x="1194" y="-102"/>
      <point x="1149" y="-20"/>
      <point x="1055" y="-20" type="curve" smooth="yes"/>
      <point x="1034" y="-20"/>
      <point x="995" y="-27"/>
      <point x="977" y="-41" type="curve"/>
      <point x="903" y="-283" type="line"/>
      <point x="842" y="-319"/>
      <point x="780" y="-354"/>
      <point x="705" y="-354" type="curve" smooth="yes"/>
      <point x="483" y="-354"/>
      <point x="301" y="-113"/>
      <point x="301" y="104" type="curve" smooth="yes"/>
      <point x="301" y="393"/>
      <point x="535" y="512"/>
      <point x="684" y="512" type="curve" smooth="yes"/>
      <point x="737" y="512"/>
      <point x="762" y="494"/>
      <point x="774" y="483" type="curve"/>
      <point x="838" y="555" type="line"/>
      <point x="336" y="1180" type="line"/>
      <point x="918" y="1180" type="line" smooth="yes"/>
      <point x="940" y="1180"/>
      <point x="963" y="1147"/>
      <point x="965" y="1124" type="curve" smooth="yes"/>
      <point x="987" y="924" type="line"/>
      <point x="1104" y="924" type="line"/>
      <point x="1104" y="1374" type="line"/>
      <point x="129" y="1374" type="line"/>
      <point x="129" y="1227" type="line"/>
      <point x="614" y="614" type="line"/>
      <point x="326" y="614"/>
      <point x="66" y="367"/>
      <point x="66" y="91" type="curve" smooth="yes"/>
      <point x="66" y="-225"/>
      <point x="365" y="-469"/>
    </contour>
  </outline>
</glyph>
<glyph name="LtnAlveolarClick" format="1">
  <advance width="853"/>
  <unicode hex="01C2"/>
  <outline>
    <contour>
      <point x="50" y="619" type="line"/>
      <point x="803" y="619" type="line"/>
      <point x="803" y="723" type="line"/>
      <point x="50" y="723" type="line"/>
    </contour>
    <contour>
      <point x="50" y="343" type="line"/>
      <point x="803" y="343" type="line"/>
      <point x="803" y="447" type="line"/>
      <point x="50" y="447" type="line"/>
    </contour>
    <component base="LtnDentalClick" xOffset="200"/>
    <contour>
      <point x="426" y="-500" type="move" name="L"/>
    </contour>
    <contour>
      <point x="426" y="1540" type="move" name="U"/>
    </contour>
  </outline>
</glyph>
<glyph name="LtnCapDzCaron" format="1">
  <advance width="2603"/>
  <unicode hex="01C4"/>
  <outline>
    <component base="LtnCapD"/>
    <component base="LtnCapZ" xOffset="1425"/>
    <component base="CombCaron" xOffset="2592" yOffset="400"/>
    <contour>
      <point x="2035" y="1900" type="move" name="U"/>
    </contour>
    <contour>
      <point x="2035" y="-100" type="move" name="L"/>
    </contour>
  </outline>
</glyph>
<glyph name="LtnCapDSmZCaron" format="1">
  <advance width="2371"/>
  <unicode hex="01C5"/>
  <outline>
    <component base="LtnCapD"/>
    <component base="LtnSmZ" xOffset="1425"/>
    <component base="CombCaron" xOffset="2465"/>
    <contour>
      <point x="1908" y="0" type="move" name="H"/>
    </contour>
    <contour>
      <point x="1908" y="-100" type="move" name="L"/>
    </contour>
    <contour>
      <point x="1908" y="1500" type="move" name="U"/>
    </contour>
  </outline>
</glyph>
<glyph name="LtnSmDzCaron" format="1">
  <advance width="2101"/>
  <unicode hex="01C6"/>
  <outline>
    <component base="LtnSmD"/>
    <component base="LtnSmZ" xOffset="1155"/>
    <component base="CombCaron" xOffset="2195"/>
    <contour>
      <point x="1638" y="0" type="move" name="H"/>
    </contour>
    <contour>
      <point x="1638" y="-100" type="move" name="L"/>
    </contour>
    <contour>
      <point x="1638" y="1500" type="move" name="U"/>
    </contour>
  </outline>
</glyph>
<glyph name="LtnCapLj" format="1">
  <advance width="2080"/>
  <unicode hex="01C7"/>
  <outline>
    <component base="LtnCapL"/>
    <component base="LtnCapJ" xOffset="1087"/>
    <contour>
      <point x="553" y="0" type="move" name="H"/>
    </contour>
    <contour>
      <point x="1497" y="-100" type="move" name="L"/>
    </contour>
    <contour>
      <point x="1762" y="1500" type="move" name="U"/>
    </contour>
  </outline>
</glyph>
<glyph name="LtnCapLSmJ" format="1">
  <advance width="1685"/>
  <unicode hex="01C8"/>
  <outline>
    <component base="LtnCapL"/>
    <component base="LtnSmJ" xOffset="1087"/>
    <contour>
      <point x="1415" y="1500" type="move" name="U"/>
    </contour>
    <contour>
      <point x="553" y="0" type="move" name="H"/>
    </contour>
    <contour>
      <point x="1224" y="-500" type="move" name="L"/>
    </contour>
  </outline>
</glyph>
<glyph name="LtnSmLj" format="1">
  <advance width="1206"/>
  <unicode hex="01C9"/>
  <outline>
    <component base="LtnSmL"/>
    <component base="LtnSmJ" xOffset="608"/>
    <contour>
      <point x="303" y="0" type="move" name="H"/>
    </contour>
    <contour>
      <point x="745" y="-500" type="move" name="L"/>
    </contour>
    <contour>
      <point x="936" y="1500" type="move" name="U"/>
    </contour>
  </outline>
</glyph>
<glyph name="LtnCapNj" format="1">
  <advance width="2470"/>
  <unicode hex="01CA"/>
  <outline>
    <component base="LtnCapN"/>
    <component base="LtnCapJ" xOffset="1477"/>
    <contour>
      <point x="1180" y="0" type="move" name="H"/>
    </contour>
    <contour>
      <point x="1887" y="-100" type="move" name="L"/>
    </contour>
    <contour>
      <point x="2152" y="1500" type="move" name="U"/>
    </contour>
  </outline>
</glyph>
<glyph name="LtnCapNSmJ" format="1">
  <advance width="2075"/>
  <unicode hex="01CB"/>
  <outline>
    <component base="LtnCapN"/>
    <component base="LtnSmJ" xOffset="1477"/>
    <contour>
      <point x="734" y="0" type="move" name="H"/>
    </contour>
    <contour>
      <point x="1614" y="-500" type="move" name="L"/>
    </contour>
    <contour>
      <point x="1805" y="1500" type="move" name="U"/>
    </contour>
  </outline>
</glyph>
<glyph name="LtnSmNj" format="1">
  <advance width="1759"/>
  <unicode hex="01CC"/>
  <outline>
    <component base="LtnSmN" xOffset="-43"/>
    <component base="LtnSmJ" xOffset="1161"/>
    <contour>
      <point x="1298" y="-500" type="move" name="L"/>
    </contour>
    <contour>
      <point x="1489" y="1500" type="move" name="U"/>
    </contour>
    <contour>
      <point x="873" y="0" type="move" name="H"/>
    </contour>
  </outline>
</glyph>
<glyph name="LtnCapACaron" format="1">
  <advance width="1380"/>
  <unicode hex="01CD"/>
  <outline>
    <component base="LtnCapA"/>
    <component base="CombCaron" xOffset="1240" yOffset="400"/>
    <contour>
      <point x="683" y="0" type="move" name="H"/>
    </contour>
    <contour>
      <point x="683" y="-100" type="move" name="L"/>
    </contour>
    <contour>
      <point x="1267" y="0" type="move" name="O"/>
    </contour>
    <contour>
      <point x="683" y="1900" type="move" name="U"/>
    </contour>
  </outline>
</glyph>
<glyph name="LtnSmOCaron" format="1">
  <advance width="1114"/>
  <unicode hex="01D2"/>
  <outline>
    <component base="LtnSmO"/>
    <component base="CombCaron" xOffset="1114"/>
    <contour>
      <point x="557" y="0" type="move" name="H"/>
    </contour>
    <contour>
      <point x="557" y="-100" type="move" name="L"/>
    </contour>
    <contour>
      <point x="838" y="0" type="move" name="O"/>
    </contour>
    <contour>
      <point x="1114" y="1000" type="move" name="R"/>
    </contour>
    <contour>
      <point x="557" y="1500" type="move" name="U"/>
    </contour>
  </outline>
</glyph>
<glyph name="LtnSmUDiaerMacron" format="1">
  <advance width="1165"/>
  <unicode hex="01D6"/>
  <outline>
    <component base="LtnSmU"/>
    <component base="CombDiaer" xOffset="1137"/>
    <component base="CombMacron" xOffset="1137" yOffset="400"/>
    <contour>
      <point x="580" y="0" type="move" name="H"/>
    </contour>
    <contour>
      <point x="580" y="-100" type="move" name="L"/>
    </contour>
    <contour>
      <point x="1060" y="0" type="move" name="O"/>
    </contour>
    <contour>
      <point x="1160" y="1000" type="move" name="R"/>
    </contour>
    <contour>
      <point x="580" y="1870" type="move" name="U"/>
    </contour>
  </outline>
</glyph>
<glyph name="LtnCapUDiaerGrave" format="1">
  <advance width="1458"/>
  <unicode hex="01DB"/>
  <outline>
    <component base="LtnCapU"/>
    <component base="CombDiaer" xOffset="1307" yOffset="400"/>
    <component base="CombGrave" xOffset="1307" yOffset="800"/>
    <contour>
      <point x="733" y="0" type="move" name="H"/>
    </contour>
    <contour>
      <point x="750" y="-100" type="move" name="L"/>
    </contour>
    <contour>
      <point x="1045" y="0" type="move" name="O"/>
    </contour>
    <contour>
      <point x="1508" y="1350" type="move" name="R"/>
    </contour>
    <contour>
      <point x="750" y="2300" type="move" name="U"/>
    </contour>
  </outline>
</glyph>
<glyph name="LtnSmADiaerMacron" format="1">
  <advance width="1042"/>
  <unicode hex="01DF"/>
  <outline>
    <component base="LtnSmA"/>
    <component base="CombDiaer" xOffset="1067"/>
    <component base="CombMacron" xOffset="1067" yOffset="400"/>
    <contour>
      <point x="510" y="1870" type="move" name="U"/>
    </contour>
    <contour>
      <point x="904" y="0" type="move" name="O"/>
    </contour>
    <contour>
      <point x="1042" y="1000" type="move" name="R"/>
    </contour>
    <contour>
      <point x="510" y="-100" type="move" name="L"/>
    </contour>
    <contour>
      <point x="761" y="0" type="move" name="H"/>
    </contour>
  </outline>
</glyph>
<glyph name="LtnCapADotAbvMacron" format="1">
  <advance width="1380"/>
  <unicode hex="01E0"/>
  <outline>
    <component base="LtnCapA"/>
    <component base="CombMacron" xOffset="1240" yOffset="800"/>
    <component base="DotAbv" xOffset="569" yOffset="400"/>
    <contour>
      <point x="1109" y="0" type="move" name="H"/>
    </contour>
    <contour>
      <point x="683" y="-100" type="move" name="L"/>
    </contour>
    <contour>
      <point x="683" y="2305" type="move" name="U"/>
    </contour>
    <contour>
      <point x="1267" y="0" type="move" name="O"/>
    </contour>
  </outline>
</glyph>
<glyph name="LtnSmADotAbvMacron" format="1">
  <advance width="1042"/>
  <unicode hex="01E1"/>
  <outline>
    <component base="LtnSmA"/>
    <component base="CombMacron" xOffset="1067" yOffset="400"/>
    <component base="DotAbv" xOffset="396"/>
    <contour>
      <point x="904" y="0" type="move" name="O"/>
    </contour>
    <contour>
      <point x="1042" y="1000" type="move" name="R"/>
    </contour>
    <contour>
      <point x="510" y="1905" type="move" name="U"/>
    </contour>
    <contour>
      <point x="761" y="0" type="move" name="H"/>
    </contour>
    <contour>
      <point x="510" y="-100" type="move" name="L"/>
    </contour>
  </outline>
</glyph>
<glyph name="LtnCapAeMacron" format="1">
  <advance width="1911"/>
  <unicode hex="01E2"/>
  <outline>
    <component base="LtnCapAe"/>
    <component base="CombMacron" xOffset="1657" yOffset="400"/>
    <contour>
      <point x="1100" y="1870" type="move" name="U"/>
    </contour>
    <contour>
      <point x="1100" y="-100" type="move" name="L"/>
    </contour>
  </outline>
</glyph>
<glyph name="LtnSmAeMacron" format="1">
  <advance width="1477"/>
  <unicode hex="01E3"/>
  <outline>
    <component base="LtnSmAe"/>
    <component base="CombMacron" xOffset="1327"/>
    <contour>
      <point x="770" y="1500" type="move" name="U"/>
    </contour>
    <contour>
      <point x="792" y="0" type="move" name="O"/>
    </contour>
    <contour>
      <point x="1477" y="1000" type="move" name="R"/>
    </contour>
    <contour>
      <point x="770" y="0" type="move" name="H"/>
    </contour>
    <contour>
      <point x="770" y="-100" type="move" name="L"/>
    </contour>
  </outline>
</glyph>
<glyph name="LtnCapGStrk" format="2">
  <advance width="1423"/>
  <unicode hex="01E4"/>
  <anchor x="733" y="-100" name="L"/>
  <anchor x="733" y="1500" name="U"/>
  <outline>
    <contour>
      <point x="795" y="-33" type="curve" smooth="yes"/>
      <point x="1016" y="-33"/>
      <point x="1225" y="49"/>
      <point x="1225" y="49" type="curve"/>
      <point x="1225" y="522" type="line" smooth="yes"/>
      <point x="1225" y="543"/>
      <point x="1239" y="563"/>
      <point x="1268" y="565" type="curve"/>
      <point x="1372" y="575" type="line"/>
      <point x="1372" y="664" type="line"/>
      <point x="838" y="664" type="line"/>
      <point x="838" y="575" type="line"/>
      <point x="975" y="565" type="line" smooth="yes"/>
      <point x="1004" y="563"/>
      <point x="1018" y="543"/>
      <point x="1018" y="522" type="curve" smooth="yes"/>
      <point x="1018" y="113" type="line"/>
      <point x="1008" y="113"/>
      <point x="928" y="82"/>
      <point x="838" y="82" type="curve" smooth="yes"/>
      <point x="518" y="82"/>
      <point x="313" y="307"/>
      <point x="313" y="700" type="curve" smooth="yes"/>
      <point x="313" y="1081"/>
      <point x="518" y="1292"/>
      <point x="813" y="1292" type="curve" smooth="yes"/>
      <point x="909" y="1292"/>
      <point x="987" y="1255"/>
      <point x="1026" y="1239" type="curve" smooth="yes"/>
      <point x="1044" y="1231"/>
      <point x="1063" y="1214"/>
      <point x="1067" y="1190" type="curve" smooth="yes"/>
      <point x="1100" y="1006" type="line"/>
      <point x="1223" y="1006" type="line"/>
      <point x="1223" y="1337" type="line"/>
      <point x="1098" y="1370"/>
      <point x="975" y="1407"/>
      <point x="821" y="1407" type="curve" smooth="yes"/>
      <point x="362" y="1407"/>
      <point x="80" y="1120"/>
      <point x="80" y="690" type="curve" smooth="yes"/>
      <point x="80" y="311"/>
      <point x="338" y="-33"/>
    </contour>
    <contour>
      <point x="738" y="295" type="line"/>
      <point x="1387" y="295" type="line"/>
      <point x="1387" y="393" type="line"/>
      <point x="738" y="393" type="line"/>
    </contour>
  </outline>
</glyph>
<glyph name="LtnSmGStrk" format="2">
  <advance width="1075"/>
  <unicode hex="01E5"/>
  <anchor x="546" y="-500" name="L"/>
  <anchor x="546" y="1100" name="U"/>
  <outline>
    <contour>
      <point x="1065" y="850" type="line"/>
      <point x="1065" y="950" type="line"/>
      <point x="789" y="950" type="line"/>
      <point x="736" y="975"/>
      <point x="648" y="1012"/>
      <point x="551" y="1012" type="curve" smooth="yes"/>
      <point x="306" y="1012"/>
      <point x="140" y="879"/>
      <point x="140" y="664" type="curve" smooth="yes"/>
      <point x="140" y="498"/>
      <point x="258" y="387"/>
      <point x="394" y="356" type="curve"/>
      <point x="322" y="283"/>
      <point x="291" y="217"/>
      <point x="291" y="164" type="curve" smooth="yes"/>
      <point x="291" y="119"/>
      <point x="297" y="113"/>
      <point x="312" y="70" type="curve"/>
      <point x="164" y="43"/>
      <point x="95" y="-59"/>
      <point x="95" y="-178" type="curve" smooth="yes"/>
      <point x="95" y="-344"/>
      <point x="236" y="-469"/>
      <point x="480" y="-469" type="curve" smooth="yes"/>
      <point x="777" y="-469"/>
      <point x="1012" y="-276"/>
      <point x="1012" y="-82" type="curve" smooth="yes"/>
      <point x="1012" y="162"/>
      <point x="641" y="186"/>
      <point x="457" y="205" type="curve"/>
      <point x="455" y="211"/>
      <point x="441" y="289"/>
      <point x="474" y="342" type="curve"/>
      <point x="703" y="326"/>
      <point x="916" y="449"/>
      <point x="916" y="666" type="curve" smooth="yes"/>
      <point x="916" y="745"/>
      <point x="891" y="801"/>
      <point x="861" y="850" type="curve"/>
    </contour>
    <contour>
      <point x="721" y="678" type="curve" smooth="yes"/>
      <point x="721" y="539"/>
      <point x="654" y="426"/>
      <point x="531" y="426" type="curve" smooth="yes"/>
      <point x="402" y="426"/>
      <point x="336" y="539"/>
      <point x="336" y="676" type="curve" smooth="yes"/>
      <point x="336" y="834"/>
      <point x="416" y="928"/>
      <point x="531" y="928" type="curve" smooth="yes"/>
      <point x="654" y="928"/>
      <point x="721" y="807"/>
    </contour>
    <contour>
      <point x="836" y="-137" type="curve" smooth="yes"/>
      <point x="836" y="-236"/>
      <point x="742" y="-375"/>
      <point x="547" y="-375" type="curve" smooth="yes"/>
      <point x="363" y="-375"/>
      <point x="279" y="-236"/>
      <point x="279" y="-137" type="curve" smooth="yes"/>
      <point x="279" y="-70"/>
      <point x="316" y="12"/>
      <point x="435" y="55" type="curve"/>
      <point x="557" y="31"/>
      <point x="836" y="33"/>
    </contour>
    <contour>
      <point x="1077" y="-213" type="line"/>
      <point x="1077" y="-110" type="line"/>
      <point x="15" y="-110" type="line"/>
      <point x="15" y="-213" type="line"/>
    </contour>
  </outline>
</glyph>
<glyph name="LtnSmGCaron" format="1">
  <advance width="1075"/>
  <unicode hex="01E7"/>
  <outline>
    <component base="LtnSmG"/>
    <component base="CombCaron" xOffset="1062"/>
    <contour>
      <point x="505" y="-432" type="move" name="H"/>
    </contour>
    <contour>
      <point x="505" y="-500" type="move" name="L"/>
    </contour>
    <contour>
      <point x="1075" y="1000" type="move" name="R"/>
    </contour>
    <contour>
      <point x="505" y="1500" type="move" name="U"/>
    </contour>
  </outline>
</glyph>
<glyph name="LtnCapKCaron" format="1">
  <advance width="1307"/>
  <unicode hex="01E8"/>
  <outline>
    <component base="LtnCapK"/>
    <component base="CombCaron" xOffset="1243" yOffset="400"/>
    <contour>
      <point x="320" y="0" type="move" name="H"/>
    </contour>
    <contour>
      <point x="686" y="1900" type="move" name="U"/>
    </contour>
    <contour>
      <point x="686" y="-100" type="move" name="L"/>
    </contour>
  </outline>
</glyph>
<glyph name="LtnCapOOgonekMacron" format="1">
  <advance width="1497"/>
  <unicode hex="01EC"/>
  <outline>
    <component base="LtnCapO"/>
    <component base="CombMacron" xOffset="1305" yOffset="400"/>
    <component base="CombOgonek" xOffset="1336"/>
    <contour>
      <point x="748" y="0" type="move" name="H"/>
    </contour>
    <contour>
      <point x="1487" y="1350" type="move" name="R"/>
    </contour>
    <contour>
      <point x="748" y="1870" type="move" name="U"/>
    </contour>
    <contour>
      <point x="721" y="-500" type="move" name="L"/>
    </contour>
  </outline>
</glyph>
<glyph name="LtnSmOOgonekMacron" format="1">
  <advance width="1114"/>
  <unicode hex="01ED"/>
  <outline>
    <contour>
      <point x="871" y="-334" type="curve"/>
      <point x="822" y="-252" type="line"/>
      <point x="822" y="-252"/>
      <point x="769" y="-289"/>
      <point x="738" y="-289" type="curve" smooth="yes"/>
      <point x="664" y="-289"/>
      <point x="619" y="-256"/>
      <point x="619" y="-188" type="curve" smooth="yes"/>
      <point x="619" y="-102"/>
      <point x="691" y="-24"/>
      <point x="803" y="38" type="curve"/>
      <point x="671" y="21" type="line"/>
      <point x="610" y="-9"/>
      <point x="490" y="-127"/>
      <point x="490" y="-242" type="curve" smooth="yes"/>
      <point x="490" y="-340"/>
      <point x="568" y="-391"/>
      <point x="695" y="-391" type="curve" smooth="yes"/>
      <point x="756" y="-391"/>
      <point x="871" y="-334"/>
    </contour>
    <component base="LtnSmO"/>
    <component base="CombMacron" xOffset="1114"/>
    <contour>
      <point x="557" y="0" type="move" name="H"/>
    </contour>
    <contour>
      <point x="1114" y="1000" type="move" name="R"/>
    </contour>
    <contour>
      <point x="557" y="1470" type="move" name="U"/>
    </contour>
    <contour>
      <point x="622" y="-400" type="move" name="L"/>
    </contour>
  </outline>
</glyph>
<glyph name="LtnCapEzhCaron" format="1">
  <advance width="1251"/>
  <unicode hex="01EE"/>
  <outline>
    <component base="LtnCapEzh"/>
    <component base="CombCaron" xOffset="1164" yOffset="400"/>
    <contour>
      <point x="607" y="-500" type="move" name="L"/>
    </contour>
    <contour>
      <point x="607" y="1900" type="move" name="U"/>
    </contour>
  </outline>
</glyph>
<glyph name="LtnSmJCaron" format="1">
  <advance width="598"/>
  <unicode hex="01F0"/>
  <outline>
    <component base="LtnSmJ.Dotless"/>
    <component base="CombCaron" xOffset="881"/>
    <contour>
      <point x="324" y="1500" type="move" name="U"/>
    </contour>
    <contour>
      <point x="126" y="-500" type="move" name="L"/>
    </contour>
  </outline>
</glyph>
<glyph name="LtnCapHwair" format="2">
  <advance width="2072"/>
  <unicode hex="01F6"/>
  <anchor x="990" y="-100" name="L"/>
  <anchor x="990" y="1500" name="U"/>
  <outline>
    <contour>
      <point x="1914" y="1012" type="line"/>
      <point x="1830" y="1012" type="line"/>
      <point x="1580" y="932" type="line"/>
      <point x="1580" y="862" type="line"/>
      <point x="1724" y="862" type="line"/>
      <point x="1724" y="360" type="line"/>
      <point x="1724" y="156"/>
      <point x="1633" y="85"/>
      <point x="1523" y="85" type="curve" smooth="yes"/>
      <point x="1398" y="85"/>
      <point x="1305" y="156"/>
      <point x="1305" y="360" type="curve" smooth="yes"/>
      <point x="1305" y="1233" type="line" smooth="yes"/>
      <point x="1305" y="1253"/>
      <point x="1321" y="1274"/>
      <point x="1350" y="1276" type="curve" smooth="yes"/>
      <point x="1456" y="1284" type="line"/>
      <point x="1456" y="1374" type="line"/>
      <point x="938" y="1374" type="line"/>
      <point x="938" y="1284" type="line"/>
      <point x="1055" y="1276" type="line" smooth="yes"/>
      <point x="1083" y="1274"/>
      <point x="1098" y="1253"/>
      <point x="1098" y="1233" type="curve" smooth="yes"/>
      <point x="1098" y="772" type="line"/>
      <point x="424" y="772" type="line"/>
      <point x="424" y="1233" type="line" smooth="yes"/>
      <point x="424" y="1253"/>
      <point x="438" y="1274"/>
      <point x="467" y="1276" type="curve" smooth="yes"/>
      <point x="584" y="1284" type="line"/>
      <point x="584" y="1374" type="line"/>
      <point x="66" y="1374" type="line"/>
      <point x="66" y="1284" type="line"/>
      <point x="172" y="1276" type="line" smooth="yes"/>
      <point x="201" y="1274"/>
      <point x="217" y="1253"/>
      <point x="217" y="1233" type="curve" smooth="yes"/>
      <point x="217" y="141" type="line" smooth="yes"/>
      <point x="217" y="121"/>
      <point x="201" y="98"/>
      <point x="172" y="96" type="curve" smooth="yes"/>
      <point x="66" y="88" type="line"/>
      <point x="66" y="0" type="line"/>
      <point x="584" y="0" type="line"/>
      <point x="584" y="88" type="line"/>
      <point x="467" y="96" type="line" smooth="yes"/>
      <point x="438" y="98"/>
      <point x="424" y="121"/>
      <point x="424" y="141" type="curve" smooth="yes"/>
      <point x="424" y="670" type="line"/>
      <point x="1098" y="670" type="line"/>
      <point x="1098" y="350" type="line" smooth="yes"/>
      <point x="1098" y="84"/>
      <point x="1234" y="-33"/>
      <point x="1484" y="-33" type="curve" smooth="yes"/>
      <point x="1772" y="-33"/>
      <point x="1914" y="97"/>
      <point x="1914" y="351" type="curve" smooth="yes"/>
    </contour>
  </outline>
</glyph>
<glyph name="LtnCapWynn" format="2">
  <advance width="1194"/>
  <unicode hex="01F7"/>
  <anchor x="591" y="-100" name="L"/>
  <anchor x="591" y="1500" name="U"/>
  <outline>
    <contour>
      <point x="55" y="-446" type="line"/>
      <point x="570" y="-446" type="line"/>
      <point x="570" y="-366" type="line"/>
      <point x="459" y="-360" type="line"/>
      <point x="441" y="-360"/>
      <point x="416" y="-335"/>
      <point x="416" y="-317" type="curve" smooth="yes"/>
      <point x="416" y="50" type="line"/>
      <point x="732" y="291"/>
      <point x="1130" y="614"/>
      <point x="1130" y="1039" type="curve" smooth="yes"/>
      <point x="1130" y="1220"/>
      <point x="1039" y="1407"/>
      <point x="810" y="1407" type="curve" smooth="yes"/>
      <point x="650" y="1407"/>
      <point x="510" y="1314"/>
      <point x="416" y="1209" type="curve"/>
      <point x="416" y="1374" type="line"/>
      <point x="315" y="1374" type="line"/>
      <point x="53" y="1295" type="line"/>
      <point x="53" y="1227" type="line"/>
      <point x="209" y="1227" type="line"/>
      <point x="209" y="-317" type="line" smooth="yes"/>
      <point x="209" y="-335"/>
      <point x="182" y="-360"/>
      <point x="164" y="-360" type="curve"/>
      <point x="55" y="-366" type="line"/>
    </contour>
    <contour>
      <point x="416" y="191" type="curve"/>
      <point x="416" y="1041" type="line"/>
      <point x="504" y="1162"/>
      <point x="630" y="1272"/>
      <point x="748" y="1272" type="curve" smooth="yes"/>
      <point x="878" y="1272"/>
      <point x="898" y="1112"/>
      <point x="898" y="1000" type="curve" smooth="yes"/>
      <point x="898" y="718"/>
      <point x="698" y="454"/>
    </contour>
  </outline>
</glyph>
<glyph name="LtnSmNGrave" format="1">
  <advance width="1161"/>
  <unicode hex="01F9"/>
  <outline>
    <component base="LtnSmN"/>
    <component base="CombGrave" xOffset="1137"/>
    <contour>
      <point x="892" y="0" type="move" name="H"/>
    </contour>
    <contour>
      <point x="580" y="-100" type="move" name="L"/>
    </contour>
    <contour>
      <point x="580" y="1500" type="move" name="U"/>
    </contour>
  </outline>
</glyph>
<glyph name="LtnCapARingAbvAcute" format="1">
  <advance width="1380"/>
  <unicode hex="01FA"/>
  <outline>
    <component base="LtnCapA"/>
    <component base="RingAbv" xOffset="440" yOffset="400"/>
    <component base="CombAcute" xOffset="1240" yOffset="960"/>
    <contour>
      <point x="683" y="0" type="move" name="H"/>
    </contour>
    <contour>
      <point x="683" y="2460" type="move" name="U"/>
    </contour>
    <contour>
      <point x="683" y="-100" type="move" name="L"/>
    </contour>
    <contour>
      <point x="1267" y="0" type="move" name="O"/>
    </contour>
  </outline>
</glyph>
<glyph name="LtnSmARingAbvAcute" format="1">
  <advance width="1042"/>
  <unicode hex="01FB"/>
  <outline>
    <component base="LtnSmA"/>
    <component base="RingAbv" xOffset="267"/>
    <component base="CombAcute" xOffset="1067" yOffset="560"/>
    <contour>
      <point x="510" y="0" type="move" name="H"/>
    </contour>
    <contour>
      <point x="1042" y="1000" type="move" name="R"/>
    </contour>
    <contour>
      <point x="510" y="2060" type="move" name="U"/>
    </contour>
    <contour>
      <point x="510" y="-100" type="move" name="L"/>
    </contour>
    <contour>
      <point x="904" y="0" type="move" name="O"/>
    </contour>
  </outline>
</glyph>
<glyph name="LtnCapAeAcute" format="1">
  <advance width="1911"/>
  <unicode hex="01FC"/>
  <outline>
    <component base="LtnCapAe"/>
    <component base="CombAcute" xOffset="1657" yOffset="400"/>
    <contour>
      <point x="1100" y="-100" type="move" name="L"/>
    </contour>
    <contour>
      <point x="1100" y="1900" type="move" name="U"/>
    </contour>
  </outline>
</glyph>
<glyph name="LtnCapADblGrave" format="1">
  <advance width="1380"/>
  <unicode hex="0200"/>
  <outline>
    <component base="LtnCapA"/>
    <component base="CombDblGrave" xOffset="1240" yOffset="400"/>
    <contour>
      <point x="683" y="0" type="move" name="H"/>
    </contour>
    <contour>
      <point x="683" y="1900" type="move" name="U"/>
    </contour>
    <contour>
      <point x="683" y="-100" type="move" name="L"/>
    </contour>
    <contour>
      <point x="1267" y="0" type="move" name="O"/>
    </contour>
  </outline>
</glyph>
<glyph name="LtnSmEInvBreve" format="1">
  <advance width="1004"/>
  <unicode hex="0207"/>
  <outline>
    <component base="LtnSmE"/>
    <component base="CombInvBreve" xOffset="1092"/>
    <contour>
      <point x="502" y="0" type="move" name="H"/>
    </contour>
    <contour>
      <point x="1004" y="1000" type="move" name="R"/>
    </contour>
    <contour>
      <point x="535" y="1500" type="move" name="U"/>
    </contour>
    <contour>
      <point x="535" y="-100" type="move" name="L"/>
    </contour>
    <contour>
      <point x="808" y="0" type="move" name="O"/>
    </contour>
  </outline>
</glyph>
<glyph name="LtnSmIInvBreve" format="1">
  <advance width="621"/>
  <unicode hex="020B"/>
  <outline>
    <component base="LtnSmDotlessI"/>
    <component base="CombInvBreve" xOffset="867"/>
    <contour>
      <point x="310" y="0" type="move" name="H"/>
    </contour>
    <contour>
      <point x="621" y="1000" type="move" name="R"/>
    </contour>
    <contour>
      <point x="310" y="1500" type="move" name="U"/>
    </contour>
    <contour>
      <point x="310" y="-100" type="move" name="L"/>
    </contour>
    <contour>
      <point x="467" y="0" type="move" name="O"/>
    </contour>
  </outline>
</glyph>
<glyph name="LtnCapOInvBreve" format="1">
  <advance width="1497"/>
  <unicode hex="020E"/>
  <outline>
    <component base="LtnCapO"/>
    <component base="CombInvBreve" xOffset="1305" yOffset="400"/>
    <contour>
      <point x="748" y="0" type="move" name="H"/>
    </contour>
    <contour>
      <point x="1487" y="1350" type="move" name="R"/>
    </contour>
    <contour>
      <point x="748" y="1900" type="move" name="U"/>
    </contour>
    <contour>
      <point x="748" y="-100" type="move" name="L"/>
    </contour>
    <contour>
      <point x="1005" y="0" type="move" name="O"/>
    </contour>
  </outline>
</glyph>
<glyph name="LtnCapRDblGrave" format="1">
  <advance width="1329"/>
  <unicode hex="0210"/>
  <outline>
    <component base="LtnCapR"/>
    <component base="CombDblGrave" xOffset="1160" yOffset="400"/>
    <contour>
      <point x="320" y="0" type="move" name="H"/>
    </contour>
    <contour>
      <point x="603" y="1900" type="move" name="U"/>
    </contour>
    <contour>
      <point x="603" y="-100" type="move" name="L"/>
    </contour>
  </outline>
</glyph>
<glyph name="LtnSmRDblGrave" format="1">
  <advance width="801"/>
  <unicode hex="0211"/>
  <outline>
    <component base="LtnSmR"/>
    <component base="CombDblGrave" xOffset="1000"/>
    <contour>
      <point x="290" y="0" type="move" name="H"/>
    </contour>
    <contour>
      <point x="290" y="-100" type="move" name="L"/>
    </contour>
    <contour>
      <point x="443" y="1500" type="move" name="U"/>
    </contour>
  </outline>
</glyph>
<glyph name="LtnCapRInvBreve" format="1">
  <advance width="1329"/>
  <unicode hex="0212"/>
  <outline>
    <component base="LtnCapR"/>
    <component base="CombInvBreve" xOffset="1160" yOffset="400"/>
    <contour>
      <point x="320" y="0" type="move" name="H"/>
    </contour>
    <contour>
      <point x="603" y="1900" type="move" name="U"/>
    </contour>
    <contour>
      <point x="603" y="-100" type="move" name="L"/>
    </contour>
  </outline>
</glyph>
<glyph name="LtnSmRInvBreve" format="1">
  <advance width="801"/>
  <unicode hex="0213"/>
  <outline>
    <component base="LtnSmR"/>
    <component base="CombInvBreve" xOffset="1000"/>
    <contour>
      <point x="290" y="0" type="move" name="H"/>
    </contour>
    <contour>
      <point x="443" y="1500" type="move" name="U"/>
    </contour>
    <contour>
      <point x="290" y="-100" type="move" name="L"/>
    </contour>
  </outline>
</glyph>
<glyph name="LtnCapUDblGrave" format="1">
  <advance width="1458"/>
  <unicode hex="0214"/>
  <outline>
    <component base="LtnCapU"/>
    <component base="CombDblGrave" xOffset="1307" yOffset="400"/>
    <contour>
      <point x="733" y="0" type="move" name="H"/>
    </contour>
    <contour>
      <point x="1508" y="1350" type="move" name="R"/>
    </contour>
    <contour>
      <point x="750" y="1900" type="move" name="U"/>
    </contour>
    <contour>
      <point x="750" y="-100" type="move" name="L"/>
    </contour>
    <contour>
      <point x="1045" y="0" type="move" name="O"/>
    </contour>
  </outline>
</glyph>
<glyph name="LtnCapSCommaBlw" format="1">
  <advance width="1067"/>
  <unicode hex="0218"/>
  <outline>
    <component base="LtnCapS"/>
    <component base="CombCommaBlw" xOffset="1100"/>
    <contour>
      <point x="493" y="0" type="move" name="H"/>
    </contour>
    <contour>
      <point x="543" y="-500" type="move" name="L"/>
    </contour>
    <contour>
      <point x="563" y="1500" type="move" name="U"/>
    </contour>
  </outline>
</glyph>
<glyph name="LtnSmSCommaBlw" format="1">
  <advance width="815"/>
  <unicode hex="0219"/>
  <outline>
    <component base="LtnSmS"/>
    <component base="CombCommaBlw" xOffset="964"/>
    <contour>
      <point x="379" y="0" type="move" name="H"/>
    </contour>
    <contour>
      <point x="407" y="-500" type="move" name="L"/>
    </contour>
    <contour>
      <point x="427" y="1100" type="move" name="U"/>
    </contour>
  </outline>
</glyph>
<glyph name="LtnCapTCommaBlw" format="1">
  <advance width="1227"/>
  <unicode hex="021A"/>
  <outline>
    <component base="LtnCapT"/>
    <component base="CombCommaBlw" xOffset="1170"/>
    <contour>
      <point x="613" y="0" type="move" name="H"/>
    </contour>
    <contour>
      <point x="613" y="1500" type="move" name="U"/>
    </contour>
    <contour>
      <point x="613" y="-500" type="move" name="L"/>
    </contour>
  </outline>
</glyph>
<glyph name="LtnSmTCommaBlw" format="1">
  <advance width="696"/>
  <unicode hex="021B"/>
  <outline>
    <component base="LtnSmT"/>
    <component base="CombCommaBlw" xOffset="925"/>
    <contour>
      <point x="368" y="0" type="move" name="H"/>
    </contour>
    <contour>
      <point x="368" y="-500" type="move" name="L"/>
    </contour>
    <contour>
      <point x="696" y="1000" type="move" name="R"/>
    </contour>
    <contour>
      <point x="358" y="1363" type="move" name="U"/>
    </contour>
  </outline>
</glyph>
<glyph name="LtnSmYogh" format="2">
  <advance width="869"/>
  <unicode hex="021D"/>
  <anchor x="434" y="-500" name="L"/>
  <anchor x="434" y="1100" name="U"/>
  <outline>
    <contour>
      <point x="120" y="-469" type="line"/>
      <point x="479" y="-318"/>
      <point x="799" y="-100"/>
      <point x="799" y="146" type="curve" smooth="yes"/>
      <point x="799" y="297"/>
      <point x="633" y="400"/>
      <point x="440" y="400" type="curve"/>
      <point x="403" y="310" type="line"/>
      <point x="500" y="310"/>
      <point x="604" y="264"/>
      <point x="604" y="125" type="curve" smooth="yes"/>
      <point x="604" y="-33"/>
      <point x="435" y="-212"/>
      <point x="120" y="-363" type="curve"/>
    </contour>
    <contour>
      <point x="215" y="219" type="line"/>
      <point x="521" y="350"/>
      <point x="779" y="518"/>
      <point x="779" y="764" type="curve" smooth="yes"/>
      <point x="779" y="915"/>
      <point x="613" y="1012"/>
      <point x="420" y="1012" type="curve" smooth="yes"/>
      <point x="314" y="1012"/>
      <point x="209" y="999"/>
      <point x="70" y="938" type="curve"/>
      <point x="70" y="715" type="line"/>
      <point x="168" y="715" type="line"/>
      <point x="193" y="834" type="line"/>
      <point x="195" y="848"/>
      <point x="301" y="922"/>
      <point x="383" y="922" type="curve" smooth="yes"/>
      <point x="492" y="922"/>
      <point x="584" y="874"/>
      <point x="584" y="743" type="curve" smooth="yes"/>
      <point x="584" y="600"/>
      <point x="482" y="459"/>
      <point x="215" y="325" type="curve"/>
    </contour>
  </outline>
</glyph>
<glyph name="LtnCapHCaron" format="1">
  <advance width="1522"/>
  <unicode hex="021E"/>
  <outline>
    <component base="LtnCapH"/>
    <component base="CombCaron" xOffset="1318" yOffset="400"/>
    <contour>
      <point x="320" y="0" type="move" name="H"/>
    </contour>
    <contour>
      <point x="761" y="-100" type="move" name="L"/>
    </contour>
    <contour>
      <point x="761" y="1900" type="move" name="U"/>
    </contour>
  </outline>
</glyph>
<glyph name="LtnSmZHook" format="2">
  <advance width="946"/>
  <unicode hex="0225"/>
  <anchor x="485" y="-100" name="L"/>
  <anchor x="485" y="1100" name="U"/>
  <outline>
    <contour>
      <point x="678" y="-291" type="curve"/>
      <point x="744" y="-291" type="line"/>
      <point x="847" y="-205"/>
      <point x="901" y="-90"/>
      <point x="901" y="4" type="curve" smooth="yes"/>
      <point x="901" y="39"/>
      <point x="894" y="71"/>
      <point x="878" y="98" type="curve"/>
      <point x="287" y="98" type="line"/>
      <point x="848" y="903" type="line"/>
      <point x="848" y="987" type="line"/>
      <point x="90" y="987" type="line"/>
      <point x="90" y="696" type="line"/>
      <point x="195" y="696" type="line"/>
      <point x="215" y="848" type="line"/>
      <point x="219" y="866"/>
      <point x="236" y="891"/>
      <point x="256" y="891" type="curve" smooth="yes"/>
      <point x="612" y="891" type="line"/>
      <point x="70" y="109" type="line"/>
      <point x="70" y="0" type="line"/>
      <point x="728" y="0" type="line"/>
      <point x="743" y="-24"/>
      <point x="749" y="-56"/>
      <point x="749" y="-91" type="curve" smooth="yes"/>
      <point x="749" y="-165"/>
      <point x="720" y="-251"/>
    </contour>
  </outline>
</glyph>
<glyph name="LtnSmADotAbv" format="1">
  <advance width="1042"/>
  <unicode hex="0227"/>
  <outline>
    <component base="LtnSmA"/>
    <component base="DotAbv" xOffset="396"/>
    <contour>
      <point x="510" y="0" type="move" name="H"/>
    </contour>
    <contour>
      <point x="510" y="-100" type="move" name="L"/>
    </contour>
    <contour>
      <point x="904" y="0" type="move" name="O"/>
    </contour>
    <contour>
      <point x="1042" y="1000" type="move" name="R"/>
    </contour>
    <contour>
      <point x="510" y="1500" type="move" name="U"/>
    </contour>
  </outline>
</glyph>
<glyph name="LtnCapECedilla" format="1">
  <advance width="1194"/>
  <unicode hex="0228"/>
  <outline>
    <component base="LtnCapE"/>
    <component base="CombCedilla" xOffset="1154"/>
    <contour>
      <point x="1194" y="1200" type="move" name="R"/>
    </contour>
    <contour>
      <point x="597" y="1500" type="move" name="U"/>
    </contour>
    <contour>
      <point x="597" y="-600" type="move" name="L"/>
    </contour>
    <contour>
      <point x="980" y="0" type="move" name="O"/>
    </contour>
  </outline>
</glyph>
<glyph name="LtnSmECedilla" format="1">
  <advance width="1004"/>
  <unicode hex="0229"/>
  <outline>
    <component base="LtnSmE"/>
    <component base="CombCedilla" xOffset="1059"/>
    <contour>
      <point x="1004" y="1000" type="move" name="R"/>
    </contour>
    <contour>
      <point x="535" y="1100" type="move" name="U"/>
    </contour>
    <contour>
      <point x="502" y="-600" type="move" name="L"/>
    </contour>
    <contour>
      <point x="808" y="0" type="move" name="O"/>
    </contour>
  </outline>
</glyph>
<glyph name="LtnCapODiaerMacron" format="1">
  <advance width="1497"/>
  <unicode hex="022A"/>
  <outline>
    <component base="LtnCapO"/>
    <component base="CombDiaer" xOffset="1305" yOffset="400"/>
    <component base="CombMacron" xOffset="1305" yOffset="800"/>
    <contour>
      <point x="748" y="0" type="move" name="H"/>
    </contour>
    <contour>
      <point x="1487" y="1350" type="move" name="R"/>
    </contour>
    <contour>
      <point x="748" y="2270" type="move" name="U"/>
    </contour>
    <contour>
      <point x="748" y="-100" type="move" name="L"/>
    </contour>
    <contour>
      <point x="1005" y="0" type="move" name="O"/>
    </contour>
  </outline>
</glyph>
<glyph name="LtnSmODiaerMacron" format="1">
  <advance width="1114"/>
  <unicode hex="022B"/>
  <outline>
    <component base="LtnSmO"/>
    <component base="CombDiaer" xOffset="1114"/>
    <component base="CombMacron" xOffset="1114" yOffset="400"/>
    <contour>
      <point x="557" y="0" type="move" name="H"/>
    </contour>
    <contour>
      <point x="557" y="-100" type="move" name="L"/>
    </contour>
    <contour>
      <point x="838" y="0" type="move" name="O"/>
    </contour>
    <contour>
      <point x="1114" y="1000" type="move" name="R"/>
    </contour>
    <contour>
      <point x="557" y="1870" type="move" name="U"/>
    </contour>
  </outline>
</glyph>
<glyph name="LtnSmOTildeMacron" format="1">
  <advance width="1114"/>
  <unicode hex="022D"/>
  <outline>
    <component base="LtnSmO"/>
    <component base="SmTilde" xOffset="202"/>
    <component base="CombMacron" xOffset="1114" yOffset="400"/>
    <contour>
      <point x="557" y="0" type="move" name="H"/>
    </contour>
    <contour>
      <point x="557" y="-100" type="move" name="L"/>
    </contour>
    <contour>
      <point x="838" y="0" type="move" name="O"/>
    </contour>
    <contour>
      <point x="1114" y="1000" type="move" name="R"/>
    </contour>
    <contour>
      <point x="557" y="1870" type="move" name="U"/>
    </contour>
  </outline>
</glyph>
<glyph name="LtnCapODotAbv" format="1">
  <advance width="1497"/>
  <unicode hex="022E"/>
  <outline>
    <component base="LtnCapO"/>
    <component base="DotAbv" xOffset="634" yOffset="400"/>
    <contour>
      <point x="748" y="0" type="move" name="H"/>
    </contour>
    <contour>
      <point x="1487" y="1350" type="move" name="R"/>
    </contour>
    <contour>
      <point x="748" y="1900" type="move" name="U"/>
    </contour>
    <contour>
      <point x="748" y="-100" type="move" name="L"/>
    </contour>
    <contour>
      <point x="1005" y="0" type="move" name="O"/>
    </contour>
  </outline>
</glyph>
<glyph name="LtnCapODotAbvMacron" format="1">
  <advance width="1497"/>
  <unicode hex="0230"/>
  <outline>
    <component base="LtnCapO"/>
    <component base="DotAbv" xOffset="634" yOffset="400"/>
    <component base="CombMacron" xOffset="1305" yOffset="800"/>
    <contour>
      <point x="748" y="0" type="move" name="H"/>
    </contour>
    <contour>
      <point x="748" y="-100" type="move" name="L"/>
    </contour>
    <contour>
      <point x="1005" y="0" type="move" name="O"/>
    </contour>
    <contour>
      <point x="1487" y="1350" type="move" name="R"/>
    </contour>
    <contour>
      <point x="748" y="2270" type="move" name="U"/>
    </contour>
  </outline>
</glyph>
<glyph name="LtnSmODotAbvMacron" format="1">
  <advance width="1114"/>
  <unicode hex="0231"/>
  <outline>
    <component base="LtnSmO"/>
    <component base="DotAbv" xOffset="443"/>
    <component base="CombMacron" xOffset="1114" yOffset="400"/>
    <contour>
      <point x="557" y="0" type="move" name="H"/>
    </contour>
    <contour>
      <point x="1114" y="1000" type="move" name="R"/>
    </contour>
    <contour>
      <point x="557" y="1870" type="move" name="U"/>
    </contour>
    <contour>
      <point x="557" y="-100" type="move" name="L"/>
    </contour>
    <contour>
      <point x="838" y="0" type="move" name="O"/>
    </contour>
  </outline>
</glyph>
<glyph name="LtnSmYMacron" format="1">
  <advance width="1085"/>
  <unicode hex="0233"/>
  <outline>
    <component base="LtnSmY"/>
    <component base="CombMacron" xOffset="1118"/>
    <contour>
      <point x="1085" y="1000" type="move" name="R"/>
    </contour>
    <contour>
      <point x="561" y="1470" type="move" name="U"/>
    </contour>
    <contour>
      <point x="542" y="-500" type="move" name="L"/>
    </contour>
  </outline>
</glyph>
<glyph name="LtnSmTCurl" format="2">
  <advance width="696"/>
  <unicode hex="0236"/>
  <anchor x="330" y="-100" name="L"/>
  <anchor x="330" y="1363" name="U"/>
  <outline>
    <contour>
      <point x="723" y="244" type="curve" smooth="yes"/>
      <point x="723" y="344"/>
      <point x="645" y="401"/>
      <point x="551" y="401" type="curve" smooth="yes"/>
      <point x="483" y="401"/>
      <point x="436" y="383"/>
      <point x="377" y="350" type="curve"/>
      <point x="377" y="885" type="line"/>
      <point x="666" y="885" type="line"/>
      <point x="666" y="987" type="line"/>
      <point x="377" y="987" type="line"/>
      <point x="377" y="1235" type="line"/>
      <point x="287" y="1235" type="line"/>
      <point x="195" y="1018" type="line"/>
      <point x="55" y="952" type="line"/>
      <point x="55" y="885" type="line"/>
      <point x="186" y="885" type="line"/>
      <point x="186" y="203" type="line"/>
      <point x="74" y="84"/>
      <point x="-14" y="-68"/>
      <point x="-63" y="-188" type="curve"/>
      <point x="23" y="-227" type="line"/>
      <point x="66" y="-123"/>
      <point x="131" y="-6"/>
      <point x="211" y="92" type="curve"/>
      <point x="250" y="14"/>
      <point x="332" y="-25"/>
      <point x="442" y="-25" type="curve" smooth="yes"/>
      <point x="616" y="-25"/>
      <point x="723" y="88"/>
    </contour>
    <contour>
      <point x="629" y="225" type="curve" smooth="yes"/>
      <point x="629" y="156"/>
      <point x="571" y="74"/>
      <point x="485" y="74" type="curve" smooth="yes"/>
      <point x="418" y="74"/>
      <point x="385" y="141"/>
      <point x="377" y="254" type="curve"/>
      <point x="432" y="291"/>
      <point x="477" y="311"/>
      <point x="537" y="311" type="curve" smooth="yes"/>
      <point x="596" y="311"/>
      <point x="629" y="287"/>
    </contour>
  </outline>
</glyph>
<glyph name="LtnSmDBDigraph" format="2">
  <advance width="1733"/>
  <unicode hex="0238"/>
  <anchor x="866" y="-100" name="L"/>
  <anchor x="866" y="1540" name="U"/>
  <outline>
    <contour>
      <point x="463" y="-25" type="curve" smooth="yes"/>
      <point x="582" y="-25"/>
      <point x="686" y="37"/>
      <point x="780" y="109" type="curve"/>
      <point x="780" y="0" type="line"/>
      <point x="1075" y="0" type="line" smooth="yes"/>
      <point x="1487" y="0"/>
      <point x="1663" y="233"/>
      <point x="1663" y="541" type="curve" smooth="yes"/>
      <point x="1663" y="793"/>
      <point x="1522" y="1012"/>
      <point x="1253" y="1012" type="curve" smooth="yes"/>
      <point x="1133" y="1012"/>
      <point x="1018" y="958"/>
      <point x="971" y="936" type="curve"/>
      <point x="971" y="1509" type="line"/>
      <point x="889" y="1509" type="line"/>
      <point x="625" y="1430" type="line"/>
      <point x="625" y="1362" type="line"/>
      <point x="780" y="1362" type="line"/>
      <point x="780" y="987" type="line"/>
      <point x="748" y="995"/>
      <point x="657" y="1012"/>
      <point x="592" y="1012" type="curve" smooth="yes"/>
      <point x="240" y="1012"/>
      <point x="70" y="745"/>
      <point x="70" y="467" type="curve" smooth="yes"/>
      <point x="70" y="236"/>
      <point x="188" y="-25"/>
    </contour>
    <contour>
      <point x="569" y="115" type="curve" smooth="yes"/>
      <point x="381" y="115"/>
      <point x="272" y="279"/>
      <point x="272" y="502" type="curve" smooth="yes"/>
      <point x="272" y="750"/>
      <point x="403" y="913"/>
      <point x="606" y="913" type="curve" smooth="yes"/>
      <point x="666" y="913"/>
      <point x="745" y="895"/>
      <point x="780" y="883" type="curve"/>
      <point x="780" y="186" type="line"/>
      <point x="727" y="154"/>
      <point x="651" y="115"/>
    </contour>
    <contour>
      <point x="1071" y="96" type="curve" smooth="yes"/>
      <point x="1032" y="96"/>
      <point x="971" y="98"/>
      <point x="971" y="98" type="curve"/>
      <point x="971" y="858" type="line"/>
      <point x="1012" y="872"/>
      <point x="1096" y="891"/>
      <point x="1141" y="891" type="curve" smooth="yes"/>
      <point x="1339" y="891"/>
      <point x="1454" y="758"/>
      <point x="1454" y="500" type="curve" smooth="yes"/>
      <point x="1454" y="201"/>
      <point x="1313" y="96"/>
    </contour>
  </outline>
</glyph>
<glyph name="LtnCapAStrk" format="1">
  <advance width="1380"/>
  <unicode hex="023A"/>
  <outline>
    <contour>
      <point x="162" y="-104" type="line"/>
      <point x="256" y="-162" type="line"/>
      <point x="1231" y="1475" type="line"/>
      <point x="1134" y="1532" type="line"/>
    </contour>
    <component base="LtnCapA"/>
    <contour>
      <point x="690" y="1500" type="move" name="U"/>
    </contour>
    <contour>
      <point x="690" y="-100" type="move" name="L"/>
    </contour>
    <contour>
      <point x="1267" y="0" type="move" name="O"/>
    </contour>
    <contour>
      <point x="1109" y="0" type="move" name="H"/>
    </contour>
  </outline>
</glyph>
<glyph name="LtnCapCStrk" format="1">
  <advance width="1284"/>
  <unicode hex="023B"/>
  <outline>
    <contour>
      <point x="142" y="-104" type="line"/>
      <point x="236" y="-162" type="line"/>
      <point x="1211" y="1475" type="line"/>
      <point x="1114" y="1532" type="line"/>
    </contour>
    <component base="LtnCapC"/>
    <contour>
      <point x="693" y="1500" type="move" name="U"/>
    </contour>
    <contour>
      <point x="693" y="-100" type="move" name="L"/>
    </contour>
    <contour>
      <point x="645" y="0" type="move" name="H"/>
    </contour>
  </outline>
</glyph>
<glyph name="LtnCapTDiagStrk" format="1">
  <advance width="1227"/>
  <unicode hex="023E"/>
  <outline>
    <contour>
      <point x="82" y="-104" type="line"/>
      <point x="176" y="-162" type="line"/>
      <point x="1151" y="1475" type="line"/>
      <point x="1054" y="1532" type="line"/>
    </contour>
    <component base="LtnCapT"/>
    <contour>
      <point x="613" y="0" type="move" name="H"/>
    </contour>
    <contour>
      <point x="613" y="-100" type="move" name="L"/>
    </contour>
    <contour>
      <point x="613" y="1500" type="move" name="U"/>
    </contour>
  </outline>
</glyph>
<glyph name="LtnCapTurnedV" format="1">
  <advance width="1364"/>
  <unicode hex="0245"/>
  <outline>
    <contour>
      <point x="1343" y="0" type="line"/>
      <point x="1343" y="88" type="line"/>
      <point x="1223" y="109" type="line"/>
      <point x="754" y="1407" type="line"/>
      <point x="598" y="1407" type="line"/>
      <point x="137" y="111" type="line"/>
      <point x="20" y="88" type="line"/>
      <point x="20" y="0" type="line"/>
      <point x="426" y="0" type="line"/>
      <point x="426" y="88" type="line"/>
      <point x="313" y="98" type="line" smooth="yes"/>
      <point x="295" y="100"/>
      <point x="281" y="123"/>
      <point x="287" y="139" type="curve" smooth="yes"/>
      <point x="633" y="1147" type="line"/>
      <point x="991" y="135" type="line" smooth="yes"/>
      <point x="995" y="123"/>
      <point x="989" y="98"/>
      <point x="975" y="98" type="curve" smooth="yes"/>
      <point x="854" y="88" type="line"/>
      <point x="854" y="0" type="line"/>
    </contour>
    <contour>
      <point x="681" y="-100" type="move" name="L"/>
    </contour>
    <contour>
      <point x="681" y="1500" type="move" name="U"/>
    </contour>
  </outline>
</glyph>
<glyph name="LtnCapEStrk" format="1">
  <advance width="1194"/>
  <unicode hex="0246"/>
  <outline>
    <contour>
      <point x="32" y="-104" type="line"/>
      <point x="126" y="-162" type="line"/>
      <point x="1101" y="1475" type="line"/>
      <point x="1004" y="1532" type="line"/>
    </contour>
    <component base="LtnCapE"/>
    <contour>
      <point x="604" y="-100" type="move" name="L"/>
    </contour>
    <contour>
      <point x="604" y="1500" type="move" name="U"/>
    </contour>
  </outline>
</glyph>
<glyph name="LtnSmEStrk" format="1">
  <advance width="1004"/>
  <unicode hex="0247"/>
  <outline>
    <component base="LtnSmE"/>
    <component base="CombShortSolidusOverlay" xOffset="1077"/>
    <contour>
      <point x="525" y="-100" type="move" name="L"/>
    </contour>
    <contour>
      <point x="525" y="1100" type="move" name="U"/>
    </contour>
  </outline>
</glyph>
